<mxfile host="Electron" agent="Mozilla/5.0 (Windows NT 10.0; Win64; x64) AppleWebKit/537.36 (KHTML, like Gecko) draw.io/28.2.5 Chrome/138.0.7204.251 Electron/37.6.1 Safari/537.36" version="28.2.5">
  <diagram name="Page-1" id="chpU6isQRe7xWgrI1y9X">
    <mxGraphModel dx="1426" dy="961" grid="1" gridSize="10" guides="1" tooltips="1" connect="1" arrows="1" fold="1" page="0" pageScale="1" pageWidth="850" pageHeight="1100" math="0" shadow="0">
      <root>
        <mxCell id="0" />
        <mxCell id="1" parent="0" />
        <mxCell id="Ue-omXQS7CLfrASGAL8i-1" value="&lt;h1&gt;High Level Architecture&lt;/h1&gt;" style="text;strokeColor=none;align=center;fillColor=none;html=1;verticalAlign=middle;whiteSpace=wrap;rounded=0;" parent="1" vertex="1">
          <mxGeometry x="410" y="50" width="300" height="30" as="geometry" />
        </mxCell>
        <mxCell id="Ue-omXQS7CLfrASGAL8i-2" value="" style="rounded=0;whiteSpace=wrap;html=1;fillColor=none;dashed=1;dashPattern=1 4;" parent="1" vertex="1">
          <mxGeometry x="40" y="150" width="210" height="630" as="geometry" />
        </mxCell>
        <mxCell id="Ue-omXQS7CLfrASGAL8i-3" value="&lt;font style=&quot;font-size: 16px;&quot;&gt;&lt;b&gt;Sources&lt;/b&gt;&lt;/font&gt;" style="text;html=1;align=center;verticalAlign=middle;resizable=0;points=[];autosize=1;strokeColor=none;fillColor=default;" parent="1" vertex="1">
          <mxGeometry x="100" y="130" width="90" height="30" as="geometry" />
        </mxCell>
        <mxCell id="Ue-omXQS7CLfrASGAL8i-4" value="" style="rounded=0;whiteSpace=wrap;html=1;fillColor=none;dashed=1;dashPattern=1 4;" parent="1" vertex="1">
          <mxGeometry x="270" y="150" width="750" height="630" as="geometry" />
        </mxCell>
        <mxCell id="Ue-omXQS7CLfrASGAL8i-5" value="&lt;font style=&quot;font-size: 16px;&quot;&gt;&lt;b&gt;Data Warehouse&lt;/b&gt;&lt;/font&gt;" style="text;html=1;align=center;verticalAlign=middle;resizable=0;points=[];autosize=1;strokeColor=none;fillColor=default;" parent="1" vertex="1">
          <mxGeometry x="570" y="130" width="150" height="30" as="geometry" />
        </mxCell>
        <mxCell id="Ue-omXQS7CLfrASGAL8i-7" value="" style="rounded=0;whiteSpace=wrap;html=1;fillColor=none;dashed=1;dashPattern=1 4;" parent="1" vertex="1">
          <mxGeometry x="1050" y="150" width="270" height="630" as="geometry" />
        </mxCell>
        <mxCell id="Ue-omXQS7CLfrASGAL8i-9" value="Bronze Layer" style="rounded=0;whiteSpace=wrap;html=1;fillColor=#ffe6cc;strokeColor=#d79b00;fontStyle=1;fontSize=16;" parent="1" vertex="1">
          <mxGeometry x="300" y="180" width="200" height="40" as="geometry" />
        </mxCell>
        <mxCell id="Ue-omXQS7CLfrASGAL8i-10" value="" style="rounded=0;whiteSpace=wrap;html=1;fillColor=none;strokeColor=#d79b00;fontStyle=1;fontSize=16;" parent="1" vertex="1">
          <mxGeometry x="300" y="230" width="200" height="520" as="geometry" />
        </mxCell>
        <mxCell id="Ue-omXQS7CLfrASGAL8i-11" value="Silver Layer" style="rounded=0;whiteSpace=wrap;html=1;fillColor=#f5f5f5;strokeColor=#666666;fontColor=#333333;fontStyle=1;fontSize=16;" parent="1" vertex="1">
          <mxGeometry x="540" y="180" width="200" height="40" as="geometry" />
        </mxCell>
        <mxCell id="Ue-omXQS7CLfrASGAL8i-12" value="" style="rounded=0;whiteSpace=wrap;html=1;fillColor=none;strokeColor=#666666;fontColor=#333333;fontStyle=1;fontSize=16;" parent="1" vertex="1">
          <mxGeometry x="540" y="230" width="200" height="520" as="geometry" />
        </mxCell>
        <mxCell id="Ue-omXQS7CLfrASGAL8i-15" value="Gold Layer" style="rounded=0;whiteSpace=wrap;html=1;fillColor=#fff2cc;strokeColor=#d6b656;fontStyle=1;fontSize=16;" parent="1" vertex="1">
          <mxGeometry x="780" y="180" width="200" height="40" as="geometry" />
        </mxCell>
        <mxCell id="Ue-omXQS7CLfrASGAL8i-16" value="" style="rounded=0;whiteSpace=wrap;html=1;fillColor=none;strokeColor=#d6b656;fontStyle=1;fontSize=16;" parent="1" vertex="1">
          <mxGeometry x="780" y="230" width="200" height="520" as="geometry" />
        </mxCell>
        <mxCell id="Ue-omXQS7CLfrASGAL8i-19" value="" style="group" parent="1" vertex="1" connectable="0">
          <mxGeometry x="110" y="320" width="74.35" height="65" as="geometry" />
        </mxCell>
        <mxCell id="Ue-omXQS7CLfrASGAL8i-17" value="&lt;b&gt;&lt;font style=&quot;font-size: 14px;&quot;&gt;CRM&lt;/font&gt;&lt;/b&gt;" style="image;aspect=fixed;html=1;points=[];align=center;fontSize=12;image=img/lib/azure2/general/Folder_Blank.svg;" parent="Ue-omXQS7CLfrASGAL8i-19" vertex="1">
          <mxGeometry width="69" height="56.00000000000001" as="geometry" />
        </mxCell>
        <mxCell id="Ue-omXQS7CLfrASGAL8i-18" value="" style="image;aspect=fixed;html=1;points=[];align=center;fontSize=12;image=img/lib/azure2/general/File.svg;" parent="Ue-omXQS7CLfrASGAL8i-19" vertex="1">
          <mxGeometry x="50" y="35" width="24.35" height="30" as="geometry" />
        </mxCell>
        <mxCell id="Ue-omXQS7CLfrASGAL8i-20" value="" style="group" parent="1" vertex="1" connectable="0">
          <mxGeometry x="110" y="450" width="74.35" height="65" as="geometry" />
        </mxCell>
        <mxCell id="Ue-omXQS7CLfrASGAL8i-21" value="&lt;b&gt;&lt;font style=&quot;font-size: 14px;&quot;&gt;ERP&lt;/font&gt;&lt;/b&gt;" style="image;aspect=fixed;html=1;points=[];align=center;fontSize=12;image=img/lib/azure2/general/Folder_Blank.svg;" parent="Ue-omXQS7CLfrASGAL8i-20" vertex="1">
          <mxGeometry width="69" height="56.00000000000001" as="geometry" />
        </mxCell>
        <mxCell id="Ue-omXQS7CLfrASGAL8i-22" value="" style="image;aspect=fixed;html=1;points=[];align=center;fontSize=12;image=img/lib/azure2/general/File.svg;" parent="Ue-omXQS7CLfrASGAL8i-20" vertex="1">
          <mxGeometry x="50" y="35" width="24.35" height="30" as="geometry" />
        </mxCell>
        <mxCell id="Ue-omXQS7CLfrASGAL8i-25" value="&lt;font style=&quot;font-size: 14px;&quot;&gt;&lt;b&gt;Object type&lt;/b&gt;: CSV FIles&lt;/font&gt;" style="text;html=1;align=left;verticalAlign=middle;resizable=0;points=[];autosize=1;strokeColor=none;fillColor=none;" parent="1" vertex="1">
          <mxGeometry x="50" y="643" width="170" height="30" as="geometry" />
        </mxCell>
        <mxCell id="Ue-omXQS7CLfrASGAL8i-27" value="" style="html=1;verticalLabelPosition=bottom;align=center;labelBackgroundColor=#ffffff;verticalAlign=top;strokeWidth=2;strokeColor=#d79b00;shadow=0;dashed=0;shape=mxgraph.ios7.icons.data;fillColor=#ffe6cc;" parent="1" vertex="1">
          <mxGeometry x="372.5" y="311" width="55" height="65" as="geometry" />
        </mxCell>
        <mxCell id="Ue-omXQS7CLfrASGAL8i-28" value="" style="html=1;verticalLabelPosition=bottom;align=center;labelBackgroundColor=#ffffff;verticalAlign=top;strokeWidth=2;strokeColor=#666666;shadow=0;dashed=0;shape=mxgraph.ios7.icons.data;fillColor=#f5f5f5;fontColor=#333333;" parent="1" vertex="1">
          <mxGeometry x="612.5" y="311" width="55" height="65" as="geometry" />
        </mxCell>
        <mxCell id="JCEpfgK2Egb2X4AtH0_e-1" value="&lt;b&gt;Raw Datas&lt;/b&gt;" style="text;html=1;align=center;verticalAlign=middle;resizable=0;points=[];autosize=1;strokeColor=none;fillColor=none;" parent="1" vertex="1">
          <mxGeometry x="360" y="381" width="80" height="30" as="geometry" />
        </mxCell>
        <mxCell id="JCEpfgK2Egb2X4AtH0_e-2" value="&lt;b&gt;&lt;font style=&quot;font-size: 14px;&quot;&gt;Cleansed, Standardized Data&lt;/font&gt;&lt;/b&gt;" style="text;html=1;align=center;verticalAlign=middle;resizable=0;points=[];autosize=1;strokeColor=none;fillColor=none;" parent="1" vertex="1">
          <mxGeometry x="530" y="381" width="220" height="30" as="geometry" />
        </mxCell>
        <mxCell id="JCEpfgK2Egb2X4AtH0_e-3" value="&lt;b&gt;&lt;font style=&quot;font-size: 14px;&quot;&gt;Business-Readied Data&lt;/font&gt;&lt;/b&gt;" style="text;html=1;align=center;verticalAlign=middle;resizable=0;points=[];autosize=1;strokeColor=none;fillColor=none;" parent="1" vertex="1">
          <mxGeometry x="790" y="381" width="180" height="30" as="geometry" />
        </mxCell>
        <mxCell id="rQswdgw3q1JFmHaOcL7g-1" value="&lt;div&gt;&lt;font style=&quot;font-size: 14px;&quot;&gt;&lt;b&gt;Interface&lt;/b&gt;: Files in Folders&lt;/font&gt;&lt;/div&gt;" style="text;html=1;align=left;verticalAlign=middle;resizable=0;points=[];autosize=1;strokeColor=none;fillColor=none;" parent="1" vertex="1">
          <mxGeometry x="50" y="678" width="180" height="30" as="geometry" />
        </mxCell>
        <mxCell id="rQswdgw3q1JFmHaOcL7g-3" value="" style="html=1;verticalLabelPosition=bottom;align=center;labelBackgroundColor=#ffffff;verticalAlign=top;strokeWidth=2;strokeColor=#d6b656;shadow=0;dashed=0;shape=mxgraph.ios7.icons.data;fillColor=#fff2cc;" parent="1" vertex="1">
          <mxGeometry x="852.5" y="311" width="55" height="65" as="geometry" />
        </mxCell>
        <mxCell id="rQswdgw3q1JFmHaOcL7g-6" value="" style="group" parent="1" vertex="1" connectable="0">
          <mxGeometry x="340" y="230" width="120" height="60" as="geometry" />
        </mxCell>
        <mxCell id="rQswdgw3q1JFmHaOcL7g-4" value="" style="image;aspect=fixed;html=1;points=[];align=center;fontSize=12;image=img/lib/azure2/general/Code.svg;" parent="rQswdgw3q1JFmHaOcL7g-6" vertex="1">
          <mxGeometry x="38.45999999999998" y="25" width="43.08" height="35" as="geometry" />
        </mxCell>
        <mxCell id="rQswdgw3q1JFmHaOcL7g-5" value="Stored Procedures" style="text;html=1;align=center;verticalAlign=middle;resizable=0;points=[];autosize=1;strokeColor=none;fillColor=none;" parent="rQswdgw3q1JFmHaOcL7g-6" vertex="1">
          <mxGeometry width="120" height="30" as="geometry" />
        </mxCell>
        <mxCell id="rQswdgw3q1JFmHaOcL7g-7" value="" style="group" parent="1" vertex="1" connectable="0">
          <mxGeometry x="580" y="230" width="120" height="60" as="geometry" />
        </mxCell>
        <mxCell id="rQswdgw3q1JFmHaOcL7g-8" value="" style="image;aspect=fixed;html=1;points=[];align=center;fontSize=12;image=img/lib/azure2/general/Code.svg;" parent="rQswdgw3q1JFmHaOcL7g-7" vertex="1">
          <mxGeometry x="38.45999999999998" y="25" width="43.08" height="35" as="geometry" />
        </mxCell>
        <mxCell id="rQswdgw3q1JFmHaOcL7g-9" value="Stored Procedures" style="text;html=1;align=center;verticalAlign=middle;resizable=0;points=[];autosize=1;strokeColor=none;fillColor=none;" parent="rQswdgw3q1JFmHaOcL7g-7" vertex="1">
          <mxGeometry width="120" height="30" as="geometry" />
        </mxCell>
        <mxCell id="rQswdgw3q1JFmHaOcL7g-10" style="edgeStyle=orthogonalEdgeStyle;rounded=0;orthogonalLoop=1;jettySize=auto;html=1;endArrow=none;endFill=0;strokeColor=#79DBFF;" parent="1" source="rQswdgw3q1JFmHaOcL7g-4" target="Ue-omXQS7CLfrASGAL8i-27" edge="1">
          <mxGeometry relative="1" as="geometry" />
        </mxCell>
        <mxCell id="rQswdgw3q1JFmHaOcL7g-11" style="edgeStyle=orthogonalEdgeStyle;rounded=0;orthogonalLoop=1;jettySize=auto;html=1;endArrow=none;endFill=0;strokeColor=#79DBFF;" parent="1" source="rQswdgw3q1JFmHaOcL7g-8" target="Ue-omXQS7CLfrASGAL8i-28" edge="1">
          <mxGeometry relative="1" as="geometry" />
        </mxCell>
        <mxCell id="rQswdgw3q1JFmHaOcL7g-12" value="" style="endArrow=none;html=1;rounded=0;fillColor=#ffe6cc;strokeColor=#d79b00;" parent="1" edge="1">
          <mxGeometry width="50" height="50" relative="1" as="geometry">
            <mxPoint x="490" y="439" as="sourcePoint" />
            <mxPoint x="310" y="439" as="targetPoint" />
          </mxGeometry>
        </mxCell>
        <mxCell id="rQswdgw3q1JFmHaOcL7g-13" value="" style="endArrow=none;html=1;rounded=0;fillColor=#f5f5f5;strokeColor=#666666;" parent="1" edge="1">
          <mxGeometry width="50" height="50" relative="1" as="geometry">
            <mxPoint x="730" y="439" as="sourcePoint" />
            <mxPoint x="550" y="439" as="targetPoint" />
          </mxGeometry>
        </mxCell>
        <mxCell id="rQswdgw3q1JFmHaOcL7g-14" value="" style="endArrow=none;html=1;rounded=0;fillColor=#fff2cc;strokeColor=#d6b656;" parent="1" edge="1">
          <mxGeometry width="50" height="50" relative="1" as="geometry">
            <mxPoint x="970" y="439" as="sourcePoint" />
            <mxPoint x="790" y="439" as="targetPoint" />
          </mxGeometry>
        </mxCell>
        <mxCell id="rQswdgw3q1JFmHaOcL7g-17" value="&lt;font style=&quot;font-size: 14px;&quot;&gt;&lt;b&gt;Object type&lt;/b&gt;: Tables&lt;/font&gt;" style="text;html=1;align=left;verticalAlign=middle;resizable=0;points=[];autosize=1;strokeColor=none;fillColor=none;" parent="1" vertex="1">
          <mxGeometry x="310" y="450" width="150" height="30" as="geometry" />
        </mxCell>
        <mxCell id="rQswdgw3q1JFmHaOcL7g-18" value="&lt;font style=&quot;font-size: 14px;&quot;&gt;&lt;b&gt;Object type&lt;/b&gt;: Tables&lt;/font&gt;" style="text;html=1;align=left;verticalAlign=middle;resizable=0;points=[];autosize=1;strokeColor=none;fillColor=none;" parent="1" vertex="1">
          <mxGeometry x="550" y="450" width="150" height="30" as="geometry" />
        </mxCell>
        <mxCell id="rQswdgw3q1JFmHaOcL7g-19" value="&lt;font style=&quot;font-size: 14px;&quot;&gt;&lt;b&gt;Object type&lt;/b&gt;: Tables&lt;/font&gt;" style="text;html=1;align=left;verticalAlign=middle;resizable=0;points=[];autosize=1;strokeColor=none;fillColor=none;" parent="1" vertex="1">
          <mxGeometry x="790" y="450" width="150" height="30" as="geometry" />
        </mxCell>
        <mxCell id="rQswdgw3q1JFmHaOcL7g-20" value="&lt;b style=&quot;&quot;&gt;&lt;font style=&quot;font-size: 14px;&quot;&gt;Load&lt;/font&gt;&lt;/b&gt;&lt;div&gt;&lt;ul&gt;&lt;li&gt;&lt;font style=&quot;font-size: 14px;&quot;&gt;Batch Processing&lt;/font&gt;&lt;/li&gt;&lt;li&gt;&lt;font style=&quot;font-size: 14px;&quot;&gt;Full Load&lt;/font&gt;&lt;/li&gt;&lt;li&gt;&lt;font style=&quot;font-size: 14px;&quot;&gt;Truncate &amp;amp; Insert&lt;span style=&quot;white-space: pre;&quot;&gt;&#x9;&lt;/span&gt;&lt;/font&gt;&lt;/li&gt;&lt;/ul&gt;&lt;/div&gt;" style="text;html=1;align=left;verticalAlign=middle;resizable=0;points=[];autosize=1;strokeColor=none;fillColor=none;" parent="1" vertex="1">
          <mxGeometry x="310" y="480" width="190" height="100" as="geometry" />
        </mxCell>
        <mxCell id="rQswdgw3q1JFmHaOcL7g-21" value="&lt;b style=&quot;&quot;&gt;&lt;font style=&quot;font-size: 14px;&quot;&gt;Load&lt;/font&gt;&lt;/b&gt;&lt;div&gt;&lt;ul&gt;&lt;li&gt;&lt;font style=&quot;font-size: 14px;&quot;&gt;Batch Processing&lt;/font&gt;&lt;/li&gt;&lt;li&gt;&lt;font style=&quot;font-size: 14px;&quot;&gt;Full Load&lt;/font&gt;&lt;/li&gt;&lt;li&gt;&lt;font style=&quot;font-size: 14px;&quot;&gt;Truncate &amp;amp; Insert&lt;span style=&quot;white-space: pre;&quot;&gt;&#x9;&lt;/span&gt;&lt;/font&gt;&lt;/li&gt;&lt;/ul&gt;&lt;/div&gt;" style="text;html=1;align=left;verticalAlign=middle;resizable=0;points=[];autosize=1;strokeColor=none;fillColor=none;" parent="1" vertex="1">
          <mxGeometry x="550" y="481" width="190" height="100" as="geometry" />
        </mxCell>
        <mxCell id="rQswdgw3q1JFmHaOcL7g-22" value="&lt;span style=&quot;font-size: 14px;&quot;&gt;No&lt;b&gt; Load&lt;/b&gt;&lt;/span&gt;" style="text;html=1;align=left;verticalAlign=middle;resizable=0;points=[];autosize=1;strokeColor=none;fillColor=none;" parent="1" vertex="1">
          <mxGeometry x="790" y="481" width="80" height="30" as="geometry" />
        </mxCell>
        <mxCell id="rQswdgw3q1JFmHaOcL7g-23" value="&lt;span style=&quot;font-size: 14px;&quot;&gt;No &lt;b&gt;Transformations&lt;/b&gt;&lt;/span&gt;" style="text;html=1;align=left;verticalAlign=middle;resizable=0;points=[];autosize=1;strokeColor=none;fillColor=none;" parent="1" vertex="1">
          <mxGeometry x="310" y="571" width="160" height="30" as="geometry" />
        </mxCell>
        <mxCell id="rQswdgw3q1JFmHaOcL7g-24" value="&lt;span style=&quot;font-size: 14px;&quot;&gt;&lt;b&gt;Data Model&lt;/b&gt;: None (as-is)&lt;/span&gt;" style="text;html=1;align=left;verticalAlign=middle;resizable=0;points=[];autosize=1;strokeColor=none;fillColor=none;" parent="1" vertex="1">
          <mxGeometry x="310" y="604" width="180" height="30" as="geometry" />
        </mxCell>
        <mxCell id="rQswdgw3q1JFmHaOcL7g-26" value="&lt;span style=&quot;font-size: 14px;&quot;&gt;&lt;b&gt;Transformations&lt;/b&gt;&lt;/span&gt;&lt;div&gt;&lt;ul&gt;&lt;li&gt;&lt;span style=&quot;font-size: 14px;&quot;&gt;Data Cleansing&lt;/span&gt;&lt;/li&gt;&lt;li&gt;&lt;span style=&quot;font-size: 14px;&quot;&gt;Data Standardization&lt;/span&gt;&lt;/li&gt;&lt;li&gt;&lt;span style=&quot;font-size: 14px;&quot;&gt;Data Normalization&lt;/span&gt;&lt;/li&gt;&lt;li&gt;&lt;span style=&quot;font-size: 14px;&quot;&gt;Derived Columns&lt;/span&gt;&lt;/li&gt;&lt;li&gt;&lt;span style=&quot;font-size: 14px;&quot;&gt;Data Enrichment&lt;/span&gt;&lt;/li&gt;&lt;/ul&gt;&lt;/div&gt;" style="text;html=1;align=left;verticalAlign=middle;resizable=0;points=[];autosize=1;strokeColor=none;fillColor=none;" parent="1" vertex="1">
          <mxGeometry x="550" y="571" width="190" height="140" as="geometry" />
        </mxCell>
        <mxCell id="rQswdgw3q1JFmHaOcL7g-27" value="&lt;span style=&quot;font-size: 14px;&quot;&gt;&lt;b&gt;Data Model&lt;/b&gt;: None (as-is)&lt;/span&gt;" style="text;html=1;align=left;verticalAlign=middle;resizable=0;points=[];autosize=1;strokeColor=none;fillColor=none;" parent="1" vertex="1">
          <mxGeometry x="550" y="698" width="180" height="30" as="geometry" />
        </mxCell>
        <mxCell id="rQswdgw3q1JFmHaOcL7g-28" value="&lt;span style=&quot;font-size: 14px;&quot;&gt;&lt;b&gt;Transformations&lt;/b&gt;&lt;/span&gt;&lt;div&gt;&lt;ul&gt;&lt;li&gt;&lt;span style=&quot;font-size: 14px;&quot;&gt;Data Integretions&lt;/span&gt;&lt;/li&gt;&lt;li&gt;&lt;span style=&quot;font-size: 14px;&quot;&gt;Aggregations&lt;/span&gt;&lt;/li&gt;&lt;li&gt;&lt;span style=&quot;font-size: 14px;&quot;&gt;Business Logics&lt;/span&gt;&lt;/li&gt;&lt;/ul&gt;&lt;/div&gt;" style="text;html=1;align=left;verticalAlign=middle;resizable=0;points=[];autosize=1;strokeColor=none;fillColor=none;" parent="1" vertex="1">
          <mxGeometry x="790" y="515" width="170" height="100" as="geometry" />
        </mxCell>
        <mxCell id="rQswdgw3q1JFmHaOcL7g-29" value="&lt;span style=&quot;font-size: 14px;&quot;&gt;&lt;b&gt;Data Model&lt;/b&gt;&lt;/span&gt;&lt;div&gt;&lt;ul&gt;&lt;li&gt;&lt;span style=&quot;font-size: 14px;&quot;&gt;Star Schema&lt;/span&gt;&lt;/li&gt;&lt;li&gt;&lt;span style=&quot;font-size: 14px;&quot;&gt;Flat Table&lt;/span&gt;&lt;/li&gt;&lt;li&gt;&lt;span style=&quot;font-size: 14px;&quot;&gt;Aggregated Table&lt;/span&gt;&lt;/li&gt;&lt;/ul&gt;&lt;/div&gt;" style="text;html=1;align=left;verticalAlign=middle;resizable=0;points=[];autosize=1;strokeColor=none;fillColor=none;" parent="1" vertex="1">
          <mxGeometry x="790" y="611" width="170" height="100" as="geometry" />
        </mxCell>
        <mxCell id="rQswdgw3q1JFmHaOcL7g-30" value="" style="shape=flexArrow;endArrow=classic;html=1;rounded=0;fillColor=#dae8fc;strokeColor=#6c8ebf;exitX=0.81;exitY=0.429;exitDx=0;exitDy=0;exitPerimeter=0;" parent="1" edge="1">
          <mxGeometry width="50" height="50" relative="1" as="geometry">
            <mxPoint x="229.99999999999991" y="420.27" as="sourcePoint" />
            <mxPoint x="289.9" y="420" as="targetPoint" />
          </mxGeometry>
        </mxCell>
        <mxCell id="rQswdgw3q1JFmHaOcL7g-31" value="" style="shape=flexArrow;endArrow=classic;html=1;rounded=0;fillColor=#dae8fc;strokeColor=#6c8ebf;exitX=0.81;exitY=0.429;exitDx=0;exitDy=0;exitPerimeter=0;" parent="1" edge="1">
          <mxGeometry width="50" height="50" relative="1" as="geometry">
            <mxPoint x="500.1" y="421.27" as="sourcePoint" />
            <mxPoint x="540" y="421" as="targetPoint" />
          </mxGeometry>
        </mxCell>
        <mxCell id="rQswdgw3q1JFmHaOcL7g-33" value="" style="shape=flexArrow;endArrow=classic;html=1;rounded=0;fillColor=#dae8fc;strokeColor=#6c8ebf;exitX=0.81;exitY=0.429;exitDx=0;exitDy=0;exitPerimeter=0;" parent="1" edge="1">
          <mxGeometry width="50" height="50" relative="1" as="geometry">
            <mxPoint x="740.1" y="420.27" as="sourcePoint" />
            <mxPoint x="780" y="420" as="targetPoint" />
          </mxGeometry>
        </mxCell>
        <mxCell id="rQswdgw3q1JFmHaOcL7g-34" value="" style="shape=flexArrow;endArrow=classic;html=1;rounded=0;fillColor=#dae8fc;strokeColor=#6c8ebf;" parent="1" edge="1">
          <mxGeometry width="50" height="50" relative="1" as="geometry">
            <mxPoint x="996" y="420.3" as="sourcePoint" />
            <mxPoint x="1080" y="420" as="targetPoint" />
          </mxGeometry>
        </mxCell>
        <mxCell id="rQswdgw3q1JFmHaOcL7g-35" value="" style="image;aspect=fixed;html=1;points=[];align=center;fontSize=12;image=img/lib/azure2/power_platform/PowerBI.svg;" parent="1" vertex="1">
          <mxGeometry x="1112.75" y="240" width="51" height="68" as="geometry" />
        </mxCell>
        <mxCell id="rQswdgw3q1JFmHaOcL7g-36" value="" style="verticalLabelPosition=bottom;sketch=0;aspect=fixed;html=1;verticalAlign=top;strokeColor=none;align=center;outlineConnect=0;shape=mxgraph.citrix.reporting;" parent="1" vertex="1">
          <mxGeometry x="1192.75" y="240" width="61.5" height="69" as="geometry" />
        </mxCell>
        <mxCell id="rQswdgw3q1JFmHaOcL7g-37" value="&lt;b&gt;&lt;font style=&quot;font-size: 14px;&quot;&gt;BI &amp;amp; Reporting&lt;/font&gt;&lt;/b&gt;" style="text;html=1;align=center;verticalAlign=middle;resizable=0;points=[];autosize=1;strokeColor=none;fillColor=none;" parent="1" vertex="1">
          <mxGeometry x="1127.75" y="321" width="120" height="30" as="geometry" />
        </mxCell>
        <mxCell id="rQswdgw3q1JFmHaOcL7g-38" value="" style="sketch=0;html=1;aspect=fixed;strokeColor=none;shadow=0;fillColor=#3B8DF1;verticalAlign=top;labelPosition=center;verticalLabelPosition=bottom;shape=mxgraph.gcp2.big_query" parent="1" vertex="1">
          <mxGeometry x="1148.37" y="411" width="73.26" height="74" as="geometry" />
        </mxCell>
        <mxCell id="rQswdgw3q1JFmHaOcL7g-39" value="&lt;b&gt;&lt;font style=&quot;font-size: 14px;&quot;&gt;Ad-Hoc&lt;/font&gt;&lt;/b&gt;&lt;div&gt;&lt;b&gt;&lt;font style=&quot;font-size: 14px;&quot;&gt;SQL Queries&lt;/font&gt;&lt;/b&gt;&lt;/div&gt;" style="text;html=1;align=center;verticalAlign=middle;resizable=0;points=[];autosize=1;strokeColor=none;fillColor=none;" parent="1" vertex="1">
          <mxGeometry x="1130" y="492" width="110" height="50" as="geometry" />
        </mxCell>
        <mxCell id="rQswdgw3q1JFmHaOcL7g-40" value="&lt;span style=&quot;font-size: 14px;&quot;&gt;&lt;b&gt;Machine Learning&lt;/b&gt;&lt;/span&gt;" style="text;html=1;align=center;verticalAlign=middle;resizable=0;points=[];autosize=1;strokeColor=none;fillColor=none;" parent="1" vertex="1">
          <mxGeometry x="1115" y="668" width="140" height="30" as="geometry" />
        </mxCell>
        <mxCell id="rQswdgw3q1JFmHaOcL7g-41" value="" style="image;sketch=0;aspect=fixed;html=1;points=[];align=center;fontSize=12;image=img/lib/mscae/Cognitive_Services.svg;" parent="1" vertex="1">
          <mxGeometry x="1142.66" y="604.5" width="81.67" height="49" as="geometry" />
        </mxCell>
        <mxCell id="Ue-omXQS7CLfrASGAL8i-6" value="&lt;b&gt;&lt;font style=&quot;font-size: 16px;&quot;&gt;Consumer&lt;/font&gt;&lt;/b&gt;" style="text;html=1;align=center;verticalAlign=middle;resizable=0;points=[];autosize=1;strokeColor=none;fillColor=default;" parent="1" vertex="1">
          <mxGeometry x="1130" y="130" width="100" height="30" as="geometry" />
        </mxCell>
        <mxCell id="tltbxlsDR6JqNSdJ9Jkg-1" value="" style="shape=image;verticalLabelPosition=bottom;labelBackgroundColor=default;verticalAlign=top;aspect=fixed;imageAspect=0;image=data:image/png,iVBORw0KGgoAAAANSUhEUgAAAgAAAAIACAYAAAD0eNT6AAAQAElEQVR4AexdCXxVxdU/Z97Lwo7KmrywJSEJoiQB9xUVgQDu4lK3uoDdXForqO0nVmultlZtXcClirUq1BUJICi17gpJUCAJSdjyEsCNVQjJe3e+/wSCSXjJm/u2vJdMfnNz7505c+bMf+6bc+bM3LmCzJ9BwCBgEDAIGAQMAh0OAWMAdLgmNxU2CBgEDAIGAYMAkTEAzFNgEDAIGAQMAgaBDoiAMQA6YKObKhsEDAIGAYNAx0ZA1d4YAAoFcxgEDAIGAYOAQaCDIWAMgA7W4Ka6BgGDgEHAINDREdhff2MA7MfB/DcIGAQMAgYBg0CHQsAYAB2quU1lDQIGAYOAQaCjI9BQf2MANCBhzgYBg4BBwCBgEOhACBgDoAM1tqmqQcAgYBAwCHR0BH6svzEAfsTCXBkEDAIGAYOAQaDDIGAMgA7T1KaiBgGDgEHAINDREWhcf2MANEbDXBsEDAIGAYOAQaCDIGAMgA7S0KaaBgGDgEHAINDREWhaf2MANMXD3BkEDAIGAYOAQaBDIGAMgA7RzKaSBgGDgEHAINDREWhef2MANEfE3BsEDAIGAYOAQaADIGAMgA7QyKaKBgGDgEHAINDRETi0/sYAOBQTE2MQMAgYBAwCBoF2j4AxANp9E5sKGgQMAgYBg0BHR8BX/Y0B4AsVE2cQMAgYBAwCBoF2joAxANp5A5vqGQQMAgYBg0BHR8B3/Y0B4BsXE2sQMAgYBAwCBoF2jYAxANp185rKGQQMAgYBg0BHR6Cl+hsDoCVkTLxBwCBgEDAIGATaMQLGAGjHjWuqZhAwCBgEDAIdHYGW628MgJaxMSkGAYOAQcAgYBBotwgYA6DdNq2pmEHAIGAQMAh0dARaq78xAFpDx6QZBAwCBgGDgEGgnSJgDIB22rCmWgYBg4BBwCDQ0RFovf7GAGgdH5NqEDAIGAQMAgaBdomAMQDaZbOaSrU3BD6urOzU3upk6mMQMAiEFwF/3I0B4A8hk24QiDACyysqehSVVpxcWFJxc1FJ+ZzC4vLVnX6ofT7CYpjiDAIGgXaOgDEA2nkDm+pFNwKrVq3qWlBcdhqU/G1Q+HMLS8o2OOrkdinlB0TyYUl0JTENi+5aGOkMAgaB6EPAv0TGAPCPkaEwCIQMgcLi9YOKSsquwMj+iYKSsi/rHAnbmfm/UPIPQuFfTMQDyfwZBAwCBoEIIGAMgAiAbIromAjMldJRtLrsSIzup0DhzykorlhH7F0viV+QRDcy8VHE7OiY6JhaGwQMAuFEQIe3MQB0UDI0BgENBJYvr+4MRT+6oKT89zgWpZdUfC8dvIqYZkHhX8ksB2uwMSQGAYOAQSAiCBgDICIwm0LaIwLLli1zriguH1lUUjENo/wlosue76Ho32OiP+AYC8XfvT3W29TJIGAQiHYE9OQzBoAeTobKIEBK4ReWlJ9UVFL+u4Lisnd79nPtFEzLJckHoOzPYqaEMMIEmyKM3A1rg4BBoMMhIDpcjU2FDQI2EPhy7dohGN1PKSypmNujv+sbZP0Qo/x7mfkMYo7cu/mWjEPZJhgEDAIGAb8I6BIYA0AXKUPXIRDY/w5++fkY5T9RuKa83GuJCsIcvlqhz8Q92woE5rB6F9qqWqZcg4BBoA0REG1YtinaIBAVCNSv1C8pv72wuOJ9R538Vkp6DaP8G0lQalQICCEskt1wMsEgYBAwCPhBQD/ZGAD6WBnKdoKAmstXO+0VlJQ9UFRcVly/Up9oJrE8FVV04oi6wMYAiLo2MQIZBGIdAWMAxHoLGvm1EPjqq3V9C0vLrl9RUv56j/4D6nfaY+JpkjlTi0EbE0kW5o2CNm4DU7xBIBYQsCOjMQDsoGVoYwqBr8rLUwpKym9Srv06p7eaJD+FB/48jKa7RENFJP4ghweHRpDGANBAyZAYBAwC+gigP9QnNpQGgWhHoGDNuoGFJRU3FxSXfVhXJzcy0SPKtc/MUfCsyz3Q+R9BpkeJ5GRyUl+S9F/S+GNiYwBo4GRIDAIdGwF7tY+CTtGewIbaINAcgZUl6zIKS8rvwmh/BQtrA5Trw1D4J+Hg5rSRvJeS3MT0Es43WZJGbd/s7pGblX5ydmbazTmZ6fNy09O/kUzfacrkLCkpMQsBNcEyZAYBg4B/BIwB4B8jQxGFCBSUlCQVHhjpe6W3GCLeB22fi3Nbhs1EPA+j+qnslcNzs9JScjLSLsf57yOz0laMHj36EHc/E+saALTXiutH5s8gYBAwCLSAgN1oYwDYRczQtxkChevX9ywoKbsO7v13SToq23qkL4kqoeznQIlf5xBWak5mWlJOZurknKy02dlHpq/WAYpJahsAwsHGANAB1dAYBAwCWggYA0ALJkPUVgioL+qtKCkfh9H+XFnj3QJl+zRc+2fgiPizaxHtksTzlUvfy46s3My0AVD2V2dnpj579NCh6wLBCPy0DQB4OvoGUobJYxAwCHQEBOzXMeKdqH0RTY6OiIBawV9UUjEtrbSiHA/pQoz2L2amcO61fyjMUnoRuUKSnCkFj0nw1PTKzUw9R7n0R2UMLkFa0EGy9b02E8n9tWkNoUHAIGAQ8IOA8JNukg0CEUNg1apV8QXFFZcVlJQvUyv4oXgfYKJBFMk/Sd+Sxf+STJc56uJ752SmjcrNTJ+eOzR16fDhw2tDLYqw6GtdnsxkPAC6YBk6g0AHQyCQ6hoDIBDUTJ6QIrB8zYb+arRf60isYJb/htI/nfEX0kJaYyZpHcp8VI3yvT9sT8oZlnplbkbay0cfPXBba9lCkmaRW5cPk1kDoIuVoTMIGAT8I2AMAP8YGYowIbCypPyMgtLyVx3Cs6l+tM/kClNRzdnWEcslmH//udNJah4/Vb2ap0b5o0aNqmtOHM57T6LQNgC8UppFgOFsDMPbIBCzCAQmuDEAAsPN5AoQAbUPP5T+pXDzr7CI3mVJF4BVBPbfl3tIWq9Lllc5auP65mSkn52bmfrEUWlplSi/zcKo1NQdwGGXjgCCyRgAOkAZGoOAQUALAWMAaMFkiIJFYPny6s5FxeW/7NFvwFoo/ZeYKPzv7EvaSZjPZ8kXend36Z2TNfSC3Iz0FyLi2rcBmNCdBpA00AZbQ2oQMAh0EAQCraYxAAJFzuTTQmDVqlVdC0orpju67Nkomf6OOf7BWhkDJZJyLxH/Ryn97YmOvmo+Pzsr9bVRo5L2UJT+WYL1vBBMvcxugFHaiEYsg0AMImAMgBhstFgQWY34C0sqbq5zJKxnKf9EUF5hk1tKTI/Lj0jS1H1O6peTmXqxUvqjBw+uCVuZIWTMZGmvA9hnOY0XIITYG1YGgdhHIPAaGAMgcOxMTh8ILF++PA7z+zc5uv6wiUg+TMy9fJCFKmoFS/pVLXn65maln5yTlTb7+PT0naFiHik+Quq/CeAVckik5DLlGAQMAu0bAWMAtO/2jWjtioorJnLXnl9hfv8RIj6CwvAnWW6Vkh/CvPlROZlpo7Kz0v5xXFaW9m56YRApaJaSeL0uEyYR3ikUMn8GAYNALCEQjKzGAAgGPZO3HoGVa8qHryipWAzlPB8PVEZ9ZGj/eSyiNyTJc61dO1Jys1J/M2JY2qrQFtF23FCvUhulD7VBa0gNAgYBg0CLCKC/bjHNJBgEWkVg2fr1iYXFZTO8glYIkme3ShxQovRIaX1JXrqDhHVnTkba25F+Tz8gsW1mSrAStQ0AJm84DCybEhtyg4BBIDoQCE4KYwAEh1+HzV1UWnHyYTWeQszx3w2Xf3x4gGAnsziaHPSgsMSaopKKbUUla5cWllbcX1hafl5BSUlSeMqNLNcjj0z5niR9q1OqJJGlQ2doDAIGAYOAPwSMAeAPIZPeBIGPKys7FZZUPGZZ1v8kc2aTxHDfMHWHAjyTpLwDCvN1JmdVQXF5ZWHx2tdgHEwrKikfvbyioke4xQgLf2npflwo6dOysu5hkcEwNQgYBGIKgWCFNQZAsAh2oPwrS9ZldNpd8wmR/DnjLxqqzkwuYnE+5tEfkETviVprW+Ga8nIYKXPV/gNFxWVnLy8tDeebCCGBQQpeq8so0XJE1vDSFczQGQQMAjGFgDEAYqq52k7YgtLyq7xkLSfmEW0nhf+SGX8kKBVGysVq/wF4KRY7pOObwpKyjStKyl8vKK34P/W2QkGUTR8wsa4HgKRlDfOPhKEwCBgE2jcCwdfOGADBY9iuOUgpubCkfCZLep6JusZuZXkAHvbzYBTco95WUNMHRSVlmwtL1i4oLC3/I64nKw/HXCkdbVFHeDC0FwISUzaZP4OAQcAgECQC6BOD5GCyt1sEysrKEorWVryICt6Oo90FSdyPSOSRpDtx/YpFVklaacWewuLy1UUl5XOKSiqmrSwum1RQVtY73JV3kEPbAJBEUe2FCTdWhr9BwCBAFAoMRCiYGB7tDwG1h/8uLy8hSZe1v9q1XCMmiscIexiU7JUYlT9gMb/FXv4aXpBqGAZLikrKHynAdEjR6rIjQ+kt+H7zxgqScm/LkjVOkSMkPDONY8y1QcAgYBCwi4AxAOwi1gHo1Ur/fc7Et6AMTwm0ulBQ0KH8H5y/D5RHlOXrD8PgLFTqJjUdIh28Kq103Y6CNWWfrSgun11YWvaLguKy01avrjw8ELlHjx7tIeYinbxMfFhRyQbzTQAdsAyNQaBdIhCaShkDIDQ4thsuai//TrtqXsWDMTrQSklLfs5CHKc+ysOCrwuUT7TnY5JdUL9jBdMNJPkfzPzfWse+7wpKyr6HMfBhYWn5rMKSipvVngk6X/FjpuXadWaPmQbQBssQGgQMAr4QQD/vK9rEdVQEnF17/oUEjw+k/hgd78bo+MacrLQTcjJSv1A8cjLS3iC2nlfXdg54DsDOTo7ooVUjdGY+iSRNIZIPoy4f7JGOHQXFFevgKZgPA+EBGAY/KSory1HrLBokt0jfAJDEoxrymbNBwCDQsRAIVW2NARAqJNsBH7USXhLdFFhV5HK2ODc7K20WlB902Y9c4upqf4kI7UVuDTmhSK+TgsdgbvweYvk24mP2oz/ABEEOJskTUa9pMAz+Jb1csNtDPxQWl1cowwD11J5yEWSdADxMMAgYBAwCASNgDICAoWtfGb8qL0/xEj9tt1YY3VqYu/6Td/eOE3OGpZb5yj98+PDdUHpXwLio9ZXuKw7akqW0HrLYWp+TlT4jJyN9UnZGah9LWMNI0k/Jkk9YkgqRtw5H7AZmBzENof2GwfW6FfGSODaUixB1yzV0BgGDQFsjELryjQEQOixjmlOdhx7Ew9DNTiWg0HeT4Ilw99/p7yM9uZmpy5nod3b4E3MP9vC8ZevXJ6p8MAqskUOHFudkpT2XMyz95yOz0nK7OmQ30B0riX8GmqclUQHOsW0UoAL+gmqr1NL1R/qjM+kGAYOAQaAlBNCPtJRk4jsKAitL150C9/NkW/WV9A0U8hm5GWkLdfNhBP9XuPKX6NIrOsGU07PW+4i69nWkyoFAwwAAEABJREFUp6fvy8lI/QIGxpM5mWk35GamjYzz1HSVxMeQpKnENBvu9uWSSNv74KucaIxzSDMNEI3tYmQyCIQTgVDyNgZAKNGMUV7f3TdjDtfVYYCuVwEo0w0k+SSlePVy7KeCwWB5vXFXSym/3h+j+V/SlILSsis1qQlTDrW58DjAUzA7JyNtak5m+jHW7u1dhSVHMvF1TPQoeL0vSW7HOWaDFMYAiNnGM4IbBKIAAWMAREEjtKUIH95+1/H7/vf+oF0vaC/U/05IHtvSfL+/uowaNmizZFZGgOWPtkm6FE+ozXeaxNm4UVMUI4alF2Rnpj6bnZl2c05m2um5memHCfIMgZfgfGKeQdJ6XUpeb4Nt25J6xcltK4Ap3SBgEIgsAqEtzRgAocUz5rjt21J5H3m99MPcl6m2SK2pa7kKGLlLaO0rsrNS17ZM5T9lZGbaIhb8gH/KHynUO/cwHOapHQp/jA3+akRm5np4Cd6AN+OenKyhF+RmpQ7xxnFPjK5Pk5JuYuJnUMoKlrIG5+gKglILi9cPii6hjDQGAYNArCBgDIBYaakwySmrq/d/WAZGwPb7/kDeb79tuSSmfyrl3TKBfsr26sq7Qf0+Dv0gKKvWmfg0DBHWz2SfclRq6o7coUP/l5uV9vfszNTr4S0YtW2Lu5t6A4FJXiKJ7oMh9AZJWgdZcGu/jFDlkOw5M1S8DB+DgEEguhEItXTGAAg1ojHEb9mMGU7Ppk0Ht661tm+j7XfcTtaunb5qUedwkFLavtJsx40ePdrjrBOXIONmHNoBmv+SwrXrpmlnCBGhkle9gZCdmT43NzPt9yMz087PyUpLjffuS2SvHC6ZrpYkZ9L+/Qps1SkYEZnZGADBAGjyGgQ6MALGAOjAjZ9QU3OU3LMHOvVHEOrWr6Ptv7+L5L6mHm+LeNmI9HT3j5TBXx111JCtZAn76wEs64+FpRV5wUsQPAe14DD7yPTVuRlpc3Iz06fnZKRPgscgCcZNP7WJEbP8NQyDZ4nkchx7gi+xKQfwPgNeiCZt2JTC3BkEDALtA4HQ18IYAKHHNGY4WjV1/XwJW7vqK9r2f78jWffj6/SClQLzRR1cXM6wIUvwEN5nhwtGvUJK68Wi4oqhdvJFklYZN7lDU5dmZ6T/DYbBdTmZ6cdkZ6R1I2HlSKLKUMnCkvt+WVxh9gMIFaCGj0GgAyGAvrcD1dZUtQkCXm/tQfd/kwTc1K5YTjvuuweegH24w9hVUlOXQH1saP6tzUz7g5TyPTvcmLgn8rzxaVlZdzv52pJ25dq1/aXl+CcTpYRSDumQZ4eSn+FlEDAIRB8C4ZDIGADhQDVGeFocv7E1UWs++pC23XYLWdu3ExMf3RptMGmTmb115Jks7b6CJygr3stzY2FL3BUl6462pOMTJrl/0WUwgDXLKyWf0yzK3BoEDAIGAb8IGAPAL0TtmODwbsvJ4Wi1grXFxfTdTT8nj7vy/IKysmGtEgeReFxW1nfCaV1IUu61w4aJxqaVVsywkyfStAWl5eOFtD6ArCEd+R+sh5QnLy8t7XXw3lwYBAwC7QyB8FTHGADhwTUmuI6eMaNG9O5d609Yb3U1fX/zLxw1//3g3a++WtfXH32g6dnp6YXM4pe280t5V0FxxYW284U5A6YoRGFpxd1kybeJqTuF64/Z4bAcE8LF3vA1CBgE2icCxgBon+2qXStnckqFDrG1Ywft+MPd/b77x4PlKz5dcbxOnkBosjNTn2WiJ+3kZfVH1gsr1pSFTS478ijaz4qLj1hZUrEAHo0ZEC+g35lk+lTx0jusc/XoDJVBwCAQawiES96AOqZwCWP4Rh4BR1LSC9qlSkl7F8zv+v2dt3/00T8e/2u45t49u7ffJIk+0JZLETJ3EszzV6wuT1O3bXmsKC4fGUfxX0CBjwtYDuYZxJb+fgfMYz+urOwUcHkmo0HAINDhEDAGQIdr8qYV/vrbr//MXbp4m8a2fudZWyp2/fmBX/e+5qeb3/3FLwa2Tm0/Ve3bT+S5FDntbajD1Isc9LYafSNvxANc/lxUWnYrM33MLAcHIgB4WER8S05G6j3l6ekfkaRvSOuPOyf+UDNGi9QQGQQMAjGEQPhENQZA+LCNCc6T583zOpJTFtsVVloW1by7tPe+N9/8fJHLdXt+WlpI57hzMzOroQwvhCfA7xqFxrLjgc6Il443lq1fn9g4PtzXn69a3w/K/20p+SEmig+kPClpH5G4Iicz9RGVX70dQUxvqmudg5mV0aRDamgMAgYBgwChvzQodHQEnO8tPZfj4mx5ARowY6I+UNIzxd69GxempNy/oH//kHkEcrPSP2Em+4sChTi55z5rDgyIiDzfBcUVlzmdnjVEIuDdCSXJbeSwzs7NSn2pAVt1hjvgVXXWOix5Xizti6BVJ0NkEOjgCISz+hHpIMNZAcM7eARGw9/OPXrcHQwnydyTpLxDOBzrFrpci/NTUi6BVyAhGJ4qb05G2lMwAv6qru0d8uKVayv+bC+PPeqV5eV9CkrKX4a7/99MfJi93D9Sw4DaIIU8SX2A6MfY/Vdy9/Z3642D/bet/2fulOgVF7VOZFINAgYBg8B+BIwBsB+HDv//k6KiP1Fc3LoQAKGeqbNZypd5797N8Ao8tzg5eWIwxsCIoam3YyT8hl3ZpKTfQEHfZDefDn1hSdnFVh2tZiL1QSOdLL5pLOvDuDpxvPrQkC8CtR5CEL/tK81XHIyFq3zFmziDgEEgFhEIr8wivOwN91hBYAaRJfftU8oDA9IQSc0YFUt5tcU8n/bu3bowKelfMAguXeRytbgFsa+SmdlK8NRcaUkq9JXeWhwMkYeKSsvPb43GTtqXa9cOKSwte4eI5xJTkJvv8OPePTvPUN8NoFb+pOBXWklukiSlPLVgzbqQTcM0YW5uDAIGgXaFgDEA2lVzBleZvOrqj4j5P8Fx8Z0bSrwHCfETTBO8BAvja0wTfARj4HcwBo5dRuT0nevH2OHDh+92CO8kxFTj0A/MDsuilwrXrAtqhXxJSUm3wtKK+y0vrybJQfGCZ2IfsbwhJzP1F2qE768y26s2LWaSW/zRqXTgzCysK9S1OQwCBoHYRiDc0otwF2D4xxYCsq7uF5BY89UzUAYWHMh2IoyBe2EMfLbX5dqWn5S0KD8l5a5FKSmntDRdkJ2RUcUOOVES/4D82oGZEkh43ygoLjtNO9MBQoyoRUFp+VU15FgLee+QzEG+XSA3gufpORnpTx8owu9p9OjRHilFk8WBrWay6KcoQ7RKYxINAgaBDo+A6SQ6/CPQFIC8LVu+gdv8N01jw3uHefSuLMRYlHsfFNf/MF2wfVFS0vv5ycl/WDxgwJjFfft2aZCgfrtgQZdAGdt8a4E7M/FbGMUf08DL37mopHx0Yem6FSzpeRgdPj+d7I9H43S1jsFRG58zclj6p43jda4xDfC8Dl09jaDUL0vKzdbA9WCYfwaBWEUg/HIbAyD8GMdcCeOqqtTugNrvn4e6goxRthTiVJx/b1nWO964uO2YKvh0gcv1CIyCqzafNXq91+OZbrtcpu5SWotWFJePbC1v4ZqK9BUl5a9Lovfgeg/+633qA0csfzkyM+38o48euK21sltKy80YshJGz8qW0pvHW8RhWfzYvBxzbxAwCMQuAsYAiN22C6vkXiGUG3lDWAvRZM5ETijj4wTRTTAKnmfLWv31+DF3f3P1T9w7H/s77X1nMXk2biC1OZE/lkx8uCD5bkFx2QnNaVeWlAwuLC2fRUKuRlnnNU8P5F6S/Mpix/E5GemPBZK/SR4WzzW5b+UG5Z4Zzq83tlK0STIIGARCgEAkWIhIFGLKiD0EJm7atE0yXyqlrItG6Zmoq7eqyrXn9Vdpx5//RN9edw19ff4k+v62W2nX7Cdp73+XkXfTRiKvj5kC5h7EYoly8au6fVm/sr98lkVOzPPTFMTF4QgqADcLMj4a79k3amTmkC+DYtaQOUE8JzXXPzD+hJd/1ZDVnA0CBgGDQHMEjAHQHBFzfxCBCW73Z9Ajtx2MiPIL+cMPVFtUSD/MfZl23HcPfXPt1bQl72wYB1fT9ntn0O45z1HNJx+TZ/NmYpJd4CafX1i89jWPl8tI1it+v28jaEEg5UohHCdkZ6bdPHz48FqtPBpEOYMHb8cP9mUN0noSeAGu+qy4+Ij6G/PPIGAQiCEEIiMq+pPIFGRKiU0Exrvdj5KUj8em9JAaHgDPxo1U8/5/6w2A7b+/k7698jL6+sJzaftvb+2y84nHz69ZmC/qSktI7t2LDEEENdcv5T1x3n3HZmcM+TwITi1ndVg2phK4c5yIv6FlZibFIGAQ6MgIGAOgI7e+Zt13VVXdZBEt0CSPCTJrxw7aV1hAe177D+146EH67hc30tZJ4+nryRfS99Nuo51/+2t9Wu2K5WR9/53fOkmi/zKJ7Jys9BmhHPVTsz/1FgSiPsGhFVjK29QeBlrEhsggYBCICgQiJYQxACKFdAyXM5nIW+t0XgFlUhxINTAf/j0UJEIguSObRyl7pfT3LJhPOx//R70xoIwC5TH4/tc30c6HH6IfXp1H+5Rh8PVWzBzI7/Fvak5G6hnZWalrIyMt2/AC0BF7yWneCIhMw5hSDAIxhYAxAGKqudpO2PM3bNjOTucEaPGv7UrBzIcz0VuWZV1LzPPAY7ddHm1NrzwGtV9+SXvefot2PfEYbYOX4OvLL6GtZ57eZctZp01bmJLy1iKX64H85OQpi5KSzlo0cGD/cMns3b1tLpHcqMtfkrztyy83BvyxIt1yDJ1BwCAQCgQix8MYAJHDOuZLGrtx43qyrAtQkT047IZzHQ7H6Z9VVl4K7d+HLWuMZL4fxsAnODx2mUUNPXMCjJohMHAmoh7TYOzMkkIskV5vdb7L9e1Cl+sTGAfPLUpOvnNhcvLFC5KTs+cnJXUORn61fTBL/osuDybu6Y2rvVmX3tAZBAwCHQMBYwB0jHYOWS3V9wKEEOeRlPvsMsVUwFXHJCc/s8bt3jeuunppXmXlXXlu94md9u1To1O1c91fYGAshyKNXYOgEShMpFbgHw+sroax80cYCnMFc6FTiB9gHGyCcfDugpSUJxelpPxGfTERxsHQ5SNHar2CuC3RobYS3tyoOD+XfOvq1ZW2PsLkh6FJNggYBMKAQCRZikgWZspqHwiM3bRpCUa5lwaiqKEArzne5XpqBtHBZ2/0N9/sHu925+P47fjq6mMcdXU9gdRoKM47oTTn4zrc3yZAEZENTJSCEs8QUk6FYfQXi3k+sCn9euvWfTAOdsE42ADPwSv5KSk/U1MKC/r3Hwi8kQ25EEYPHlzDxI/gUi8wda917JumR2yoDAIGgY6AwMFOuCNU1tQxdAhg9P4GE/0UHC0ctgIU2bXHuVyzGxsBjRmM3br1BxgD/x1fVfWn8ZWV5+C6j4NoKEt5FYyCx1HuZzgH+c5e4xKj5xp1YxxdIV+uAZIAABAASURBVNFA1HEy6vw4jK0lwuHYgGmEH2AYrISB8B8YB/dvvfCcXbVfFu1S6xNA7zcA91tWrF2b5ZfQEBgEDAJthEBkizUGQGTxblelQTH/C67tX0KxINiu2nUwAh7VzXW2212mvlEAo+AX49zu43dVVXVjIYZj9Hw1LJBHifkjCPGDLr+YpGPuBLmPhoFwIYyDO6D4H/v+17d0U28ofH3eRPr2Z1P2b3j09Oz92yOXrSVrz4/LNZAv3mHR38HDBIOAQcAgQMYAMA9BUAjAE/AEFEugruVfqJFsIAJMJvKO27RpdV5V1ZwJbvfN8BScvNvt7oHR8pEwBi4Dzwdw5MMoqMS53Qdr927yQOHXb3j08r/3b48Mg+Drc/Lom8supm2//XX9K4y7//PqmR/e+ps/21lv0O7BMxU0CEQJApEWwxgAkUa8HZYHT8CD8AT8NqCqSXnHIpfr9oDyNsukjIK8TZvWwBh4GTLdgWNCnts9wCvE4TAETsdxU9ygQYudgwbv4s5BLcRvVnJ033q/+Wb/pkfqFcYnH6Nd8175bf16gy1b1GLEtQtcrrcXJif/FVMMN+YnJ5+xOClJrU+I7koZ6QwCBoGgETAGQNAQGgYKAXgC1GtpASlyuPAfgOJRH+FRrEJ+TNy0aRsMgfdx/P2sDz8cN+bDD7rvLC11xmVkZMBwGQsPxi0W8yy41d9H4e1uwSHq5DMwcxzqno5OYAK8Jr8GFk8g7l1LCPWGwg8wzArhoZkLw+A+HFcuSEkZtax3b7U+wSc/E2kQMAgEg0Dk8+K3H/lCTYntEwGMuB/EKPtuu7WDEoLe4ccXulxqjwG72QOin8zsPevdd9fCcHlnnNv9yITKyhvHV1Wdjjr0qXE6DxNCjFLrCyDbTCjHeShkDQ7YKvjfMUJntGU2jKKLYRjchWOOkPKLmoSEXTDWqmEMLEF7zYKRcHP9WwqDBvXrGLCYWhoE2g8CxgBoP20ZFTXBKPsPEOQeHHaDAwr3xfykpJPsZgw1/fkbNmwfu2nTCrW+AMbBdEwpTIZhcOSu7t07sRDDoRQnQzlOR7kvQOYVuG+XbySgfj4DrLX+MAbOQuIU4PCwFGKJ8Hg2Yxrhe3gMPlSGQb7LNQ1tOentAQOGgAZ2FKhNMAgYBFpEoC0SjAHQFqi38zKhLGegx1eGgK2aQrEkkhBvLkxKyrCVMULEk9esqVULD+EpmAdDZybqeRWMhFG9+/XrYUmZAaU4CXV4GOJ0mGkE1PXHwHwYjCFlwE1B+z8AY+kth2VVYPrgO2UY5KekPIHrG2EYnJSfltb9x4zmyiBgEGgLBIwB0Baod4AyMXK+m6X8o92qQnEcQcwL8vv16203b1vRj1qxou4H5koP86nwCPwKcsSM7JA1/OGAYYDn4UZMJTwBw+BDrqnZ0TCVsMDlegTXVy0aMODIuUSO8AtkSjAIRBsCbSOPMQDaBvcOUeq4qqrfYdL8QduVZU4lp/NNjBITbOdtgwyLk5JO7EJUgB+TehPCKDDNNmDm+qkE4HYTrp+XlrWqa3LyXkwhrMYxp2EaYYFZX6CJqCEzCNhDAL89exkMtUHADgJwlas9AmbbyaNomegEuXfvk+o6Wg/1UR81erWE+AA/pMxolTOW5IIhoL6FMAwyX4lnoH4aoX59gctVucjleh3TCHfhPA7Y9wKNCQaBdoFAW1UC/VZbFW3K7QgIoBOXn7ndP8Pc8Mt26yuYr0GH/zO7+SJBvyAlZZRDCDXqvwnlBf07wtTBDvB5Bod+kPJj4Fv/lgLyr8BRo5855ihdkug8TCPch/NCpxDfYNpAfXExf2Fy8qxFSUm/eLNPn75k/gwCBgFtBILuuLRLMoQdFoEZRNauHj2uhoJaYhsEy3oEyvZU2/nClAF1ERiB3iws6yMo36AXKwKTOog6Oz4+PmO823097u1glOOU8kH1lkJeVdWoPv36dfcKkcrqU8tSTsX0y6MW81IYX+tQBm7xvx0FeAv6ow3GE/MUKcQ/gOEWGAU733a5FmAKYUZ+UtKkpcnJR7SjKpuqtEsE2q5SxgBoO+w7VMlqBT116nQROuwiOxVHJx8HhTZ36eDBbT66Wzxw4ODjUlL+hxHow1A68Xbq4YsWGvk1J/ORUPxTz1q/fquiAe/bcSCoOz8HcycP83UNVGox4sRNm9aNq65eCoNgttoieUJl5ZjxVVWpoq6uuyVlDkbQl0jm3wHXOcj3KQyO73FuNwH16uYgykOF7mYh3qpl/gbGwGoYbbMXJSdfqdoQaSYYBAwCQMAYAADBhMggkFdevpMcDtU5b7RTIjr1vnV1dS+p0bedfKGkhRK5QHo8BRhNq9fcgmX9JQlxChT0heojR42ZTaiqKkJ9324c19o1jIjrW0tvSFNfWFS8x1VVzc2rrPzjuMrKq2F4nABD4Qh4DQ5XGx+hbk33NyDa1ZA/Vs8wOBFoGCyqG2D4zLG83nULk5I257tc83FMWzhgwMnLR45U6w5itYpG7hhHoC3FNwZAW6LfAcset3HjZrhr86Bsttms/uhjXS61yt5mtuDI1ZsIaqEfFMh/oEB6BseN1Kf57tnVvfsx4zdt+rAlXhipa78+Ce2WvjAl5ZiWeOnEw2uwTW18BE9Bk/0NYCB0d1rWQNR7LMq5BdMJs+CN+R94fosjdoMQ/VCfiTgeIMv64OstW76BhyAfHoI71XTTskGDEmO3ckZyg4A+AsYA0MfKUIYIAfXBHuFwXAKl6rHJ8j71yp3NPAGT56ekpNLevR/hR3ITlAVCwKxg78i3oEyzoFRn1E+HtMIKnoHPkPwxDq0AN/5PtAgDIBpTXb0JHoN3xh3YLhnTC6ehDr09ltUbBsFpqNiNaMdHwPodnDfhHHMBHpcekH08DJ0/Cinfr6mr2wGj6kMYBQ/gGTh7flJSx/lyVMy1XqwL3Lbyo29rWwFM6R0TAYw4lwhmtZ2uNgDQwE4v84tv9urVTTtTgIRQAGMx2v0CymFkgCz2Z5OyCjzOg6v9XKVM90dq/Gd+SoOqngRyXhLp6ZFJ1dXfTqis/B+8BrPy3O5bYBSMxXlgbU1Nd2I+FobBNWivmVCsajrD1pRPfaXa8h9zPOQ/CbJPYykXO5m/xxTQuzimw0MwKtJYtyUUpuz2jYAxANp3+0Z17TAP/VcoiWftCAllOighIWGmnTx2afOTk6dgVP02FNlhdvM2oWeeh8nlEajnm03iNW5Eba36AJHeHDxc2se7XKM02Iad5Nxvv901vrLyCxgGz8NrMB1GwSQYB4PUB5bQdqdilP1zeA5mQRDl4diJc/QHZrUh1RkQ9E/wEHyBqaivYSDOhXfg2mhYnAq5TIhRBNpabGMAtHULdPDyE5zOX0DZrrADAxTIjRiNnW4njw6tmvtdlJLyPBTVLBgmTp08vmgwcvwa8RdAEU4+q6rqO1zbDmrRniXlqzYyTrBBG3HS8zds2A5D6ANMJzwBz8GNMApOwpTIUeiA/gVhvDhiJuDZOAIegovhHXimrq5uC55F9ZbBA2pBofEOxEwzGkGBAH5/+G+CQaCNEBi9YUMNCXEJitceDaIDZovo2WW9e3dFvpCEBf37D6zxeD6GMXJVUAyZ53otS73a93pQfJDZIeWLOGkFaVnq7Qot2rYmgofFpRZWepjXoh2vgDwOHLEc1FsG09SCwuOSkqpgEDyNI2/usGFBvyoay6AY2f0h0PbpxgBo+zbo8BJgVFiB0dQNdoDAgzu4JjHR9hcHfZWBzvp04XB8gbQcHAEFjPp3w3i4GqP+S9T8eEBMmmXa2bOnWnGvNQ0ghRg5PykpqrfHVR94UgvrYMCtRfvdhCkW5VpvVusYv8V0DGqg9mZY0G3nzm356nXD5OSrQmmsgr8JBoGQIIDfYUj4GCYGgaAQUO+ng4HdrXBvVouykC/gAIX0SyhvtftewF/ww7x2AZT/yLyqKrW5TsCyNM9Y/7aAZS1tHu/rHkqVnQ7Hib7S2jpO7cYHI2sGO50VwHoaFH+ntpYpQuV3RrtMxJTS83sTEjYvTEl5BVNM5xrPQITQj/JiokE8YwBEQysYGeoR8FjWTfAEFNff6P0TQspHoFTQz+plaKBSeZRSwvnvyBzQfD/ySriwH6WEhBMnVFWtbeAdyjMLka/LD9hFlQHw+qBBPRckJ99bx7wedbgbR9jf3kAZKmyEkfELuORfRBtFxauJeMa6kpSTYSi+0XXHjs2LkpMfV6+0Qj4kKZHNYRCIPALGAIg85qbEFhCA63yPl/mnSLazKOzExS7XZcijHea6XJ2g/NUqe6WUtPM1IZRyGxTMuRPc7pvzysv3NUkL4U0d0UJddlAuodilULe4FunUznqY55+S4PGUCubfgTBSih9FEcEQysdUzOPjq6uvyHO7BzrVZkZEVyD+CWC0iohgt+F/GwVmPhxeo59ZQny0MDl5LZ7FGQsHDRrURuKYYtsEgego1BgA0dEORooDCEChfoaR0iMHbrVO6NT/vLhv3y46xGqeHNpoKYZdF+rQt0BT6HU4RuVVV89vIT1k0ZPc7iowc+PwGzCaHLWMKCBvhl/mmgSLkpLO+nrz5kIoOfUmRR/NbCElg3JVUzoHear9F2AIvIhppp9jmuao2pqanmxZY0Bwj8W8FM9PDa7bJACnNBR8N3k8FZjOWgKD4GJlQCHOBINA2BEQYS/BFGAQsImAR8rfQ5mVaWdjTpZxcbf7o397wIAhDiE+BF0wrvIXMFVx8sRNm9QX9sAq/IGJluuUAmWSWJOUlKpDG2qaRf375+a7XMukEEswbXFkSPlL+ZUuPzw3nhqnE3ZQyznUXgXjqquXjne7Z0yorBzTKS7uMGB3KjwEdyFXPnjsxjnSQU1nnYWpi7lfb9mycWFKyv3qeY20EKa8yCAQLaUYAyBaWsLIcRABNRWAG/VWgLarFqO438Lt7EI+nwFpxzss61Mo0wyfBP4ipdwHxTAFSuOqA/L5yxG6dCnVGwp6/IQIrfL1U+o7KSlJcGHPkg7H58A21HszfCot6xwYFdrfRoC4X6g9B3DWDqM3bKhRexTAQ3A/2ndCn759D1cGAZ6pe9Hmn+Cwu2W1dtm+CFF2f3jB7sDzWgZsF8MYOMfsL+ALKRMXLALGAAgWQZM/LAjAZfs+RkMvaDNn7gT6ab7oFyUnj0aacgsHutL/W7iV1Va32tvz+pIj0DjMFWt5AOr5Mw+rP4f5H6ZSOmPEP80rZQmKmoIjlO/y1yt+KOMT1DSLsKzzwV8rwAh5R4uwFSL1WWVlEGC64P/wHJ4YFx/fC+1/PpTy4zAKNrSSNdRJqn8+G+W+eYzLVZ6fknIbvALB7U4ZagkNvwAQiJ4s6gGLHmmMJAaBRgjEOZ1KoetvECTlDfNdruRGLAgjqAswglsIxRDopkGFUEC5UATvN+Yb0eu6ukLt8iwrrB4ANRKFIrrWwVwGTB+AXN1whCSgnT6BoTauQfErpssGDUqE8tX31uUEAAAQAElEQVTe5AgeA2XoqawhO8asW7cjr7LyjfFVVb+AUTDYK0Qq6q6+jqjWD9SFrKBWGKGjHowpigcdXu9mPNNzYNSOaIXcJBkEtBDAc6VFZ4gMAhFH4Kz167ei09Pf9585AQ/0wbUAi1yuy6FUXoFSCXTDmf+IurpTxlZXV0a88o0KzNuy5Rvcam0IhDmTIaANS8hPSjrpeJdrBdrkGbipk0JVCNroE7TROBhZJ46vrFzcmG9tXd1ZuNc1Mr7ZXV39KejDGtT6j3H7v444Jp6oP4yBn0D+eajHD2EtWDHHM47TlTCKimAILIUXZjzKhQiINSEmEIgmIdFfRpM4RhaDQFMErE6d/gq3a3nT2JbvoJymKC8ARqk/Q8f4AnrGgFbFQ5E++pnbfYnak7/l0iKaomWE4AfdxAMSCglhSB2utu5lIf4HTLNDwVPxAMYlcG9Pxoj/pOaKX6WrA5Pv2m9roK3nTyay8wqpKiKoQ33rAcbAvyH/5E5OZy94IM4BwxfwzO7AOdzhTNQ5H4ZAKdroZvV6a7gLNPzbFwLoL9pXhUxt2hcC6h17dHJ36tYKI9PEOKKXYAg8jjyBPN9e8PjlBLf7Zri7oaPAJTqC1twzRoZ95xKFZD4eyp7zk5OvwrkUQN4EGHDC/+CDGwpyame3+yi41ecxEYo4lOkyIqdgnnhoiu8Y1N32Vxd9cwosVi0mVGsWYNBc1Skurt8BY+BfqFxYPQPALx1lPNxVyoqFycl3mHUCgbVfZHJFVykiusQx0hgEDkVgXFXVf6CJVx6a4jsGneEpvlP8xEq5D4bD5eMqKx/zQxnxZMi1UadQKANn94EDg37/Hu7+HIwqP4Yx9DzK7YUj+CDlNrTNdMxlDMVc+uzRRBjgt8x2X1KSeqtAt+w9Hq9Xa9vklksMXUojY+DK3US9lacDdX8bR6t1DkYCtFV/TEXcLyxrk/LYqDc0guFn8rZ/BIwB0P7bOOZrCKUmoQDvC2dF0DF/J6Q8A8YGBtDhLCkw3hazlgGguHstK+BpADV6xCjyMbj71auHxyt+QR9S7kUbzvQ6HKmY55852e3eq8PTcjgu1KGrp7GsxRF/PbO+YP//VH2VpwN1nwRDYDCetek4Sv3nDIwCWHdFx34TnoPyfJfr70uSkgYExsnkCjUC0cYPz0m0iWTkMQgcigA60FfReWpvCHMoh5Zj4F1Yz5Z10tjq6o9bpmrbFLjCv9aVwMls+1UxKCSG4r8ao8cSjCJ/jrJCMY1gWVI+B95DMU8+feKmTdvAVyvkp6UlkGVhSl+LnOD+f0OPsm2p4PlwwxCYiWmCLEgyGs/0yzjCs5U0cycYA7/0MJfBm/NMfkpKm2wShXqaEKUIGAMgShvGiNUUAXRk0uaGME0ZtHQn5bo45pPHV1eHbUTWUtF24mGk7NGl90qptS1yAz+4i4/CSPF9KP7ngHPQ0wf1fJk/gtfiuAlVVT9VSq8+zsY/3rv3HGY+XCeLlLKGOnWKCQOgoT7AWcII+C8M28tq1HoBKadKy1rdkB7SM3M8jLBrYVAVL3S55iwcNGhQSPkbZpoIRB+ZMQCir02MRC0g8Hll5TxMBRS3kBxYNPMQKEzVMS5dlJx8n9p1bengwX0DYxbGXF6vtgEAjLrqSKL2nIfin4apj+XoCAJbN3FoQWqB39XjKitPmVBZqb+BUTM+MB6ubhbV8i3zgrzycu39Ilpm1DYpaudCGEmz86qrhwshRkGK2fVGDS5CGWBQxYHflVRXVw5D4As87xNwb0IHRgC/+w5ce1P1mEJgBpGFkYytDwVpVrA76M6EG/kuuGPfrKur25KfnLweLvGXcNyqPts6d9iweNC0WUDnrW0AoA5+PQCo1wnfbN1ahJHoAxj5h6Jue8BrZuK+fVlQZnNwjaYKDC5lgCH/WN3c6MRe0qWNdrqxmzatgGdganx8/CC045041MegQis2s5reGYXn/W0852VvDRli1giEFmGf3KIxEr+daBTLyGQQ8I1AYm3tixgdhf0dayjcQcR8KY6HLCE+6rZz5zaMmpZiHvWu/KSkk9To2beEYYvVNwCEaNEAUFv4Yj5YKf0PIGnQ2wZDy0tgNM/yeoepef7R33yzG3yDCrUez5UwAJyaTHZi6J+vSRszZGoTLEwP/Kl3v36DYQSotRBh2eAIz3mas7a2As/1nWYfgZh5PEImqDEAQgalYRQJBJSCgYt7TiTKalZGZ9yfibLvYyE+/Hrr1m0wBBbBKJiOOfTj1DvrSA9bsIi0Vs7XC2BZPnc+xPTGWAfzakmktlhWo8B68iD+FUI5qd37Jk/YvFn7LQW/5VnW1X5pDhBAgb2hVtkfuG13J/VdAhgC8+AVOIGEOEUZW6hkSDc7UsYWnus/diPaqKaE6hdgohATQolAdPIyBkB0touRqhUEMGf/BJQYQitEYU5Cp9kFhoByU/8JP6JPa1yu72EMLIBr/dYFyclDQ108Oxy12jyZPY1pMeI/HMr/OSjrRVCYgxqnBXJ9wANz8y63+xi4+0M6Ml08YMBIyDhcVy4YRi/q0sYq3eKBAwdjhK4W8U0hyzoR9QiF8QY2h4TeeK4f4L171+B5uRQ/MNweQmMi2hEC6LvaUW1MVToEAhM3by5Gz/TfKKssBlCUhxHaQ4K5FIZA+cKkpEfRkY5VH7QJVlb0+J10eUBBH/xADeZ4L6pfXS6l9qi6tXLA69/C6czCiPRR+KVDOhJV5VqW9VN11jmgoDZ9XlkZNZv/6MisQ4M2cy1KTr4S52dxrMf0yjqM0J9B3ivxfAW8xwPy6wXmITAWX4IM/4OXK0cvk6FqDYFoTTMGQLS2jJGrVQQk86xWCdo6kTmVhPgVOtJFNR7PdzAE3kKHemOgm7JAqaspCK1aCSHqFgwa1A8GyGsYTc+DHP20MrZChJF2CZTQGXnV1T8Zt3Hj5lZIA056s1cvZURdqcsAnddzamGoLn200s1PSuqF5+NSeGpmwwW/Fm1Wied7Ds4/xRG0xybgejOfDC/Xcni25qiFmQHzMRmjFgH8hqJWNiOYQaBFBLxe73yMAINecNZiAaFN6AxDYBI69Sc8QmzEqO4rdPQz1dsFUGB6v0Eb7/Z7PZ6jhMfzFRT/+UFXQ0q19uAeTkzMHldVtSxofq0wiEtMvAbJ6o0MnFoPaHtpMbfFWpDWBdNIVW2+ICVl1KKUlN9DuX7iFGILno+XUKcb4NlK12ARSRL1fF7pqa0twTM7ra3fholkxUNXVvRyUo0bvdIZyQwCLSCgtn3FiPTtFpKjOhqjuuHo6G9Xbxccl5xcv287lMEpSjG0IniLK/ub5xEOx1TE6e6hD9IWgmUtori4YXD3z8grLw/PbnUHiobyYyHlzw7c+j0Bv/fyKisr/BJGCYHaYhnz+JdgpP/cscnJ1ajrF/Dq/AHiHY8DMzz4H8UBxmtPYP5At507v4LRkhfFohrRbCBgDAAbYBnSKEOAea4NiZS3YBlGWtrb0drgHTgpczJ+hDdBGfwPisGNzvUfOE5HxZooBcuGByBwYQ7kVB/tkXLq+Orq8eM3bNhwIDasp3cGDDgLSkZtj6tXDrOaE9ejbQMqZdAsSE7OXpicfAeODxyW9Q0M1pfx/F0NAzD6NprSx0gtcF2A6YrXYdQM0c/WcSmjueboe6JZPCObQaBlBBKdzoVQnLp7AnTFfOavxldVHW55vYOI+VxwnoG57QU4f4OjzQMUQ38I8Qscy7omJ1ctSk5+HNMFZ9QbA6282w/6UIYXPFLWf60vlEz98ZKWpb4/4I+sIf3bRIfj9YabaDmr1+fQZhMWJiU9BaXvFsyFeM7ux3EyZGxi0OE+pgMMnPOE17sahsA9qt4xXZkOLLwxADpw48d61Udv2FADpTlftx7S6z1b0ap31sdXVr4F1/Y9E9zuiTj38QqRio76Mhx/A83HGKnpv3aHDKEOqFdfjIh/hvO73VyuzTB0lFs/1MUc5Af+G1D3ccDiKkyvfHswIQIXamEkFMok3aLgin5Gtb0ufTjplvXu3RXK/mIcL3FNzddos7dJiOvRbknhLDcaeKOOiWi3/6O9e1cpr1U0yBR9MkS3RMYAiO72MdL5QQCd0H/8kPyYLGW9AfBjxI9XEzdtWgej4GUcv4YSPKl3v35dhRCj0MFNx/E2DIK2nDrojR/qiB+lDekVnCA0u1Nt7VGo++KQctZkBuNLjf51R8gWOxxt+gYIXN+HQeFfDKU3Z29CwmYYTnNxXIrqai1gBF27CvgNpuE38h7wmHXgTY52Vb/2XBn0K+25eqZu7R2BfXv3vofR68H33lutL/Nputudqh3Y1L7s6tOtOCbtqqrqrQwCdHa3YQS6EB3eD62WFQOJmJMuhvY/EQbPVLXDYluIPD8pqTOwvE63bNDmj924cb0ufajoFg0c2D8/JeVnC1JSlgjL+hoKfy54qy2LtT68BNpwBjdZltoieyp+C6u0C5KyTuUDPR4D/A8i4DeBQFPiExO/wrTAuCBYtaus0V4ZYwBEewsZ+VpF4Nxvv92FnuezVokaEpk7dZNS7aTWEKN9VpveKINgXGXlX8e53Xl9+vY9DMbAqWBwD7wDH6Lj1TNCkCEKggUZZtdJOQpTIHrYIUM4ghPucvDVfmMBHdZjoI9IUEofyuxmjGw/wvSRGwbT40LKs/C86X6nIDxySllhSfkcnrtr4D1JhQGXMr66+gopRAmeyeHahQrxb5XP6/UOl5YVKu/PQEm0cGFKytz8fv16a8tiCNsEAfye2qRcU6hBIHQIMGvvBieZW5wGsCOQ8hDAGPgAne+M8VVVp8CFfjhGhedazLPQAW6ywyvCtGsxgj0Fck/FXL/+B4bCIOQyIicMp1u1WUPxfep2v6NNHwDh64MG9cRI/1oo/aVQ+pVoy4fBRhmNAue2Cmvx3D4Jw+MnHiIXnre0CVVVP8X5eTV11SAUBLy/4Vrj7HVI+UdFp3bWzKuuHgcj4BwYFetUXNCHlBdjqqY0Pzl5StC8YpZB9AuOZyb6hTQSGgRaQwAKbUlr6Y3ToHBOb3wfqmvlQscc+lsTKitvxJTBQDUyQ4d9CwyCpehU23RBoaojFBkCzRZ1dbljq6s/VnFtfdS4XJdixDpIVw4owUdmECnvhW4WLbplgwYl5iclTYLSn5Po8VRhpK9eMTwTmXXXJYA0dAENtRvH23hWp5LTORjGWkZeZeXP4Hn69yS3u8pXSertAzxnJ/lKayHu32e73WWN02AEzE+MizsS9b8L5avXZhsn279mVl6yWfCivI6pHm0vj/2CTI5AETAGQKDImXxRg0B8dfXn6Cy1XgfEAz8iEruZqZEZOuxHYBCMkZ069UbnPBma6yVdOUMJLjpzj2D+J0ZkM8Zu3Ro1axdgIP1Gu55Sbuu0b98/ten9EC4jcua7XOOV0q/xeL5mId5CFrUNsfaWy6APScAzUYdn4wN4kH4PTI7b7Xb3hBE5Ka+qarbOVyku4wAAEABJREFUPgwwigTy3mdDGC/m/utH/83zjN6woWZcVdX9TuYMpL2AZwcBV0EEMDjPwfwlPCsh8b4FIUpEs8ZCYSIWhDQyGgRaQ2A0ETyj9H5rNAfTmBO6b9umP096MGPgF3nl5Tvhrp2H+fbLd/fo0YeYx8EzMAsd/+bAuernhFJxoqxrLY9nIxTevIXJyWeiU0a0Po9QU6oRK2TI1uaLqRXlZdGmb4EQdT8Bx2PwPlQDgHyQKaWvvkGAy8gFtMcGlPYYnoVz6/btOwLPxqnwIN0Ho/Fztd4EadrhuJSUq2xhaVkvY+6/tLUCzq6srIbn4SrBfBro1uAIKjBzfxjBi/D8zYI3IOJGVlDCt+PMxgBox43bkaomhPifbn2lEMfo0oaabvKaNbXo6BfDM3Dj51VVLnSKan75L+jAw75uAJ1wHOpzEZTOUrhlV+G4Xrm/ERfx4GWeplsolGUdpnke16VvTndgMd/tC1yuYtT9Yxw/B02kF6h5UebHaO87Mdo/GqN75dr/JZ6Ft9RCVqQFFBb37dsFc/c+R/MtMPSi09f2Fqh1Lr379s3G8zkd7VDTAk+taBhcCDQF8yqfwwAM12utWrKEnyg2SsCzEBuCGikNAq0hgM5pRWvpTdKkHNXkvo1u4Lq14Bn4BCOt3/bp2zetfmV35GQZhk79Kbi/N8EQeOCdlJSIbVyDEfgJ6HhO0a0qDJdXxlZXV+rSKzo1zVM/r5+SMld5PlDXmSgzU6VF8NiDcuvn8jH9koJ2Pgnt/SeM9r8KlQwep3M68NFuOxgLCssSO+WrBa95bvdMEiIkbwtguuVIGEGfYgpmGn4DaBY70hjaUCJgwA8lmoZXmyEgExMLUDj6Ffz3E6w29AD4Em2+y5X8zddfL4O7VX0NzxdJOON6Q0lN81pWuXLPLk5KCruSlMx36lYIskkorYd06dXIEorl4W47d1ZB0byFEffFUJDK86HLIig6yLsJxyNsWWN2de9+GBRn/Vx+OD6hjLZKwTPza22Bpax1CgGdq52jCWFeZWVFXnW1esf/StTx6yaJNm/QJolwBzxwXFLSgvb4qWGbcLQZuWizkk3BBoEQIqDm2cGuHIffgId+eLTMQ0Lpnu60rOVQVHZWcPuto20C5k7IMwXG0Woo0PlQpKNxH/KweMCAkWA6AYdWQFstgtIpbI0YHozDIfOv8lNSVsC4KIJiuRn0kVt1LmUFFOKfUe5xGOUPgtK/ZVx19VI13QM5whZQ1wfBXHs+HfRPNF/5j/y2A+r4LzwnylCcbTtz8wxCjKurq/sKXiH11kXzVHMfZgTw+wpzCYa9QSBCCGCkuFyzKIeTuU3nIKEwGEprGuRdCtdqP5yjJQgosolQFu/lJycvh1I9T8kaKuHQRveCP4ImR+Y/tUS5ICXlVMzr/1tKqRb0PcpS5rZEG+p4lFWMKZv7cOTArZ8GpT9NLeBDxQBXqEs7lB+MnnFoo0sOTWkhRspt6Oz/0EKq7eiJmzZtgyEwFYbrZGQO9mNavVGXRer3APAAITjGdIgd4fFMxI6wRlKDQGsIYJ51RWvpjdPggjyy8X0kr+F96LUoKSkfPd0DKNeBIyoDMBoJRfc6lE0RRmgXw3ccVH8BHieggx+vW1nQfqIWoTWmXzJkSA8oil/Bc7JaSPk+BFIfcEpoTBPG6y+Byf9JIY4cV1U1bEJV1e9xFIWxPJ+s1XbWMHoe85nYUqQQ6g2D71tKDjQexs886fGo35L+Nzl8FIbfghPHA3jWXl+CNvZBYqLCgAB+P2HgalgaBNoAAXSK2gYAxEvDEfGAUesoB/MXGPWrudSIlx9ggUcT89zjXK6v4BW4Sr1DHwgfKPR7bOa7t4FeTR1A6c+qq62tgqJ4FPHDcIQ9QOZNFtGj8FzkYsQ7AgbJvXmbNgX9Wlwwgndj/j3aY4g2DynXyYQEewaDNnOivC1bvgE2F2MUrz6IFOyXJM/17tv3yeIIrEWxUUVbpLFEbAyAWGotI2urCFhCfNkqQaNEL1F6o9uIXEJ53sKW9TFGkdq73+kKBkUlWa3SJlJfLwzXK4XDIPvzNcnJpajLFDuGwMIBA05G3jG69YGSL+pJ9F94DS6G0bTEUuskiKYgvosuj0DpgOV3yDsbRtopUGyDJrjdN/tbhwD6iIRFAwYcKS3rNjuFAffb88rL99nJEwhtXmXlK6Ku7ki00cJA8jfkgSGR5RXiC0w/6U9xNGQ2Z1sIGAPAFlyGOJoRUPOS8AJouTnx4EfMAwCXf2c1V42O+G84wrIiHUqrdNymTasxFz1TvVIIHC5GW72LeARchTIwD0E9ZsEQKFmUkvJTLUPAsvRH/1ISDLSqnZjbx0h3Llz9Z4VSfJ+8MEeO+GdIyrN2u919ofinjt+06UMos9Djh4ICCRCEpdf7JLDXf4aYPxrrdr8WSHmB5Bm7devXn7rdE5H3dpIy4C2wgXtX5H8JXp8H5xJF7TQZ6tksxNYt+sHYEthIaxBoDQEmqmgtvVFamupQG92H5fLtAQOGCCE+xg/tsrAUcIApesiPD1xS/XvbVVX/gRI7Cx6HLCjRv2Euf3tDesjOzKkwNJ7d63KtQkd9QUt8MWevdpM7o6X0Q+KZCXhNwEgQTgAK2x9kr8Pz8gbKOV926tQfeF2POe13JxPB/ghbsQEzXuxyXYe2PFmXAZ5vD9r/F6gjLnVzBU83g8gClg+ibLXmo9UdB1srDXIj0G3dkpLezk9L694arUkLDAH8zgLLaHIZBKIRAYtZ61VAyN75bZdLewMV0NsOUIqnOyzrU/zIwv7GAXr4gwZAY0HVlq/jKyt/nVBbmwKFNxWGQHHj9FBco5dW+8a/uiA5+TNV5+Y8mdnOTnXNs4fjfg3wmu7weFzj3O7z4bp+IxIu8mAqAi9SL8jc4hsRvngD97+Pq6pa6SstEnHjNm8ucNTVjURZ6uNKOAUYhBgnamrex7STK0AOEcsWawWhb4o1kY28BoFWEJBS1wNAzjCtA0BH/eMrfkQBbzkLPtojUa/X69MAaEBK7aOfV1U1+9OqquEYmY0B77dxIDRQBH8WzMeCyzI1Z78oObne6IFBcAFcuW27xwGEggzbcJoNb8wojE6PVFMlyl2NuJgITiH+BkH19zawrC3OuLh7kKdNAzD+AXhfjwftChwBf4gKedV3Iz7HsxUVu3i2KaghLNwYACEE07BqewTQwWsbABi5hnwdwLLevbsucrnmgndQr/hZUr4PHvDsa2H6zfLNm7Vcrco9qzapgQKcRJalRmcvwDNQp1WKJpGas5fMK4DDM9KyFA6aOUNLpuoFDN/ASPi83v361c/rj920yc6bIqEVKEBuMKbUxklX2MkuHY5bxqxbp/WFTDt8A6XF8/YivGGj8DysDpQH2rE/PFj/zU9JOS9QHuHNF3vcjQEQe21mJG4NAf0pAIKS0n+VqrUyD6S943Kl742L+xS3F+EINHgxWr0TP8w3tRlY1jtKsWvTHyBUK9sxOrsKnXI6jIG/I3oPjlAFB0Zt17IQEX/bAvhVoOzp8fHxKcrFP66y8k21LiJUFYskn/lJSb1gyDxtp0zQL8mrrHzFTp5I0I6tri6pq609gZjnBVoeDLouMAJehRFg602IQMtr7/nQz7T3Kpr6dSQELCF01wAQFEWfUGGzeMCAMV4pP4PCU5uiBMr2G3gwxo+vqvoTZDtbl4kUIqjXriZs3rxxfHX1TaKubjCMovvRwYZ+waBuZQKlk7IWimWumt7AvHc6Rpwzz1q/fmug7KIlH1z/T5AQ/bTlkXIfjJ9fatNHmPDcb7/dNb6ycjIU+S0wVAL1PAk8ow8uTEl5CHUFqwhXooXiYjHaGACx2GpG5hYRyNuwYSs6BU+LBI0S0AEFPD/fiA3lJydPwRz8AiigwxrH27m2iD5wMGfDRb3k9UGDeoKX7qp5y2tZi+2U1RIt5mu/xsjxLqtTp4GguQP4RL0CRVuXQQNMEx5PChTLJWp6A/eIRg1iPCx0uZTb35Y3CQboHydUVa2N9qrDM/MIjNzRQT1jUt6KaaY5y0eO1H8tMtqBibB8xgCIMOCmuPAiUN/5S6k2cvFfEHNQBsAyIufCpKRHMTc5C0dAnRA0lYTyf7Rv375nnl1ZWa2E7lRXNwkGQLy69negvl9Mqq4Odve1JsXklZfvxNTAA14ph8Aj8FskBrvXO1iELkBp1GEE+ArOZ0LODCiTPyvjJXQltD2nxUlJKaijmpbRFgbPQlGvPn3abM2FtqAHCDEF9REuR6Edg1mXccXXW7e+prZHBq82DLFZtIhNsY3UBoFWEJBSSyGigw14CmBpcvIRe12uJXDP/qoVSVpNQvnbYTicp3aaazxHDZe+2sSn1bwNiTAe8huuQ32GYbEHHoG/qKkBKJdbYKx8HeoybPGzrC2QY6ZDylS4+S/Nq6p6D/cQyxaXqCdGhRjtOhvGV09dYZHHg9H/9Y2fI928bUmHNnQ7PJ7TIP+rgcqBZ2Bid8taZL4hYB9BYwDYx8zkiHYEhNAbsQboAVDbsWLy8nN0PKcHCgU6+JUeh2Mk3NZvNebxZq9e3aRl6W+ZyxzU/H/jslu6xuj6B4yyH+m0b18qOurpynBpiTYc8WqEiOPq3v37D4Ac08dWV1eGo5xo4bnY5boJhqWtb0WgI78f00fBjKTbrPrq+YIn52L8nv6A5wvBvigwmk+tq6t7b3HfvgEb9fZL/TFHrF7huYlV0Y3cBgHfCKAj0fIAIHf3/LQ0W1+Sw7xsHhT0x3DRD0H+QMN/nHV1J03ctGldcwZxiYnnwCuQ2Dy+hXv3Z5WVEev06/cScLtnorP9OeZva1uQKVTRe8iynrakzMEocRSOObE2ug0ECLj+M2Hs2NrwB/SrdnbvHm2bLdmqPn6zEsbd3TAuL0F9amxlPkCMvLmeuLj3FwwapL9o8kDejnoyBkBHbfl2XG90BHoeAGDgranR3lwFyv86DE/U63kBbUuKvBId3czP3O5L1KgHxR8aLOvKQyNbjHk5kNf/WuTWSgJk58XJyRPVbn9Q/v8mZq01Cq2wbDEJCuAtrxCu8dXVN0yoqipqkbCdJcwdNizeYp4DbDvpVg3t4oFB9tPJa9aE2yDTFSkouvFVVfOglPLwGw7oTRTkzSSPZ1lkjYCgqtymmYFXm5ZvCjcIhBwBuNd1PQAkpOztTwB0sgzlD11LT0OBO/3R+0oHj93IeyFGOdPBCCIeSoXRXwrmcbU/fMNe70uHcgltDORWdT9/kcu1Asppvti/219oC2nOjXkS5oX/DO9MQIZWc3axct9tx44/QfkfY0deeIsenFBZudxOnminHVdVtYwcDvXNg42ByAqlZowATeCAlSalITMIxAgC6BS1DQCHlK16AKCEEhYmJf0LVb8bR2BBygoH8wmY53y9NQaWw3E10rV2/4MFUaL2Wgd9WAKMFJGflDRpYUqKUi7qa3I5YSnIB1MYSkxCXE979yfe3PUAABAASURBVJag/HOoA/zBwMyTzLfarGrhrm7d0FQ2c8UAufqyJX4zJ+I5D+hbBlBsmaKu7p38fv38GvjBwhHL+YFTLItvZDcIHIoA3Idq3/dDE3zEoINp0d2KUe/hYs+edzAqv9xHVq0otqz/Sa/3hLGVlatay6BG2tKylAHQGtnBNPxwXz54E8KLuUQOKKMrjk9OXoV6vwUsc0PI3hYrZu6P6YA3IM/T7XmFt/L8oP3nMBEC6f1Judfr9f6kvbj+fVVavRZb63SeTszqdUFfJK3HMR/FTudS9TtunbDjpqIf6biVNzVvtwjs062ZEMLnXHZ+Sopa8f4J5ldP1eXVnA4K7OGE6uoz87Zs8bsmAUruVNBrf5vAkjKk7n+l+POTk6/q6nKprwW+gNFoVvP6tMU9NCICXeeprV25KCXllLaQIZxlqr0k4Pl5CZU8wk45eFZun7h5s2orO9lijvb8DRu2e7zes4FPoG+7HI1K56tvdOAchhDbLI0BENvtZ6T3gYAlhJ0FUYe8BYARw7Ek5cdgPRSH/SDlPijQ68ZVVt46mkhrV0KMtG/ULsiylk8I0W5v8B8LGDuXdHG5VkGpPI+ONvJ79+tVfCC8Acsg6x/b085vNS7XvXjWbH0tEW20cKzb/ZgebLFPpfajSHC7z4En4PlAagPvynF7EhNfV9N5geRvz3mMAdCeW7ej1g0KWLfqUNRNPABQMOehw1iGTjag94mhpDYj/+l5lZXP6srwTkpKEvJcqEuPjtDWx2Fa4rsoKemsY1NSvoDx8TI6gsyW6KIo3gFZ7/xm8+aPFyYlZUSRXAGJAo+L2u75dpuZvyWH4zo8n3hkbOaMYXJlSH9WWXktnv2AjAAh5Vm8d+9zyuANJQyxzgu/+1ivgpHfINAMARsGAFnWQQ8AOuRboGDUjmSdm3HUukWnXORlPiavqkp9EVArjyLyWNaNGH3rbiW8s3bfvn+rfIEeC1NSxi5MTv4c0xtLUN/IzfEz78XUxXOQ24sj8CDEKMi+AtMm1wXOpG1zKqMPykxN49jqg2Gw3jBu48bNbSt925QO5W3tqqxUba4W5doXgvnS45KSHrafsf3msPXwtV8YTM3aEwLscOhPATAnqPnvBS7XI1DCfwMOAf0mpGUtthITT5vkdleBh3Y44Jacop1Byn+pL6pp0zcihMI8HYr/A7icF0H52HrdrBGbgC/Zsh7C1MVPUfYJYFKII+AAY6sLMj+NOs1Z3LevusZtbAQ17++R8kXUwZaXCUP+f8Cz9EZs1DI8Uk4m8u5yu68B98CMACF+pQx95A9BiH0WAXV2sV9tU4N2jYCU2osASYgu3ZKS1OYjNwWMiWX9fXd19QT1ER27PMTevZNhePTVzWcxP6lL20Cn1jQsSElZgvtlUL7q/WpcRjhY1pZ9+/bNVKWOr6z8ItHtVussfo37PTiCCVdacXGf5w8YMCwYJpHMW5OcPBPK/3Q7ZWLkX0CJibfZydNeaYM1AvB7++uilJRz2ys+duplDAA7aBna2EDAhgFgeb3XwQg4P8CKeTEqmz6+uvom1SkFwsMS4hbdfBbRBxPc7q906RckJw+Fu38u8n2q5kB184WFTojfNvZcqDnd8VVVfxMOx3B4JN4Pssxh7PUuh6FzfZB8wp4d7XEZjDBl+GiXhWdsN+p3OQxMfcNWm3tsEqrfW70nwLJeDKAG+DnIf6MtgvKCBVBu1GURUSeREcggECQCwrK0pwAEc2ogxaFT/gEd+QV5bnf9qDYQHnBfqy1PtefgHURao/9FAwf2x4j/SYx0VkO5qo+sYMAZiISH5mEpt0sptx6a0nIMDJAPxrndPjvqsRs3rv+squoMjHB/C74B7QFfXzJzJ7TJU6reakvd+rgo+7coOXkE2sP2Ak604xQYmaVRVp02F0cZAYnV1dfgdzg3AGE6oy1ew/SRrWmYAMqJ6izGAIjq5jHCBYKAFMITSD7dPFBU1WRZp8CV3eRLfrr5D9JJecfBaz8XUG5fW4mJaoFii5Rqsxwomfvg1SjDEGcqtL6zRWKbCajz9+hof4/jUSgk7SkLdLK1LMSNkAVV8F3oDCILc9t/sSwrF/Rf+KbSi1X17rZjx7tLBw/Wl1GPdVBU8E4cDgDUjoq2FpgCt6fwnKnFgkGV314zK09SYmXlT4BTIGsjXJg++jesB9jWdhFqH/TGAGgf7Whq0RgBIQ6u7G8cHZJrKb+Kk/KEvOrqoBaxYQ7yFChT7fl4KN2/t+QCVgsJFyYn31pXW1uBkfRd6AxDuSjuWyjlO+v27RvkkPIVGAK/tYWjEH/N27RpjU4etbFNYlXViajD71BOnU4enzTMJ9fV1S2HN2CUz/QIRyoFA+Pm32hvu1+Q/HIn0c0RFjfmilNGQILTeZnyNAUg/JldkpNhgwaQsx1kMQZAO2hEU4VmCNTVhcsAyK/dt++kMdXVm5qVaP/WxugfzHd5mQ/Z+AW9lsCI/0quqSmFcnkIit/WbnLg22KAAt6BEevdtTU1QzBX/6dzvv12t5doFsppcetkH8w2erze+3zEtxilOnN4A/6IqZmTYXgc8rnkFjMemuBiy/pA4XNoUmRjuqWk3AsvyFg7pSr8MSy9aLLbvddOvo5KO3rDhpr4+PhJMAJsfzsAxvVdMMhtLQpsLzgbA6C9tKSpx0EE8INOPHgTogvwnNO7b9/zGi9kC5S1WnyEjmqcjfyzJm7a1OT7Bvku12nHqnf5meeAz0AcoQp7oPj/HE+Umud2/6GhvnBhX4sCoJ/xXzcw36R2cdMlb0w3zu3+XHbqlAOcAnZ/o80S4U2YA7zvR51gHzUuITLXwO1CKPPpdkqDrJKEuOZst7vMTr6OTjtm3bodFtEE4GfLQMeDwdKy/rl44MDBHQ1DYwB0tBbvAPVFB2BrntUvJMx/GltZec2oFSsCd0s3LkTK+1Sn0ziqpWsojzphWY82pL/jcqVDocGrTMug4EY2xAd7VuWAx2wHczoU/7Szqqq+w319WDBoUD+Mxh+sv9H9xzwfc9dBrZHAlMfOCW735ZDtarTpbt2iD6GDtwWKeO5cl8uO9+IQNnYjFiQnZ0MhPafb1g38QT8TXpBA5rQbWHTYs9qHQwiRh+e1icHsFxDmwzwez8t620z75RYzBMYAiJmmMoLqIiAdjt66tK3RQelgAMm3QZHdiU4Zt61R66UtHDBAzfufrUdNxFI+P7a6uvLtAQMOgxJ7wCvlV+jcQrmy34Jbfx5c7sPGu91T1RfYqNmf8HofBc1hzaJbvpVyLzrhkM1d51VVzYE7fxTaoKjlQv2mXNSV6N38fv1C8mz4K00ZTTDQ3oTMKNYfdZP0ZYlu9++bxJgbWwhY8fHl+OFOww8WQT8rfgPHfrN16136OWKf0hgAsd+GpgbNEZAy+E5eylp04JePq6z8a3P2wdyzx/NHG/kt4XA8onYugxIuR282DYo4JOsbwAuB/uP1eofDwJkMl3u5L7nUq4rK4PCV1krcver1vlbSbSep1+ASnM4T4A34p+3MBzJAGZ9ATucHMKbsLsY7wEHvtGzQoETh8byO8gbo5ThAJWVVXFzcZZhnCetbLAdKi+kT2vCwxQMGjFyYnHwxpsOm4TmdtSAlZQnuK7im5gdgPxsHgr1q4kdxF/i0unjUHsfopjYGQHS3j5EuAASsIA0AKJkdULRjoRhfDqD4FrPkp6ScLYU4tUWC5glSbvZK+RoMkb/hOLx5cqD36BUXwqAYhRH/xRM3by5uic/rgwb1hPKf3VK6r3h4LIp39egRUqOpoRy10AvegGuBxS/RRgFNx6DuGaj7x4uSk0c08A3lGQqEa2prnwbP43FoB9SnBvW64Kz1623tsaBdQIwRLuvdu+sCl+sotTgPSv3WhUlJj+L+bSj61TCI9zos63vLspbjdzoXbfoAqjdFSHkW7pVx58B9QAG8nA4pn1pGFLJXaAMSJEKZRITKMcUYBCKGAAthb+TVSDJ04B50IudCOf63UXTQl2rFPnu9dkb/BDmS0SGlU4j+LKIPSIhTMNrPG7d5c4E/tgl1dQ8pGfzRNUq3vELcOHnNGu2NmBrl1b6EV+YxdjjOIMvaop2pESEUrdoj4L+Lk5JObBQdksuFKSl3AuOf2GGGZ04C5+vRLp/byRfrtGq+fUFy8tD8pKRJMI5vwxTXbCj7/0LBb6lJSNgF5fQlDKM3gM1DwPRXuJ+AOg9D+4V8kS/4HgySKHtfSsrNByOaXLSvG2DavipkamMQwKj1uEBRgMJ1YhS7EB35c+iM1EdrAmXVJN+xyclXoBNrG9fi/nUDkye43aeO37TpwyaCtXADt+p4dLQ/bSHZZzRwmzWhsvJ/PhNDHKnq4XA41CJIW19ebBADc8Q9LSGWQOnYeRujIbvPM0an5wODP/hMbCUSz9zMvBZ2SmwlW8wkNbjrodivAt4P4Lc1F9fLv9myZQfm3UthsL8F3B6E4r0Byv40PHfKQGvT+sHw+ENHeCvAGABt+piZwsOBADrUpKD4MneCEXE1OqOP0amvRIf1c+WSDJRn/epzZlvvwwdaVuN86MQ2QNFdOq6qasT4qqp5jdNau1Y7CgJDW65/dN6V+/btm9Ya31CnqQWLMjFRfVTnmQB5dwZGb0IpXRhg/oPZ8IwcAwxeQIS9PpV5/mdu913IF9NBuczhUcmEYr8Io/m78LuZsyA5+TNMtWxrcNdDsT8PjKbht3Uxrkfi9xXRtzJsAtzZqxa/NsvU3m7tPaztrfamPu0OAeVWRCdjd+V1azgcjQ7rMbgkqzAH+Yha3d0asa+0rsy/hkJN8ZUWjjgotR0obxp16pSZV1n5Cq4BiX5J3trah0DtwqEd0KH/smHPAO1MISDMKy/fh+ma68HqDlQSAVd2AnM8Mr0ChXWFnWyNaaHwUoH528DZ1g6MyLOqdu/en2B6CLMzjTlG9/U7KSlJi5KSzoLhdDNwmwOlv7zG5doBj0oxnoN5GM0rY/dKwXwsDNCe0V2blqVDe05EHYM2Dlsuoe1TjAHQ9m1gJAghAt9+881Q/HARQsh0P6vu+LHcxB5P+aKUlL+h09NSkOpjI+gQb9/PIrz/ocg8KGF2fHx8BuaT/6yUI+5tBYxkx0Ib2XL9o4AXxldWBvXOP3gEFWAEPABDbTKOvQEwUovGnoMys20EzE9K6oUyF+CBs/VRGSj/76Egz28Lo0kXn2aKfhaejQ8xNbTbK2WVxPQJnreHwetKKP2ROId27w0wjIZgSfn319Vi2Hph2t8/9Gntr1KmRh0YAcsKy+ruBkTR0XdB530LzhVQGE/7MwSsuLj7kbc7jrAGdMZvW17v0VCEUwNdSa5c/6jbU6gbgp64oN8aJ+WtetThpcqrqvoPRqHjINP3AZTkAIb/xGj+Et28UP6d44RQI/8M3TyKDvLVQWleCCPN56uXiiaSB0a5hy9MTj4TCv7XeJ6fxfXnUPS7min6KTB0TsKDYctDIAgIAAAQAElEQVTLEcl6hKMstFP/xNpa2+s6wiFLOHgaAyAcqBqebYYARq9hNQAOVow5HtfXoUNci3nO+97s1asb7puEA+8T2x1NN+GhcaM+tDMhz+2e1NorfRp8yFNb+3fUx9ZUBeh/1XjXQJ1ywkmjFiEK5uOgzG1vo4u6qAWgL0IRXuZPxrlEDifRv1CO7QWn6HRvgqEW0rdM/Mmr0iErQ9mnQclfhPn5e6Hk5+PYhPjvMB+/FAr+r1B4P8X1MUwUymk0VXwsHBawUHiotnkGeNwJ790liKvfeyIWKmBXRjyLdrMYeoNAFCMQZg/AITVn7iSZ74pLSChDxzpFKQZFo85sWU/iOiy/MYwiq1HudZ+53UdBmeSjnKACjJjJYHAlDu0AJfGGncWF2oyDJFQj6/i4uFOAj99XHX0U5ZCW9Tw8Aef5SDsY1SUl5TES4vyDEfoXj42rqlLPhX6OACjVwlMYMsdAwd+AEf1juP4Qyl994KkMSl7t/Pg7tN9EHLYMvgBEiZosUOT42chqCPQxBgovoe4z8Yz8HPcThGVlycTEzjCkB+IYjd/U9Xi2/4S2mhvslz/BP2pDWDqnqK2tEaxdI4AfOKvRS1tUEp1qXxyzuiYlrURHO657cvINuFdzo6EWZw8T/cHh8QzNq6x8NhQLyOa7XMnoEJ+wJaiU28jhUJ2nrWyRIlbTIPscjjPxTHxit0y0WxxZ1ktQnqf5ygvj4C4h5VRfaX7i3k10u2/xQ2M7+cBrdmPw3N2+wOX6N6amVsMdtQsj2M/xrMzGb+LnuD4JjBGN/+01SFmLelagesswd/8czveg7j+F1j8Tij5td/fuiZgmSoZyP2mC2305DMXp+A09gfv8sdXVJa2vmQG3dhiMAdAOG7WjVgkd9nB03ro75u0JB04sxJFQOgtxqAVSISsC/CQ6s3mY5x+GjuvusVu3/hAK5pKIBfNzzKyLG6k/KcRt4zZu3Kyuo/U4f8OG7Y66ujEW81K7MgKPRCZ6a1H//rmN80LJXg4lc2/jOM3rNV4hLh5NpBZqamY5lEyt04Cn6Qwo+d9iVP8KRvcVB16zewdtORMd+mXINQyHWtiIU/sKUOZb8Tv4SCl4KPXf4fpyeGxOBqiuz6qqOmHUngaFfsaEqqqf4jxjfGXlc1D670HRV4R7g6pYRBrPSyyKbWQ2CByKADpt9aGdQxN8xKAjecLr9Q5DJ/8HdJybfJAEF8Uckj3764Vg/ggj0pHozCZP2Lx5Y31ciP5BgdyM0exZdtgBr7fRoT5rJ09b0SpD6Qcpz5GWtTgAGbpDySzACFttL0sY+Z+tFA+eGQQb3KSsgot5XPNPOvvjoPaeUB+PgtFR/7odlP5qT23t93jO30XeP8MQmQwFWC8b7ttPgHcJv88VqNs8AD0T11cLIUbBRd8DyrwffgcnKwWPZ/CPuH4JLvqP1FcAQ+ENawnE9hpvDID22rIdsF7oKE7RrbZg/kQtmlOj6c/d7sHoaMZDsb0KHgHtMa9bri06y9oCea4eV1l5Cjq5Qlt5NYgXp6QMB9mfcNgJ30qn8wY7GdqadrLbvZc6dz4XcryJw14Qop/wehfDuzSepfwPlG+cPQa0E8/WBLiYK1vLt7hv3y75SUknNSj7RcnJa2oSEnbA8PsAz6XyJqn1GWpk3z76bBhFqNd/Ub+ncZ4OjC4Cvtmirq4rRvGHQ9GPgnJXH6majus5YzdtWgEX/c7WMDRp9hFoHw+T/XqbHO0MAVj/Ap3ImdrVcjg+bqBFXguGwKI8t/sixA0BHzXq+B7XbRLQIXqgaB52JiZmqs4P8iAqtKLkp6UleKT8F8pJtMMZBsnPJmzYENAe/HbKCTUtlMe+3n37XqxGlXZ5A6M0tIFaaGlrDh1Y1WHketG4qqqVjctEY/Lb/ftnLUpJ+emClJQnMbJfacXF7WAhPkRavbKH5yELeWK9f/YCg3IcbwG/mcD+pzgfp0byUPIu/N5Gj6+uvgHnmfj9vapwUh4b1DvKQvsVJ9YfsPbbMqZmthA43uUahc5FbzMWKde1NH8NhetGZzTd4fEMQCf8c4tovS1BgiRmy/of6jESo/5bx6xbtyNIdi1mlzU19+LHb/eVyX8Bn/+0yDTKE0atWFHXu0+fn6BNF4RbVChyCYU+BSPXJTC2uitXPrwI03DMh8L/xuFwrIFifBbTL2ox4dGQJ2bn7FGPOkxHrEOd1Z4Iyniud9l7LKs7npd0HOeq3xRG9M/h/DmMMTOSR4NHQ0AfEA1iGBkMAsEhgM5nvC4HS4gl/mjVSARzjE/07ds3Ax3c1aBfiyNsAWVsxnE1XMWnj3e7vwxbQWCMkecp+OH/Gpf6AS5brxA36WeITkplBPxAdDGeF/Wud9iEBP98GHKjofBLqKZmO1zdH+D+ARzq1bsjwlZwOBlLuRf1WI7n9J+oxzRpWefASE7bvX/xXSpG8pOg4A+67CdVV4dloW04q+iLd3uOQz/Qnqtn6tZhEJBygm5dHVL6NQAaeCmFgRHMnES3+0jlwkS8G0fIAjrTOoxIH63ft7+qag46VuiOkLE/hNHrgwb1tOD6R4L2iBMCSeFw/HTipk3bkC/mQ/2agMTEczFq/SJclUHHOgFtexXaMwMHQrhKCj1f1d7AZh2EfgN1uBfHxXhmMnZVVXWDy/4Y/B6uhaL/c1519XwYyRWTibyhl8JwjAQCeE4jUYwpwyAQPgQWDho0CCMR3U/tej1CvGdXmgOvb32PjhH9ot3cLdLvg8v/kglu982Rcosm1NY+hgoMaFEiHwmQ8R/Kle0jKWajFN5xROMxil0ds5UIjeA7oeBXgNULeC5uQVuPiZeyN+boU6Hkz4ey/z8c/5lQVbW2Yyp6INOOgzEA2nHjdpSqSa/3InReCBo1Zv7U7kh2cd++fRa6XPOg/N+EFyBZoxRdkgTMEz+rVn/rZgiGbmFKyqUo73KbPNZ6iKbbzBMT5GoLY6fDcTbadV1MCByckF6WshjHK6jvnULKSZbXOwjTTerVulE4XwWF/8i46uqlCpfgijK5YwUBYwDESksZOVtEAKMWDE5aTG6SAPfmG00i/NxAaV5mxcWpUaJ6Q8APtf1keC56QikvXJicfIL93Po58lNSUjHafVI/BxGw8mB64qr2PJd7dmVlNZThBCjG7XawiWZa1W6Qbw2O+lE9CXGKqKvrMa6qahiOSzG6/9PYqqq3J4R4TwmU1+5Ce6+QMQDaewu38/q943KlQ4nquv8VGq+rf/6OpYMH9813uf6D0dK/QdsLRzhDN3gWFi1wuWx/WEZHqOUjR8ZBwalX/nro0DfQMPM9mJ74rOG+vZ2XJicfAc/O+ZgS+hmeoa9jsn5S7lML8yD7bDyrN+I5OraT09kNI/ojcdSP6sdv2vShWtQKGhMMAk0QMAZAEzjMTawhYEl5NXz/CP4lB1GRWrTkjxKj8Yvr6upWgf5Cf7QhTO/ukHJR/oABw0LIs57V1q1b/4KL43HoBynf31VZaXeTIH3+bUD5Zq9e3RYlJZ21yOV6ID85eXkds1L6r6ETVG83DG0DkewVKWUtMjQZ2SfGxfUcX119DJT9VIzsZ42vrPxi9IYNNaAzIWgE2j8DPPvtv5Kmhu0TgRlEwmK+Srt2zK+1Rrtg0KB+C5OSXsMoai7owj3qRxFNA0ahPcnrXaDWHDRNCfxucXKyeu3sV3Y4wFuw3bKsqzGvEtOru+cnJfVSI3x4Vh7BeWVcYuIOKcQSuMinwbuhPtQUtf2flLIOz0MB2uIJPI8/hdxH7qqq6gxF32Rkb5S9nSfb0DZHIGp/AM0FNfcGgeYIHJeSMoaJtD5nik5fYj5bufObs6m/V6N+9nhWYb40kE+81vMIxT8opkFWfPxr+WlpQX9LYHFSUopXfeiHCDCR9p8lxI2xOD/cfITvFGIrKt0wwj8aICAgJgoDFP5mPKNvQ7R72LLGeKXsCW/VSMzZ/xyj+ufyNm1aE+sGGeoWU6EjCGsMgI7Qyu20jhgd3axbNdB+hA61ojn9fJcrGaPDBcQ8F9ohOjZokfIk3rv3oeay2rlX8/5Q5IHUaTZwesVOWW1FCyOpe35S0qT6EX5y8pexMsKHsv8e8/aL8Lz9Ac/lROnx9MmrqkpSG+lghD9DrcRvzwsv2+p5MeUeioAxAA7FxMTEAAJw1WdgxDRWV1TQvtCcVq3wd0r5FeLzcIQlwOugdvX71jZz5p9DvnNs5zuQ4estW9T8va15f2BUlrhv328OsIi609xhw+LzXa7TFiQn34vzx1RT8x0L8RY6sZtgwB0FhYoQXWJD2ddBqM/wHDwKfK9wEA2Fsj8C8/bjx7ndd2OEvyBvy5ZvoktqIw1Rx8AAv52OUVFTy/aFADp+paj0nl8p91oOx7wGBBa5XIcvSk5+maT8NxTHYQ3xYTjvxNzt+ThOgyKots1fyqcXDRzY324+KMfxqJfdrX7VavJLRn/zzW675YWT/u0BA4bkJydPgTE0t9vOnd9Amf5XMP8O5xNwOMNZdoC8d1rMS5H3HuXK383cA4r++Alqsye3+8Wz3e4ypJlgEIgKBPQ60KgQ1QhhENiPgFokB4V6xf47//8x8nq5YfOf/JSUs3G/UjJf4j9ncBSQ8Vcod52av0WZo3G0+klYH6X19nq9//AR32IUlKULier9b+hHXGkGyDY9r7o65J8c1iz+INlBhe9yzUFdqhyWVcHMs2CsXQyi7jiiK0ipNhFSeN8ihBj1mdt92ITKyjENrvz6bYejS2IjjQYCHYXEGAAdpaXbUT1lXNwvMMLtpFsleAuemOtydVJzxVAki5BPKUmcwhegUF+Fq3dOQwlqK1X82M5AvHr1rCHa7xl5LsDoV2uqYxmRE1r/JRxH+GXciADu6QXjq6oeaRQVscvXBw3qCUV/EaZ0nsJ5/UGFT3QlFH9SxATRKUh5kog+AOkD0rLOiZOyF3BLhbKvf99+7KZNK2YQAU5QmGAQiAEERAzIaEQ0CBxEID8tLcGSUn1C9WBcaxcY6ReAXnQjKsLDfhMTIVC4/9woa0rzQuAKLoeCOx+eAVvvaUuv96/LiPy6u/e4XPcT88nNy/VzvxFTFFcCFNgmfihDkAwFKWDQHIPjdzg+TPR4voWin0dCXI/zoBAUEUoW35JlvQ6j8ddosxN69+vXA678U6Hw74C3ZL7ZMjeUUEcTr44ji+g4VTU1bRcI7N17NRRFX+26SFmNh/wj0EdqoxcLmvQKKPvvUeYhYWx19ceYw7b3Xr4QR+5NSbnhEGaNIha6XBdAid/WKMr/pZS1GK5egmmKsH7lL79fv97qNUvIOOvY5GQ3FOrnOO7FcRKEdOCIigAlvxVt9zaO6Qfc+X3HV1dfgFH+3+DN+VR9GTIqBDVCGARChAD6xhBxMmwMAmFGQK0Ch5Kbpl0MFBzoJ4I+ckqGeWae2/0+ymwxwDh4Gl6J51ok8JEA5fTbuUQ+6wH3eQay/JOJdntUEwAAEABJREFUEMjO33SMaEO+1a+Sc/GAASOh8GfArb+cnc4txIxomgLjzfaiRjsVskMLTDdDrnkArX7+Hoq+P9puEo6Zxp1vB8n2RduRamMMgI7U2jFe1247dqi5/yHa1WCO16YNDeGnvfv0uVuHFXfqdDNGmpt0aBUNfqiDu6WkqIVw6vbgsax3767g8yoibC2QQ563x1VVPYx8IQmLk5JSMMqfusjler2by7XNsqzlYHw3FH707LgnZQWU/j/hebhGOBxDMKpPGl9ZORkG2SNK4cMQACyQ2gSDQAdBAP1KB6mpqWZMI1Cv6Jij9rO00Bxfe4gu0nUT55WX74RyPGSdQGuNJC3rEBd/TWLiM4wpgtbyNU+D23+9JcRVwSg8DOcdUPgn5Kek/HGBy1UEfpswmn4SOJyH8rrhaPsAhY86PgWZrkDbuDDCT4PSvxbn58du3Li+7QU0EkQfAh1LImMAdKz2jtna1iQk3IbOvE+UVsCC8rtykttdZUc+jD4XI9983TwwGEYuSk4e0UC/KCXlNxjNTm641zljBFwnpPxJIPP+i/v27aJ23oNrf1bX5ORKyP4xS3knOpGDMunIEC4a1G0rZJqH81Q1woeiT8Pofgpc+i/abZtwyWj4GgSiCQH8dqNJHCOLQeBQBNQiMsTa29gGGewGjBTLoFD32s0H+nvzKivfwdl+8Hp/i3IxQNXLKoWo379gQUrKqZaUD+jl+pFKMP8aivGTH2Nav1Lv5cOtfzPKW2I5nd/D2/AWckTFXD5w220xL8W5ftEe6tUfRtVkjPJnmxE+WskE2wh0tAzGAOhoLR6D9YXS+T3EDptbGQpE4vgHW1YFRpDa+wtAJhWW7XK771UXgRzjq6tLMSJXc/h62S3rErU7IGRV7/v7fTWwMVOL6CWMiFvdWEgttIRb/+yFSUmPwsVf4QAmwOZhyHgWsIn0morG4hMnJlLCqGOo25QbqfuvfjX9c7e7h9p0ByP8+kV78BBB1CZZzI1BwCDQCgLGAGgFHJPU9ggsHjhwMBSP9nv/AUi8UTKfjnxeEmIcztoBruZqUVd3KXzwQX021yvEX7QLZR5ieTz/w3SAvU1ypPzKWVfn81XC/LS07lD6l0Dhv9R1x46v4dZfDCx+Bdz1F1xqV8AGocNB8cOPoq5XXUOH/+1R6vPG23TYAw9Sl8mXUpfzLkyeQWbTHTJ/IUSg47EyBkDHa/OYqrHX43kYiig8I0/meV4hchxSDmWim+0AA+Vfxw7HJWO3brW1s5+vMjCKXY7yi3yl+YqD8k/zFd9K3C6M4CdD1h8aaNS0Sn5y8lX5Ltd83rtXKf2XgfOl4N2jgaYtzuLwIyhxzNnU8/czqM+rb9DhD/+93gCIP+poYuePDg9L8iltIZ8p0yDQnhAwBkB7as12VheMSs+DQjon1NWC8t4Bnleq+WIo/2PhGn8C9/YC8y/Gb9r0ob1MrVK/1GpqgInwiUsYFz8dW11d0jCfr3bggzLdAmyfR9pEKP6EANmHItuexvP4vee+Wtlz2p2UeNrpJLq2MusjraML16/vGQoBDA+DgEKgIx7GAOiIrR4DdZ6flNSZLOtvYRD1PSj9o8a73f/KHzBgGObSX4YS/HFoqVfgY5h3fkqPVI8KP8TX9SjtUWHk/zyMgKMWulyrG+bzSUq1Ax+KtMcrhNRrgPlMYD9GJiYeDg/IGOC5fx6fScuogvEiZK33hBDKZFgZBDocAm3ZCXQ4sE2F9REQQsxAJx+yveEx6q9D6fd85naPwWi4csGgQf2ggPIls91R5Me7uncP+RsJ6jOxkLEaMoYuSLkP9bsGDO/GMQxHmwTUayvacg4MkStEXV1fGF9HjnO7p4+rrl6aV16+r7FQUvL/Gt+3ds2SlCHTGolJMwhoItAxyUTHrLapdTQjsGjAgCNZyltCJSMU0CoooFFQPDNmEFnqy4BUV/cm+A/EYSe44+LiLpi8Zk2tnUy6tCyE1uhXl18bu/brR/kkxCmfV1UljausvBqj/BfH+lkz4bCkPgaWzNXGwhAaBAwChyBgDIBDIDERbYmAJMLA3PoHFHYcheZv9m7mY6H8v1TsYAAIzCzPEYhT97oHjIgaKNQLzlq/fqtuHtt0UhbbzhMlGdBuP+B4GzhNdTAnA+/6Ub5aJwHMLV0xj85KXQM+u3XopYOMAaADlKHxi0BHJTAGQEdt+Sit92KX6zomUq/lUZB/O6GwL4cimjrZ7T64uc/xKSl/Bd+LcGgHKCQJXtePr6z8QjtTAISSqCyAbG2XRcp10OyPwmIbs7t798Mxwp+kNuE5u7Iy4KkMGH4W+Gm9EcGS+xaUlCS1HQCmZINAbCNgDIDYbr92Jf3CQYMGYQT5WNCVkvIL9XofFPZLjXnlJyf/AfztTy0w/x7K7cXGvMJxLaQMWHGGQ55DeEqpDKl8GEO/IKdz8PiqqtQJbvfNai4/pNMiQqw4pOwWIoSMM16AFrAx0boIdFw6YwB03LaPqprDTSykx/NPKJeA3/nHCFqqEemuHj1Onrhp07rGFVzkcv0So8vfN47TumZ+Pq+y8o9atEESeZn3BMki5NmB6ddkWU9LyzpnF/MR8KhMgGH1+PgNGzaEvLADDCVLbQPAEmYa4ABs5mQQsI2AMQBsQ2YyhAMBuOZvDdL1/61DynPUiLT5aHShy3UFFNkjduWGMfGBTEgI5y6ETURyMvdvEtFWN41c+53c7uTx1dU35FVXz288lRJO0WAAqE8JaxUBj06OFqEhMgi0gEBHjjYGQEdu/Sip+9v9+2dhhBnwfvok5YdKEYytqnq7eZUWpaScC+X/T8TbetaRp9RBdF7z19TAJ6RBvfEAA2UGjlJLyrDsBeBXYGYpunYtB909QohRjV37o4k8iI9oyE1PL4XxtUunUEHSGAA6QBkag4APBGx1ij7ymyiDQFAILB85Mk44nf+C69/uR3jqy4Vb/+He/fqdkVdV5a6PaPQPSvV0y7IC2ejnG/wwJo5zu79vxC5kl0uSkgYsTE6+Iz85+SsYPqvA+G4cQ3FELHBCAiWecCL1+PVvqc+817jPG2+n9V36/rm9l7x35PLly0P1BkZA9UGbWvAGaS0EJOKBy0tLe5H5MwgEhEDHzoR+rmMDYGrftgh8u2XL3Sztv8+NEfpuYr5sXGXlraNWrFCb/DSpyKLk5BHg+zqUSWKTBP83e+BROBfKX42I/VNrUrzZq1e3hSkp18Aoec8jxHrIfj9kG66ZPSRkGOXv32d/xr3U59U3qee991OnvAkkeh5Wz59JZrOk551de2wqLC6b8eWXG/cn1KdG9h9k0V4H4PDGGS9AZJvHlNZOEDAGQDtpyFisxoKUlFMt5mkByL4Wrurjx1dWvuwr7+KkpEzJvASHrV3+MI1QJ4kuggv8E1987caphY0LBww4GUp/VlxiYjUMCzUVMRp8Iva7E92671f6UPa9//MG1e+zf/IppD6tCzl8BkncDwbK3XXxdRuLSsofKVizzu6GST752omEB0DbAGBh34C0I4uhbb8IdPSaRawj6uhAm/o3RWBx3759hGX9Gx29rX34oaSX1Didx43btGl1U4777xYkJw+FUbEUd71xaAdJJGFUTM1zuxdqZ2qBsGFe/ziXax1Z1gcgm4J6dsU5IkH06HFQ6ff5z+v7lT7c/ey0BTWhc+gGXG5iYZUXlJS/vGJN2fERqQAK8QobbwKQNB4AYGaCQcAuAviN281i6A0CwSGgRsbe/fP+yXY4waX/CkbnY8/fsGG7r3xqMSEU7X8xerXF9wCvOzCdoEboB27tnZYOHtx3UUrKbzDaX9loXj9iI2dHnz7U+YKL6PC/PUq95/2o9MnhsFcR39RO4HqJEPxJYUn58oLS8qvCvU6gIj19Ldq7xrc4TWNZ0lFNY8ydQUAHAUNjDADzDEQcgWOSk+/B/PcYmwW/Oa6q6lIoIgxKD82p3P4YwS8FX/uv0kn5OEb+Mw/l2nrMXCLHouTkCQuTkl6rra2thHfiL8hxNI6IBEe/ftRl8qV0+N+foN4vvkLdf/5Lij/qaGIR1p/1SCjc5x1de25U6wQ+Ky4+IhyVnczstVhvZ0TJlLZs2TJ77o1wCG14GgRiDIGw9hQxhoURNwIILExOPlMw32GzqG/j4uJafB9fudy9zP9lZvvbwlrWi59VVf3Kjjz5ycmufJdrWtfk5HLJ/DYJcT7KjsjKeXY4dnaeMIkOf/jv1PuFl6jblBspPiuL4PWgQ/6k9QVJ+vaQ+NBE9EeZd8dx/MbCkorHioorQv4WA1us9W0EJorv5nJFzNsSGvgMl7ZGwJRPZAwA8xREDAGlOKE01MI9h26hGO5LuNSvbekjPMrtLz0eNfLvq8uzgY6J3kisrr4GUxJWQ1xL5/y0tAQYLxcvSElZgjpsQt4HoPQHtUQf0ngpd0HAl4DDOf3ezL+1+62/ofjh8HozpGitIHY84v2h80BJ/DPkL22NNNA0JtmFSP7cIqt4RXH52wVrK86SUvoRTLM0lloGgOLmsESGOpvDIGAQ0EfAGAD6WBnKIBCYO2xYPDO/Ahb23tmW8qG86ur5yHdIgPt9hMPh+B9G4P0OSfQTASW1xEpMvHQ0Uasb3WBO/2i4+B+lvXurofjnCinPgnZD8FNAkMmQbwfKe14S5fXu1++ICW735QoHKzFhsC5ry7IqRo1K2pObmfpkbkZqlhQ8hli+Dd5gq8tFjw5tKwTTBLbkksLS8hJ4BW5evry6s15u31TMtMZ3yqGxTJYxAA6FxcS0iIBJUAgYA0ChYI6wI9Bt586/o5ATcWgHS8rPd/focaevDAuSk7Mls1rtb8+g2M/sY4fHc35Lu/wpY6VhtA9NWQQD41fMfPj+rOH7D8Vcg/KUgr4a8iWPr6y8Js/tXth4nwMmOURXAo6jigZayC9zh6YuzclIn8QOmUtMs3UX2TXw0D0zMaYD5MOOLns2FJSUPbCyrMylm7cxnZBC2wNgSTYGQGPwzLVBQAMBYwBogGRIgkMArv9bwGEKDv0g5TYRF3dJ8339FYPFAwaMhEILSPkro6K2pmbc2K1bf1C8Gh8L+vcfuDAl5f6uO3dWEnOkRvsQSS6BMr6qU21tbyj8SXlVVXN8yVcvqxSp9Wc//2BI7M5NT//GF1nO0KFFORlpU2u9zsEk5T2SZFh2PCSm3jAGpnm9XAGPwFy7rxF2clprIX+rHhqkNwRjADQgYc5+ETAE+xEwBsB+HMz/MCEAZQ23Mz9ohz2Ul5RCXOvri3MYmZ8J1/YyJjrCDk9FaxGtdDCPP/fbbw/uMz+DSCxKSjoLin8uOxzlUIh3MFEfRR/mQ7m37yGnMxUK/+xxVVUvjP7mm93+ypRkaU0BwKA4OPpvieexwwdvyclKnxHv2TdQSrqJJDX5gmJL+ezGA894Inkx5gjUa4T/LSotP3+ulH7XgaSnp+9DvvU65aEMYwDoAGVoDAKNEDAGQCMwzGFgJtsAABAASURBVGVoEVg8cOBgKGv7m/0Q/SWvsvKN5tJgPv58GAdvI74bDltBKX/Icta4A/v7vz5oUE94JqYcn5y8CsbGEij+i6FEnLaY2iSGi1+NtGeTEKeMd7uPxDHDl5HTEtuSkpJuzKxlnEjBfg2AhnKGDx++Ozcr7e/ZmanpQspzYAgo70pDcqjPp8HYeC29tKJ+u+GCsjI/Gzax7jRA/0/LyrqHWljDrz0iYOrUgIAxABqQMOeQIvBmr17dvHV1avGerTl6C/P+P3Tv/rvmwixKSfkF4v4DBWh3b39qUP6Tqqu/XZySMhyGxNMJdXWbwWuWZM4C33CGPdKy/g3DJW93VVUfKP2p4zdt+jCQAvcKPfe/4s0BjOaBhzUiK31+TlbaGGHJkTCIXgAvXRc8SG2FJGK+mzxcqaYHCorLTvCVG54M5SnxlXRIXLxXDD0k0kQYBAwCLSJgDIAWoTEJgSKgNshJSEx8hYU40g4PjJA3W8wXNJ/3V+/cI+0f4GX7eWWiIvZ4xjiEOAYj/ne8Un5JRNdB2dk2JJBPPzB/hDKulYmJ/fOqq3+S53YvnEzk1WdwKCV7HdoLACVxUO78EcPSC7Iz064i6UiXJGfi8Ln74qFS2othpgS4+S9m5o8LS8qXFxaXT1m2fv2PbcOiTJejICtTl9bQdVwETM1/RED8eGmuDAKhQaCry/WwJBpvhxsUfJ0Q4pJJbndVQz5lSOSnpDwBJf5AQ5zNs9qW9ym43NWagXwomTHghWCTiy65lNtAOhvHiPGVlSerrYXzyst34j4kAUpY2wAQ0grKAGgQOCdr8IbczPTpVpwYxCx/IyVrzck35Ld5HklMs3ru864rLC6bsXzNhv5McoM+DzYeAH2wDKVBgITBwCAQSgQWJierRXS/tMtTMP8cCvODhnxq451uKSkvwQV8Y0OcrbNlbQG9C8r/MbbpiUA+O8GC12IpSTm5d79+fetd/G638jLY4aFFy0xabwAoZlKKkBgAipc6RqWm7sjOSH8oJ3NIGpT0+ZhWWabiw3TU7zLoEJ6NmBK6VbcMydYAXVpD11ERMPVujIAxABqjYa6DQmBhSsqlmFP/o10mzPzwOLf76YZ8rw8a1JP37l0MpXpxQ5ydsyRM+wuhNgey/aaAjXLccCXMVKv4J1RWjhlfVTWv8fv6Nvhok2L0PUyLWEpvnLV3oxatTSK0lZWTkfbGyMy0MwSJTGDwKJHcY5ONLnkcMU/UJZYWp+jSGjqDgEGAyBgA5ikICQKYpz+NLOs5JkIgO3/vJlRW/rYhA1z+qYkez0fEfFpDnN0zBAjLc60+pyu6d8/HdMWZMFgG4Jg+fsOGDXblC5xeai1YhBFWOXz48NrAy9HLOSJzSGl2ZtrNlOBMJuJbYHhVUlv+MQW04VBbimzKjiwCprSmCISlo2xahLlr7wjkDxgwDK7616G0E+zUFYp0g8eyLm3YjndRSsop4PMJeOiNdEEYiSAOO5y6Xno59Zrzb+rz6psf5VVVvQcjA/ouEqXvL+Mz9dU9Jj+vzO2nheckpO7/A1xbPOUMHrw9JzP1EWv39lR4KS4nyZ+1SBzGBLSJMQDCiK9h3f4QMAZA+2vTiNZovsuVjJH/Iij/w2wWvNMhxCT1ap7Kl5+cPMWyrHdxrafkQBju4EwfSj1uv4P6vDyPul4/hRx9+hAxnU9t8Jcg4rN0i2XB5bq0oaQbNWpUXW5W6ks5WanHC2Edz9JSH36qC2UZrfPizvWGUutEJrXDImAq3hwBYwA0R8TcayOg5urxAC3AyMvW3CtG/nVwU188trJy1TIi5wKX6xHMLc/CEaddeJgIuVMn6jxhEvWa/Qz1emI2dTp7LJHDcbA0KWnkypKSwQcjInQhSc/9r8SBjKvVuS2PEUOHfpadNfQyZu9gYrqfJH0bCXniRILxAkQCaFNGu0BAtItamEpEHIH5SUmdE73et/EAjbBbOPLclFdZ+c4il+vwGpdrkbq3yyPU9OKII3apUX7vl+aS+tyuc4jvBfcwUlhKxzWhLt8vP4u1PQAOolV++UWIIDsjoyonI+2u7YmOFBgx15O0wvKGREN1hCVtGaMN+cy5/SNgangoAuh7D400MQaB1hCYO2xYvJPoVZLypNbofKUx0R/GVVU9+Y7Lle4l+gg0Z+Joq2CpV/ikZZ3T56W5V6l5ftHV/y7DkukaeDEi+tthGx4AclLUGAANDTt68OCa3Mz0Z3Kyho6AEXUKEc8jopDvMugVlA6+JhgEDAIaCES0E9OQx5BEOQJqc55uu3a9QEKMsyuqRfTSWLd7xsKUlHM8Un6Bhy/TLo9Q0IvDDqMul/1EJubkHKle4currp4fZ9Xl67upecDKkvIxoZBFl4dkzSkASd+MSEv7WpdvW9BlZ6R+mJOZOtkhrAyS/DcYkjtCJYe0ZHaoeBk+7QkBUxdfCKAP9hVt4gwChyIgibi7y/UEOuzJZPdPyveddXU3wO1/N/K/jlFgD4rwnyMpibr//JfU+18vU7drr/9y9Pz5JQ0i7H9tjl9puPd3liyu80cTqvSSkpJumNfX2uTG4ugb/beEw9FDh67LyUr9dSf2pqB+NxFJ7W1/W+LJxOHc+6GlYk28QSAmETAGQEw2W9sIvdDlegBGwA12S4e7fFWCw/ELb1zcEuS9G0dEn7v44UdRz3vuo17P/Ys6X3ARcUICScEfQI4mQTi86uM3TeJavpHnFxavH9RyeuhSajhOuc1Zh6MjhgyAhvpkZmbuYqYCsjjoKQHBVtcGvuZsEGhAwJx9IxDRjti3CCY2FhDIT07+AzTQ7QHI6o6T8qEay3of+U84mB9DvoPXYbhgISjh+BPp8If/Xn8knnQyqbiGooSUhxgAauU60lfg0AlOFt5f6xAGSyPJOlqbh0Vt/gaAtqwg/LSsrHvhmrLHYSR+QIK0Fzoiq88gmXv5TDCRBgGDwCEIGAPgEEhMRHMEMPKfwcy/bx6vcf8NE73pEeJpnJu6ZhkxGgzskqjd+hLHnE1HPPVPOuy++0mN/n3xYAd97DOe+HFf8b7ioLSuW15aGgGFw9pvWsgY8gAUFVdMjPfwahL8M8afL4ztxrGkw+3mMfTtHQFTv5YQMAZAS8iY+HoE8lNSbsOFctvjpB+gHHcTczWmDH6BXGF/ziTzD53Pv5B6v/gK9Zx2JzkHDkSxLQRJ60akp7t9pe7pEv8Sab+zzp0d5FT188UqdHEWaxsAlOCIeg/AyvLyPkXFa1+SLOczU0jf28fz1tTQDF0rGE4GgXaHQNg75naHWAeq0MKUlF+zlA/arTKUv4eZLZJSX3HZLeQAvUW0Hp3+TX3nvvZg91/8isQRGv2/oKUHsh9yOjElZS+TPPhhokMImkdY8perVq0K27zzXCkdxNZRzYv1dQ8cKtW2vL7SoiWusKTsYquOVkkWl4ZDJiaKX7lyZZdw8DY8YxMBI3XLCBgDoGVsOnQK5vxvISn/ahcEKCEMxtmJfN1xhC2gkAIcl3Z2u4fmud1/Fz0PH69bGJTEotZoPV7xBNL1FqQx9apzJCgvCbKEPqSWlQ0l4s6k8ceWXKVB1iYkBSUlSYVryt8g4rnEFNbtnkWXLmYagMyfQcA/AsYA8I9Rh6NY5HLdjBH83wKpOJQrQiA59fLAwPhEWtY54ysrR+VVVr4ymsijlIsk61g9DuTxOPm91mhHDU/dRCRtvBFAt39VXp7SGs9A01gKfS+KwHx6oAWFKR+8QVxYXD5FkrOEBJ0bpmKasK3zCmMANEGkI9+YureGgDEAWkOnA6ZB+f8SbvWAlH9Y4WL+SCl+jPZPVBv3wMqALdBQYty5MFgQ1XDf6vmjUampfjeekZbjHhRQ2yqnhkTmTl4P391wG8ozE+u/ASCjaw+AgrKyYUWlFR9ixD8LHY3/LRZbAQ6GBJqjFYJGSUJaxgBohIe5NAi0hAB+ly0lmfiOhsBCl+s6KP9HmdBlU3T8QekvJiFOwYj/ZKX4fUklpDzHV7yvOEwbLPIV3zwud9iQjcBhTvP4lu6ltK5ZUbJOX1m3xKh5vCWPaR7V0j2mAJa3lBbJ+FWrVsUXlFb8H3m4gIhOxBFkkBtZiHt0mVgkNRaC6HIzdLGMgJG9dQSMAdA6Ph0mNT8l5VpUdjaUHgKu2j7kQ5DjoPTHjd+06cOWxFleUdHDYjqjpfTm8cJjzW8e1+K9dPwRw05dL4CDyP6CyRbLRoKUEr9PPQMAhtuutcPSSpCtTUNRSflojyNhJUt5DzMlBCMM6i+B/6x9Djoa5xafgeZlsGTjAWgOirk3CPhAQPiIM1EdDIGFKSnXoMN+CtVu++dBufqJTh/vdk8Y53Z/DplaDc46ugCGQnyrRAcSoSRLs49M135NLidr8AYosecOZPd7EiTPLiwtP88voSYBXOgZxNxDk3z5ZGavJm3IyVavrjwcdZ9lSfmuZA7+Gw+S1pEQY3Iz0248Pj19pyDepSu0FGwMAF2w2jWdqZw/BIQ/ApPevhHIT06+iqR8BrVs22dBKX4pz6x39bvd70MerWBJ6wotQhAJ5tdwshWcDroPI/s9upmkRf9QXgld+tbohFcc11p64zQ03heN7yN1jVE6F5SWX1Xr2LeWJE1h/AVTNvhZxDQ7zlszIjcj9d0GXh7inQ3X/s4s5WH+aEy6QcAgQIR+w8DQURFQc/7or/+J+rflc/Ap5vnVqv6T86qqWl2dDzmbhKLS0mREnI5DK8CfbNsAOCotrZKI7yfNP2ZKduyz/qRJ3joZs/b8vyQZcQOgcO3a7JVrKz5mSc+jIkHPu2PufpUQjhNyMtKmDh8+fDd4HgxOqtX2ABBxVzJ/HR4BA4B/BNqy4/cvnaEIGwIY+U8B89k42uoZ+BIjtYlw9Z+AeX79eXkI3BCkdPyEmTXllxtzMobo7vPfUET9Oc5T8yAU7Nr6G41/kulGjIq19yVomaXU9gBYHuF3uqTlcuylrFy5sktBSdkD5OXlMKqOt5fbJ3Ud8J3Z3UGjsjOG+KxHjRDaBoAkK9FnKSbSIGAQaIKAZufZJI+5iXEE8lNSfkbMT6IaEW9/SbQJbt6pu9zu3HFVVQsgQ+BBWj/Rz8yvwFhA8fo5GigxGq0Vkm5quPd3RjlMFj2l5sX90baUvmz9+kQIq7cDoJRf79+7oCVuoYsvKi2/xEroUsbE0/AMOYLmLPkz9sqc3Mz06enp6fta4ndcWtpuPDeApCWKH+OBf6cf78xVx0TA1FoHgYgrAB2hDE34EIDyvw0j78eZCIEi9oee+zsc0zs5nRlw9c+eTBTUgrX6V+5YaL9255D8r2Aqm52VvlgSz9flwUzJdWLvY7r0zem67/Vko4G0FjdCrrC7/wvXVKQXlpa9gxH/y5C1P46ggiSCi59vLcsccpLOwkxWW0uz2KNVqGU8AFo4GaIOj4AxADrQI5Dvck2D8re9t38wEKGj/wGKbGZcfHxqnts9c/SGDTXB8Gse8nznAAAQAElEQVTIC31wQ8O137OUK4/OSv3KL50fAqfw3gL8tOWXLC4tKi6f6oetz2QovJN8JviIZME+3eY+SG1HLV++PK6opGIa8P6SJI+xzcBXBpZvkyWG52SmPjzZxpsLTFJrISCTMB4A6th/pvZ6CBgDQA+nmKeqV/5ED0SwIl6LeZajrm7IOLd7+ph16/zuvqcrm5qDZkteqUtPFNzonw78HT106Dpi/uOBW82TfHhFcflITeKDZEyWtgFAYVoAiHn+cxydexZLkg9I5sSDwgV4Ae9BFUu+MCcjfZLaaMk+Gwmvgf9cFlPQsvovxVAYBGIfAWMAxH4b+q0BlP9MjMIjpvylZS0WzNkTKitvHLt169d+BbRJ4E3ofCkUsd778VJ6JXv+bbOIFsm3ba5UOGovJlSKk4nnrV5dqf1uOua6WRJrGQCglRZ5v2hR4AASioorhhaWrF0Aud8kQakBsGiSRclITLNrnXJYdlaq7TcxDjKz2HPwupULYQyAVtDpCEmmjroIGANAF6kYpJNEvCgl5W9MdDtF4E907lxFUk7Oq64eN7ayMmxfpkN9btSujqR3cjMzq7Xp/RCOHj3aw155NUazLS5Ya86CWQ7eJ2rmKXd68zRf9wVlZZmYAujjK615HBOvH5WR8W3z+EDuC9ev71lYUv6wZIm2E3mB8DgkD6ZfHA5Z/2qf2tDnkHQbEVJILQPAksF7K2yIZUgNAjGLgDEAYrbpWhe8XvknJT0ipbyldcrgU7lbN+p6/Q3fd5swIX18VdW84Dm2zGG/O51HtUzRNIUdrHY4bBoZ5J1atMZEv7PDBgr9DEfXno/r5BFSnKxDV0/D8tP6cxD/5krpUF/soxqvetXxZrCKwxFkkGrB3u3bt7hHjRg69LMgmdVnl3Dl1F/4+SekWQToB6J2nWwqp4+A0Cc1lLGCwAwisSgpaTYJ8atwyszxCdTliquoz79epi6X/OT+E//2t73hLE/xdjD/TJ01j82eXdvf1qS1RZadmfpX+OkX2cpEdD0U7W3+8oDvKf5oDqZL1t418WCeRhcrS9edklpS8QVc9LNw9G6UFMzlWySdR+Zkpj2oPCbBMGqcV5Cl5QGQTGYRYGPgzLVBoAUERAvxJjpGEZhL5DguJeVZKP/rw1YFIahz3kTq/a9/U7drriXu3HlvgpXwz7CVd4AxXOO9pbQuP3Dr/8T0z1GjRtX5J7RPwfDrW055FXJuxqEdJMk/F5SUXddaBotI2wBg4v+2xqulNLWLYlFJ+Ryv5X0fc+Y5LdHZiZeS3KjfxVD85+ZkDd5gJ68WLQuttoQBYBYBagHaHolMnewgYAwAO2hFOe3cYcPiu7lcL2Me/uqwiMpMCSedTL2efZ66//o2EocfUV8MOtyXjjwy5fv6mzD+Y0v8nJi1RncSf14hnw2jOJSbnv6NZL4SeHt1y2H1R/xkYQsfDVpZVuZiokGk8cckt4zIHFKmQXqQ5OPKyk4FpRX/J6VYK4murBfnYGpgF1D8aj3EH2u6JgzNzUz/T2Bc/OeCvHo4WwQI/fMzFAaBjo6A6OgAtJf656elJXTbuRMOALooHHWKyxpGhz/0CB12z33kdKU0KUKwCPvof5naGc+yft6k4NZumN8ZlZ5e0RpJKNJy1QdrmO+wycvJlnypYG3FWc3zeS0a3TyupXvoufehwKEXW6JoGl9YUnZxpx9qilnKe4i4M4Xij+USQXw0Rv2/OzElJaxTQKio1hQAPBpWKKpmeMQeAkZiewgIe+SGOhoRmJ+U1Jn27lW71J0bavmcAwZQz9/PoCP+/jjFH3X0Iewly60jhg75+JCEEEf0rPFeBWXXR5st0yPatEESQvk9yNJSO+Rpc5LMieSVb2M64JzGmdjiQ4yCxulNr1lr/r+odN2xhcUVoGUYiDywKY+A7zZLpqtzMtLPzs5KVYsHA2akn5H1pgCIYSvoczWUBoGOioAxAGK85ZcMGdLD6XC8w8yh2aXtAB6OXr2o+62/oV5P/ZMST2vlg3uS30DZYR1xwZsPbzdpv82Aeei1OUNTF1ME/7h27/WSuMhOkcyUQJLnriwum9SQTxKd2XDt7yy81v9ao1mxujytsKRinmV5P4VOPLU1WhtpdVLyQ53Ik5GbkTbHRr6gSQV5tTwAUlJYn8egK2IYhAkBw9YuAsJuBkMfPQi8PWDAYd7a2sWYgz4pVFKJHj2o6/VTvL2ef5E6T4BecrT+vRchZeAbu2gKvbJk3QQSlKVJTlCq/2DmiCqBESNG/CDYMxHKx60tJwiZKcFifrWotPySFWvXZuE+GdH+g6RvRgxLW+OLUG06BM/CAyxoFcC4iPHni85uHAyx94RFublZqb/JzMzU/jqf3XJaopckWn8YGzKyMQAaoDBng0BrCIjWEk1a9CKQ369fb4dl/RcjRu1PxrZWG+7Shbpe/VPq9cycl7tccvkWTkhojbw+TZLc7vTuC2gVej0DzX8WWdM1SVXPv6vWKZ/XpQ8lXXZGRpWw5DiFi02+cZYlXxIe/qtuPmb5P+h1NP+POQ4s8JteK2rWMfE0ZngYfkwO/MqiChgS5+VmpZ8JowNGReCsgskpyHLq5GdYxDp0hqZ9IWBqYx8BYT+LydHWCCzu27cPORzvQY6jcQQVODGRul56OfV64cX13a64aqyzV4+boTi0RqF4eN4dPnx4bVAC+MlcsLbiLGbW9nCw5KeC3XHOj0itJmcfmb6aWFwEzWwLF8YfCR7fKvNGiVaj9/8xMhcFpeVXJf6wr5Sl/BMx622T3Iifr0tJ/AN06V3bOzmG52Smv+mLJpJxUjridMqD3JYOnaExCHR0BNCHd3QIYqv+Svl7ofyhL4YHIzk7nfUufrj667pcP+W+Xb2PGJadlf6O10vaH66RJD4MRgadvGzJ3+nQHaCpi4uTDx+4brNTbkbqu0LyZRBAa84adLaDk7je86IMpIKSiuUs6Xkmavp6hm2ujTLUf7GPj8zJSr9/9ODB2l9AbMQh9JcsnVpMJdDQIjRE7QcBU5NAEDAGQCCotVEepfw9cXH/YyGODFgEzOmruf1e/3qZut3666+cfQ4/Ljcz7fcNnTwUbrY2b6aPtGkDICwsLj8R2U7DoRUsphePSkur1CIOM1F2VuprmAq4DCNobxiK+s7r8DoKSsoXob2WCKaQbOSj5LQkFcK4PCUnI9Av9ikuYTqkpeUBgBfECpMEhq1BoF0hYAyAGGnOpYMH97U6dSpEg2UEIjKMhvrV/L3/OUet7veIXkfMjPfsG5Wdnl7YmB/mT7WmFSRRrXfXNlur3huXo3l9jyYd9KyUTi9pz6Hr8g2GLrd+Uxy+Hi760CokKTtLL6/AiH9sMPI1y7uZia/LzUwdlZ2RGnbPTrOytW4l600BkIPweGqxNETtBAFTjcAQgD4JLKPJFTkE8tPSXHXMFeTxJNkttUHxH/HMc6Te53f07/8lO+SxUE7Tfc3fW5KH6JSB0e3acG2zq8pfsabseGLSfideEue35QI1JbOvIycr7TnB4gZYKKHzBDB3wig9NL9dKfeiLWfuc8jM7MzUZ8E3tMaKL1ACjJO6iwAtGbaplwBFN9kMAlGJQGg6kaisWvsQasnEiQOcnTqtptraLrZqxEyJJ51Mh896ul7xO1MGeCTJmV2dfGzzUX9jviw4tfF9S9cOKcO6Gtwh5H0tle0rHg/y/b7ioyFuv2Il9Q0DrY1sIiGzxB8RzyNyDlPGYFsunCTtP47TIZXMP+jQGZr2goCpR6AIiEAzmnzhR2DZZZedZ23YWO7dtq27ndISjjuejnjsSep5z30UNxgDeklriPlE1dGnp6fva4nXp2VlqpwjWkpvHC+Fo6TxfSivC0orzpQktDfEkUSLMdL+OJQyhJpXdmb6XBJ8PjwBYd0uV0du6P6PhHAcn5OZOjknHB/t0REiABphkdYiQDwPewJgb7IYBDocAsYAiNImf/eyn/xp32efvWZt36Y16lHViB9+1P79+v/4AMUNzYCukZKJHt2e6BiZk5H6haJp7ejsEdrbxEppuVvjFWiahMhs0R/t5IeL/f/s0LcVbc7Q1AUsxNmYof62LWQAtOuJ5OSczLRTsjOGfN4WMgRVpiCt7xcIScYDEBTQsZXZSBs4AsYACBy7sORcRuRcOvGcRbUfvD9d1tZCf/svJu7I4XTYgw/R4Q//neKPHrE/g6RvHUTnZmem3dywwn9/Qsv/vWRpjf4VB0lcpc6hPorWVpxLLLU3N4Ic82NJmWVnpH7ocFjHsZRh86A0bxNM/XzPxNN3JIphOZnp85hj8zU5tLXyUDWv3iH3knn3IZEmwiBgEDgEAXFIjIloMwTenTgx2XvqaZvqigq0VnfHZ2VRz3vvpyMe+Qcl5OQelBuj6Pcke0aMyEpXHwg6GO/vggUf5o+mIT1Oht4AgNzCkvLehjL8nUEvHZY1wx9dtKUfPXToujgrUW1u9H54ZZN7JMmZnOBMzc5MnalrCIZXpsC4z5XSQdLS8gAQe40HIDCYYzCXETkYBIwBEAx6Icz73uVX5nkq3evq1lX098dWzeurFf2HP/o4JZ6gXpU/mKNOjfRyMtPG5GZmVh+M1byQFmnvIMdxcrsmW22ywrXlPxHE2hscMck3RgxLL9AuIIoId3SnvUT8hiQK/WhVSi+eg2eYraG5menTcwYPDnlbUYT/hqxb15Xxp1Wsl80aAC2gDFFHR0B0dACiof7LJky6bd8nH75tffdtfGvy1Cv+GffSEbOfqX+nn5gPkkORbCBJp6uRHqPnP5hg44KF1PYAWET7bLD2S6r2sYdjWnvlP0b/loMcd/tlHGUEq1at6lpYXH5b5x9q1hHJv6EFu4ZSRIz4v/eSvArPwfXZGRlhmaYJpby6vBKk1HL/1/MTbDwA9UC0/3+mhsEhIILLbnIHi8B7kyY9ue+rlQ9SHQbvLTBzDBhIPW6/g4548ilKPPkUaqz4qf6P53Umz9HBroSXkrUXHNYxh9QA6PTDvl8T8QDS/WOed3RW6le65G1Nt7yiokdhSflddY7E9cT0oCTuFw6ZmPhwB4sXC4rLPlxZXDYJhhKHo5xI86yTspt2mVIaA0AbLEPYkREwBkAbtb4k4iXjJyzYV1g4VVoYT9Ohf46+/dSufdT7qWep09ljiRyOpkT7Xb3TszOGXBKKz7NKSdqb1dTGx9v62E1TwZveffXVur5AYFrT2FbuUG8prHtaoYiaJPVp3qLisntEnbUBQt0H5d8L57AHeIFOspjfKiop+6yotPx8GAIx/VuXdaTvAWA2BkDYn7BoKMDIECwCMd0pBFv5tsr/8QkndFp65pmrPF+tzPMlg1L8PX79W+o950VS+/YfoviRCR361+jkx8DVOxNn2BOIDDKAj7YBEF9b2+p0hR1RPPHWH/Agao/wLKaXRw4dWmynjEjTKqOmoKTsgRrHvg2S+f+YuGekZagvj8UxMOxegxFQUlBck2MVugAAEABJREFU/pvPiou13/Sozx8l/wQ5tJ8PSeYtgChpNiNGlCOAfjfKJWxn4i0+++w+PwjHek9p6bDmVRM9elDX66dQ73/OoU55E8iX4q/PI/kzh5NGZmemLau/D9E/zB9buqziLEu7Q26N58o15cPJkte1RtM4TRLVkpdnNI6Lpusv164dUlRS/ojH6V3PxNPwAwsJTsHXkdOZ6S8J5HQXrql4oai04uTgeUaOA7P+FIAg67vISWZKaisETLnBI4D+KXgmhoMeAovGnpMmtm0v92zc0LdxDtG1G3W96hrq/cJL1PXSy4niWx5cQwHO6uq0ThuRnh7yjXjQyXoay9XaNVwF+i7ZVhh5BP+VmB2tkDRJYsmPjTwyrbxJZBTcFJZWHFNYUjHP4+UytNFNxNwpCsQ6RAR4IxJJyCvgQfqgsLh8NYyV38EgSD+EMMoipJA2PBf8TZSJb8QxCEQlAsYAiFCzvHvKKbnsrljl2Vx9cETInTpR18uvoF7/guKHAcCdW33NuY5Y3pCbmXZjeivb+QZTHZakvUOdw86irBaEKiwtP0+QPLuF5EOiJclt8Vb8fYcktFEElCivKCkfh+M9kvJzInkRM4f+N2XJhfCSPIEyYHeFsLJMw2Cs3AuDYK0yBgqLy2asWF2eFsISQsdKUh9dZkKy9nOsy9PQRRsCRp5QIBD6zioUUrUzHstOPz3b8933H1s7diSoqrHTWT+3r+b4u157PYmurb8JphQfGmpcTkb60yp/uA5LyC26vL0Wp+jS+qJTr/1Jix/yldZinOS7jzwy5fsW0yOUAMUv1Ap7tcAO7bIQx+hwFs1MD+cMS/85C4fa9GFFWMqCMUDMd7OQa1cUlxcUllbcX7B27anLli3T2n8/LDI1YsqkbwDUeIXxADTCzlwaBFpCAH1XS0kmPhQIvJOXN6r2m28/s3ZC+TsclDjmbOr13L/qV/eLww73X4SkdXB/njQiM+09/8TBUTgs51ZtDiyCGikm7qn9LbMcrFue2jrX+mH7k7r04aBTr/KphXRFpeXrLOa3iMUx4SinGc/vPD/sqF/rkZ0x5PPsjNRjSPJPMHJXbxU0Iw3+lvEnmHLgbbiDLfF+z34p3xWUlr9aWFp+w/LS9ZkwfqCLgy/HNgdpaXkAIJ8UNd+ZNQC2AY6tDEba0CBgDIDQ4OiTy9JJk46RGzd9BOUfn3ja6dTrmeeo57Q7ydGvn096H5GfiDg6IVIr3uvi9D0AQlLABsDyVRUDSNLtPurbYpR0iNtGjRpV1yJBGBOWl5WlFpSUPaBe5WOmvxDxQIrc3+uN682wmnKyUv9t7d4+FBhOhcL7OqyiMHVnSRegrNkO6S0uKqnYjumCJWq6QHlBCtevj8zbDUy9terJtL0xXlp5DJFBoIMiYAyAMDX8fyddcIynouIjZ1pa/BGPzya1da/TZcdrzvP2dkk4c0RaWng7+Eb1H5WaukMSa71DLSUFvHBMxMm/MckujYpu/VLS0pyhqQtaJwptKhQrF6ytOKuwtGy+8NBaJp6GIzLKrlFVLKJXG90evFRKLicrbTYnOjMwWr8H00SRmRqBQUBMZxGmC+q9IPu836woKfuqoKT85aKS8t8VFVdcoBYV1u/df1Da4C8sYi0PABOZ+f/g4Y5yDka8UCFgDIBQIdmIj3L7e+PEO4fNuC/u8Jl/obh027ryj9kZQy45MSVlbyO2kbm0rNV6BVkjAunkV5SUj6sfUeoVQlBuXovFb3TJg6UrKytLgMv7Kri8V7Ill5DkiRh1t8nvBEp9W4KnptWpH7XPf05W+ozO5B2EusNI0ffigD4UwSmIh0PxXiKJ7pUsX1WLCoeWlO8uKKkoXFFS/nphSfnDRaVltxYUV1xYWFpxzFdfretrt2Am7qWXh40BoAeUoTIIkDAYhBaBZf/8Z2LPG6Y8evj9D/SMP/poW8wx6kSfT7/NyUz7HZQO+lNb2UNCzIK/1GLE3CNt7XrtD/conitXruzCkh9X17oHRn7PjswcoieTLlMfdAVr1g2Ecrp/t4fdLOl5KJyjfJBFOur14cOHa+24qHaCxHPz5z1dEocQy18SU5u+KimZE+HlyUYHcx5Au1lKfgizF/+BQfe5J87aUlRctheGQdUKeA8KiyveV4ZCQUnZM0Wl5X/B9MKdBSXlNxUWl09RR1HJuivAQ8sDADqzABAgtOdg6hY6BPD7DB2zjs5JjYh7nHjKi3FZw0+wjYWUXhY8NScrDXPMtnOHLAOU30pdZsKyTtGlVXQyscs9UALaC/8sol3xHvF7lTccBwwugdH+eOXmJ/aug3K6A4pTc6RpTyJYcwWw7mbaySWJ59mhV7TKa5STkf5Y9tDUDOA3Hjzmo15elRZNhzIQIE+SgPcABsupgug8GF3XSkm/IeY/MtEjxDRLHZKsF4hIa68IJjYGAMAywSCggwB+dzpkhkYHgaFrK/4GBXqBDm0zGo8UfG1ORtpTzeIjfstCaBsAFpP2bnIristHonO/2U6FhKQ/HHXUEP03EzSZq4VrhSUVNxeVVJShvfLD6eaHkfGRkPKcnIzUUYK51Y0eGosvSfp1/zemb34ND5I1MjNtUW5m6jlSOlKJ+U+QJWLrSZrLE6l7yVQZqbJMOW2BgCkzlAgYAyBEaBaWlN8HBfcru+yQZx8zTc7NSJtjN2846Ouc8ksoCgweNbizPF15PfxRHniXXBk32u+UQwF+5f1h+yP+eNtJhzv5xMI1FS/IGu8WIvkwMQ2xk1+bFt4csmiusOTI3Kz0k0dkpc9fvXp1nLToMl0eGMm+quv+98czd9iQjTkZqXfu2OJOhoLMI4v/JYl2+8sXi+kw6DbFotxGZoNAWyBgDIAQoA4X8i/A5i4cNoPcI5jGZ2ekvW4zY9jI1ZsAmLtdoVMAS+6btnbd6f5oe/ZPuRX1zPFH15AOAwR6in+mVro3xAV6Vl/j2z+fXFYEhf8RCXkFDK6EQPm1mk/KvUz0pNdJGTnD0i4ZMSy9oIHe4+g0EeVrTy9IUe/2bsgekvPo0aM9uRlpC3OGpV5p7e7cV0q+HO73t2EMaK0zCIkQYWYiLQ75FtlhFtmwt4GAIQ0tAsYACBLPgtKKM+FCftguG9XpSuaLsjPT6jd5sZs/nPTMYpEuf5by0tZo1cdxMNqe0RpN8zTB4tmczLSPmsfr3sOAEOoVvqKS8jm1jppKKOVHiHmEbn67dCjva0lypmRvGtrzZ6PS0yua85Asr24e1/K93JiTnv5By+nBp4walbQnNyv1pZyM9Em1DtlbSr4I7fRPyBnyKZfgpdXnIAQZD4A+XIaygyNgDIAgHgC1oQ1b8iWw0HZtgxb9rPRilH2FGo3V30fZPxgni3VFguK7UL061xK9V/KTRKw9902Svt0na6dRAH8ry8pcRSUV0wpL1pWjXZagHleSnbLJ3h/qvpaIb6npmjgoNzN9em5mZjX5+FtZXq5WsI/3keQzShK/wMzSZ2IYIo9PT98JY+DVnMz0a3OGpiXBWDqWpLwHRX0MIWLKO1C3O9GsAUDDtc9gahVqBIwBECCiy9avT3Q4rVeJSW+HsgPlYLRoSRJXorOddyAq6k5lGamfQrlt0xGMiQ/b5aWxvmgLSsuvIsljfKW1Evfb47KyvmslvUmS+qZAYXHF5UUla5d6PbQRcj8A3Tm4CVEIb9B+EkpxMTwfY3My0jJzMlMfUSvvWytCeuVPkB6HQys4SPxLizAMRDA8rJyM1C9ystJn5GSmnWTt3t4VD+wotPN0YonpArk9DMWGhiWMR+XZCA0zw8Ug0P4REO2/iuGpYc99nseJeBTZ+FPKAx3pz3LherWRLeKkk5m9bPES7YIlHbK6v6CsrDdb9FdtHopQ8v+yM1OfV5etHWrhoXLxF5aufa7T7n1biOWLMKrOhPIK4/Ms98DYmy0sOio3M21cdlb6OyhPtiZnQ5pX0rUN1/7O0pKfj8gcUuqPLlLpah3GyKy0FWiXmTkZ6ZN2bHb3VgYBsJhCkh8jy/qQJO2MlDytlWOReQOgNXxiPc3IH3oEwthhhl7YaOFYUFJ+ExH/lGz+MYtbc7LSZtvM1ibk7KCXdQtm5jNWrCk7vjE914mHiEl70Rvy1rFl/Ry8WlSqRavLjiwsLpuRVlpRzvW79ImrUUZ35A1fkLQORtv0WukZkJORNjX7yHTNnRL3i1RYXH6iINbeMEkwq3fe92eOwv9qIaEyCIDFUzlZqb/MGTb0FBgHPR3CSmXJF6Lx/g8GwZx6w4DI55RIuKqFZ8csAAwXuIZvu0RAtMtahbFSqkNnor/YLUIy/SMH7mK7+dqKflt15XyUrd2BC/Hjdr1FxWVj1Wp75NcOcKn/1ZdyXYl5/cKSiptXFJcXSAevIua7gb/a9labt11C5amBEltKJCeXZaYOhYKbeZyNaYlm5U1tdt/arcfhEVE7NdSS4FC88uihQ9dlZ6W+lpuZdm9OVtrVyjDAFELy3i4Jndkrh0vin2F6JqzTByzJLABsqZFiPt5UIBwIGAPABqorV67sQoKUi1p7PlexR8e0aEd15a3qOlYONdIjZlVXPZGldX7hmop0tcmOxaze+dfLBypJtMHzQ5d7cVkfviovT4HSv6WguOxDNa8PRfywYNJ+jbCeSSD/pNyBbI8IEplQYmNyMtPnqekQxAUUvvxy42GQ/WIbmfOPCsPGRzbKDzmpqKmJg+F2GZP1VybuGfICGjGEgbG+0a25NAgYBPwgYAwAPwA1TrbiOj+IkaG9z+BaVCwTHZfVK9TGzGLg2iusZ+pHwzqyMjssYd1t7fP8g4m0P3uo+AspbxSda3oXFJf/pqi0/JO6OrkRivNvzHwSjrA/o2renYmv8/7QJSknM+0WjGTX6lTZH40nvu5KYu7kj64hnSXbMpwa8kXjefny5XGFxeVT4i1SWN5FZONNEArsz0FSlRVYZpMrqhEwwoUHgbB3ruERO/Jc1aIzyXSjzZK/sySdo77YZjNfVJAfeJ9de58ClnS5IFYr3rXlh+L91CL6PbF3PTP9RUo6nvGnzSBAQpS5i5hm1+/WNyz9OLj5nw31CnKMSG/QFQ/1dq/NHLJQlz6a6VYWl01ydO2xGvjOYsl9IyYrO4wBEDGwTUHtAQHRHioR7jootzZ55T+hl9hGWXWgP2/kkWlt+lU2G/L6JBWC/+EzwUck6msHn/0cmE5APjXSt593Pwdb/zHdUAAvztQu5EnOyUib2ni3PluM/BAXlVacLOws/iP5bDDTDX7EiUiyWghaUFL+P0wBvUXE6RTZP0/d7u/XRbZIU1pkEDClhAsBES7G7YrvXuvvzOSyWaffZWekfmgzT9SRjxia+oZFclXUCWZDIIzEt2M0OpuZT8nNTBuZk5U2OzMzc5cNFvZJLa/aHlorH6ZBLEs6ntUijkKilSXrMgpLKuYy08ew4k4JnYhyObD5Wo+fXK9eWdSjNVQGAYOAQsAYAAqFVnCOpwIAABAASURBVA7l+re7oh2jzMVQ/rbfFGhFjDZLYmYppPhTmwkQaMFSesmScKnLyd0c1E+N9tEmETHIikpLkyWLC3VFB8SLcocN2ahLHy10y0tLexWVlD9ikQUDUV6MZwX6P3jppKQqkjQ1ztNjNLhpbbRlSTbuf4DVHoOpU/gQMAZAK9iqDWfIsh5qheSQJDVi8Xgc16AzxDTzIckxGVGWOeQVktaXsSA8RvtrSco7WVgDc4al5+Vkps9LT0/fF0nZpXT8DOXpvynCIqYW/6m3YYpKKqY5LEcFjN2bUFd7W2Ejg+8g96D9ZsZ7a9RbGLNr43an4nekZVQwcalvnibWIGAQaAkBYwC0hAzi09dWXIuO5ShcagUof4sc4ifHDh+8RStDjBCpuWnBImpfY4TS2Nbg4sdIH8oj/U/ZGRlVbQGv+i6CZHm9btlMcot31/YFuvRtSac+66xW9lsJXcqA+QPAvHso5MHvRhLxPK9HZOVmpk8fPnz4bqr/s7LqTzr/mMp0yAxNrCFg5A0nAsYAaAHdkpKSbujkDr6b3gJZk2jJ/NfcoalLm0S2gxvlCZEOuY1IRtFGK/Vb875Egidau3f0zclIm6pc/BgxQpm0Hei7PXyZnZXvFvHTsTB3rabCevR3FUDpzwK6/XGEJDDTp1LSiTmZqZNHDU/d1JgpE2kb3+YVwMbImWuDgB4CxgBoAae9HHeHnY4cWmeD3N15RgvsYip61apVXQtKK84sLK24u7C07J3U0opt0ssFRDyA2vbPA4X5DuaHr+lEXjWvf3nO0NQF0aRALSLlEtdFqU6w90ld4ragU28zFK5Z+wFbcgkTaytkv7IylUP5X5CdkXbCyGHpn/qml0f7jj801kuekkNjTUysI2DkDy8CxgDwge/yVRUD2LJsubxZ8C9D/R65D9HCErWypGRwUUnZ5KKS8kcKS8qX1zkTt7GUSzGXPoMkj8FD0i0sBeswlTA9yHqXJE31srf/yMzUsTlZac+HfRW/jmzNaAqKy04TTNo7Fkqi17LbaKqimeiH3BaVleUUlqxdAPf8ByTEyYcQBBghSW7HiP+2uLqaI6H8X2+VjSQ9A0DSt7mZmdrbVrdapkk0CHQgBNC3d6DaalbV4aRpkjlRk5wwj/uqGonq0rclXUFJSZLaqEV9VAej+/lQWlstcq6TxK/I/aPXkZAvRIu6wCmAAKVj4fiIiG+p8zpd2ZlDz4LSnz0qI+NbiuI/SfxbW+JJ+Ygt+ggQLy9dnwlDcI7loeVEIi+ERXrwQ5ntcHJGblbaXzHPX9sab7X3BgyFlNZoGtKYrZUN1+bcnhAwdQk3AsYAaIbwV1+t60vS0v7SH1y+u9hBt1CU/X1aVta9qHTdsYXF5ddgVP8gFP27BSVl25icVRbzW8R8N0meyMx9KAr+JFEtS1qE48Y4jyMpNyv9ZMwLPxIrCyrVlwphCNpRmCtQx0+iAPp6Eeq/v1BaPsshvV+hLa7EcxG6vkHSUofk3JyMtKkj0tK03uuXNZ4RkIHrhfPzz5IOYwD4wcgkGwR8IRC6H7kv7jEY53V6b4Fy1N+/nfn+EenpbfYZUmWwYDR/ekFJxY1FpeWPQuEvKSgur0zw8g4prc+I6Z9ohtvQmZ7BxGH9GAvKsRWU8UQWzZVMl9U6ZO/srLTxOGYdFYMfxJEO+g0wZl0AUOdHdWnDSVdQVtYbhuED3jq5liRNQVlOHKEKnwgWp8J7M+borNSv7DBlQdqfUIbhZYu3HTkMbdshYEoOPwLGAGiE8bL16xMlsfYrXOgwv42v2/uPRixCeimlFGpTGYzgTyosrrgciv6OgpLyJ4uKyxcWrilfg/s9njhrCzEvQyf4hJT0K2I6i5ns7loYUrn9M5NlUIB53aH0c4alXZKbkfby8enpO/3ni04K1UZ4brS/gSBZbu0m5CttWZvVqysPx/MzQ3q5goltTXn5lVvSGiI5OScz7cQRGUM+8Evvk4D15v+Rl53SeACAgwkGAbsIGAOgEWI9a7yXQIH2ahTV6iVc/89a8fF9CovXD1KffvV1rCwv7/Pl2rVDMNIatqK4fGRBcdlp6pUqjLouKiyp+AmOm6HU78W86xOFxWtfw/X/9iv38q8LS8o9UjqUd+FDYvkiMd/PRFMl0zgSlIV7bU9FqxWJeCKns6Tc9Ahv0BOuaqKNbkK7xOvyF5Jnt1XdGzbx2eeoqcDzczc6gJAt8JRElTCKp5Zlph6dk5k+TxcPn3SSRvqMPzTS04WUwXFogomJZQSM7JFAAL//SBQTI2VIS3/0jypJi273WgIdqXe9N77ue1+H5aGtioa9vFowLWfm//L+V6rQQcp/YaT0MBP9Dp3njcTifFyfsl+5U2/GH4ppr+E+TFn8BV4OVDl2q7i8oqIHSTlVtwYsZU2tx/G4Ln2o6FatWhVfWFw+RSZ0LpckH+AQTgeB3/fgN31HgmMo3P2z1cZRwchdv5kS0VE6PCySJW1lTOnIZ2gMAtGMgDEADrROwZp1AyXzSQduzSkCCGDK4jeFpeVPqx3mIlBcWIpw1klMu3APXeZS8JxILmyEgSUKS8ournV0KiGmWZK4n66s/ulk/da9nOBMzc5MnTl68OAa/3n8U+yRMpuJtDwqwhJF/jkailhDwMgbGQREZIqJ/lJYWFdgwI1+J/plbU8SMvG1PfqnvKemSmKtXsqdDiPmJm25pfSSlyPykSi1e2NBadmV8LKUEPFcZjmYQvdX/0qfJG96bmb69JzBg7eHjjWRJXmUNj+WZv5fGyxDaBBoioAxAA7gIYkvOnBpThFGgIlOserok5VryrVXfkdYRJ/FyYSuv8SoWutrdfUMWLyWMyw1rHvWK29KQWn5Veml5cUseQ4Rp1OI/uBNkJLpNS87jlKv9IVr8x3IfZyuyCy4hV0EdTkYuuhDwEgUKQSMAQCkC0pKkkhaI3DZ4QM6eYssKsY4LJ8II1Z7iHiY5Kv2shygZhriEfQxpgTOOxAT1afly6s7W9L6tS0hmR60RW+DGO0mCuHq79HftZolPU8hVPy0/+8Th3CclpuRduGojMHwKuyPDMt/KY/R5Ovhmt2FmrSGzCBgEGiGgDEAAAizc0IHdv9vJpZvk5T3CCnPqSNPH6/DeyoRYzTODrLzJ+X/jchIu1iSfNZOtgZaPIzdpCVfgxEwSynYhvhoPDu7/XAjnpk+urIxWe/mZKR+oUuvS7d8+fK4opKKa3HAswBXP/FQ3bw6dGjLr0jwxJygXunTKWk/jdrAyiLSqoMl6asRI0b8sD+n+d9eEDD1iBwC6HMjV1gUlzQ6imULjWhSejGiV+/fvwaX+724Pk+SJxkde1JORvqknKz0GSOy0udvzMzc7iDxbyIeQDb+LOJ3sjPTZkIpyh2b3VOJ+D8UwB/yM0ma4uiy+xP16mQALMKe5ePKyk7whd9mqyDJIR39K8VfWFp2vehyWCmU9DMED4otefwSy01oh2tyMtKyI7nNdScvj8IzIPyKBwIH02c4mWAQMAgEiIDWDy1A3jGTTUo6OWaE1RJUbiSy4MKnP0uWVwlLjtye6Oyak5k+NDcj7UIo6v/D9Zu+5nDT11b8gSSP0SrmABHK2Or1iKvRcVsqavTo0Z6yjCGXkiWfUPcBHSyOZi99UVRcPhXubdgsAXEJS6ZOu/f9Aoz749AKkqhgRGbaO1rEfoiU4ldz/I5uPdegnZ4K8eI+OILk10w8fXuCMyMnK+35hjb1I1bIkr3M2r9F/G7N/H/IkI8WRkaOSCLQ4Q2A+i//EWl9dCSSDeOnrDqM+Mrhul8C5TJLddhEcjJcoqP2OWQPKPdBOZlDJ+Rkpk3LzUh/YcSw9AKdV7TUR4Lggr/DT9lNkqGcLfY6rmz+attkZm/OsPSfQ77/Aw1OTbJp3nBnyfTkytKyJcvLylI1M4WVrKSkRG2cM81OIXBp/AGKNEAM9pd0UPF37lnMao5fUtr+lBD9l/Steo5quiYOyg7hK312pWOytA0Ay2F9bpe/oTcIGAR+RKDDGwBOB2lvOfojbOG5UooSx9dQeqtxfg9KHa54egTDsrtI0k+Z6AySjsFlGamd4JpNz8lIPzs3M+1G1WHnZKbPG5mVtiLQLXVXrC5P8zLNgaJCMfr1wwN0X86wIUtaygH57iWmG5DuwRFQkCTOdHjoq8KS8tvVKveAmIQo0x6OuxX16aXLDkZZYXZG2lu69M3p1AY+9SP+BsUvKNSG0Hd4vu7Z55Sp6jk6MSVlb3MZInWv2taSfLxOeZj22J6bnl6qQ2toYgcBI2lkEUD/HdkCo600SZbWjmNKbkvKF5UixlDuZhz/J0nObHzUu7yZZkNBHDygTZ+sp2G+GzymIf9UCbc8YcQuBY8RLE51SD66zuPoX56ZFpebld43NyNtOM5nQqn/JCcz7ZacrPT7c7LSnsvOTFuWkzV4gxpdg1fIglpwxw75GtvdHU7y/9Zmpv3BnyC5menPCCkvQJ33+KNtMZ1ZbXs8s3u/lM9XFJePbJEujAmrV1cezpZla+W/YHkPjCo8LvYEU3sMFJZU3FzrSKxgNeIPseLHM/k9JPpdJ/IMzslKnxGo4QgeIQs9kwbkoENSHhYNnvwZcLU0CA2JQcAg0AIC+L21kNJBoi3BWiuOFRxQkrNzoIhzM9MexXFvbmb69MaHcnnnZKRNbXxAaf+sniYj9Q9Q5n9G/tm5cMvnYMSeOzR1qfpYivpSmnKhh1qxK5l1Du76w2wof21DqJ6npG9YeC7XlVktMMTo7lQpeX19/gD/CaYcJvl5UUnF0+pLiAGyCShbnaj5LTFr7/pnSbI9+ldGRkFpxf9Z8V02wGB6mJlC+2EnKXeoEb8VJ4bkZKb9MTMzc1dAYIQhE9tw/6MdPg6DCIZlmyJgCo80Ah3eAGBLaq92hwdgTaQbKNzlFZSU3ySItb9kp+TB9ITFJK/MzsioUve6x0hMUTjrnGr0HrBLXJXFzAIj2Os8TmttIaYFlJtcxYfzKCotTbZY/MpOGUKQ9ty/MmYKi8tm1IqadSzlPcSkPc2gI5Mk/gGYzYy3EofkYMQ/KjV1h06+SNJIS56iXZ5lva9NawgNAgYBnwgIn7EdKFIyJ+tUF53ntlEZGd/q0MYKzYo1ZWq+1fbraUz0u+ys9MWB1PPoowduy85IPY+IbyGiOhyBB6buyDyzLi5xtdoEB9dhC9Jy3A+jp4tuAVC4RdlDU9/0R6++FFlUUv6I1+ndQGqayIaHwR/v/elyDxM96vGINOWJOvLIFOX6358URf9hVEJMcbKOSDCQanYkOs0rgDpgxRCNETXyCHR4AwBDySN0YGfJm3XoYoXm81Xr+wnBr6LXjbcjMxTbfExrPGAnT3NajOBlTmbqI1JYZyGtGkdwoX5FPM9dUVL+3sq1a48LjtmhuVeuKcuFAXjFoSktxzBZM1Q9W6JQ6xgKSyrmebxcJolugiGa2BJtIPFKSaopBGedYwiPMN0PAAAQAElEQVTa62Y1xRQIn0jl+apk3XBi0tpWGVh9pvNWS6RkN+UYBGIVgQ5vADDJrjqNJ5m+06GLBRr1Slmcw3oFsibh0A5QVBvqZO1PW1Ns2sxAmDt06P+cdSKXJS3CbdABD/Nor5c/KSxe+9qKtWuzgmZ4gIEl+CHUGewPRPg/fZKTme5z9F9UWnFyYWnZfDx3X0BBX2STr9+S0Ua1UKSzSVhpkOHWo44astVvpigg8DKdqSsGjBvj/tcFK2bojKBtgYCdTq0t5AtrmeqLaZJZa+TFltwdVmEiyNzZ9bAniOWptoqUci+xOO+4rKyQGkJKQWVnpY2HMpxMkoKeYmH8EYvz2curMMKeq1zsturZjLiouOICRJ2GQzvAq3JXY2K4t0VRafn5BWvKPsP1ByR5IuOvMU2w11LSPij/WZaH03My0qZm21yfEWz5wea3pFTeIC02gM4YAFpIGSKDQOsIdGgD4GJondbh+TFVCuH58S52r6AUb4Y7+zr7NeCf5WYMCdunVzFanVfndRyFkXFgHxNqViEoCTzb8mKPV6xRc+wry8psr6ZXiwulkDObsfZza+XD5b5MES1bvz4Ro/3rYUSsgoJ+jQUfq+JDe8g9eIwfFsKbmpuZduOo4ambQss//NyURwqNpbUAEEZObd3uzmYHwPA3S0RLMIW1DQL43bVNwdFQKpSERVJ6dWRhy3Lq0EUzTcHaCoyy5F/syogR7ZM5WWnP281nl17NU2dnpl8kpDwHCtPWGwYtlcVMCVAaN3m9XAFDYI7a8Kgl2ubxtY7EX5Ek7R33MLq32MG/W1le3qeopGJaz33eCpL8FAnKas472HuLaBfa5VGvFVfv6s+OsRF/4/rHdTv8eExbqAWdjaN9XuN3+PmoUUkwenwmm0iDgEHABgLCBm27JJUsarQqJriHFl2UEtUrPqt+3t+WISMt+XkXh1Qr9iNWM7VngLMu7iiL6TkoVRmKgqEs48HoSuGgNQUlZc/421p4eWlpL0yT/M5O2ZJ4IczJX3nraBO8LGqhpK01FlplSfoWdfm9SHAMyM5Mu3nUsEExvzhVWl4Yplq1Jxai3ruiR22oYgMBI2VbIdDhDQAmS2veGR16r7ZqpGDLrd+/3iFfZ+LD7fCSLLc64ujC9PT0fXbyhYJWvS44MiNNLThUruEVoeB5gEcccLjW4eWSwtLyf6vV+Afim5wEOe4GXc8mka3cSCJLkMwjYshMCRTiPxhCX8NbdWDL3rT7cgYP3h7iItqMnWTWNgCAc0Cvn7ZZ5UzBBoEoRqDDGwBErGUACEkD0AnHHF5K5j0U96IgHk72/uqI5eQR6elue9lCS52TmfZRdkbqMZLpaia5JYTcnSTpMsG0vKC47EO1j4BaFKr4Ly9dn8mSpqpr3YOJADGzLr0+ndxIxLeoj/TkZEXHlr0Uwr8vv9x4GNhprY2AEb59++ZK8/4/AGtPwdSl7RAQbVd0lJQsLa1FU5I5ccXqdbYXkrV1LVeWlP8RinOSbTkk/VK9pmc7XxgyMLPMzUibU+OgDMx9P4hRYG0oiwH/k4h4bmppxerC4vIpDq/nISKKw9F2waIKGChTvbt3pOdkpj7Slh/pCScInjjPOPDXmpYSRO+OHj26XSzGRZ1NMAi0OQL4TbW5DG0qABT7Wl0BnHFSbWOrS97mdIXFFZdDYU6zLYgln8jJSpttO1+YM6gP1ozMTLsd8+xHEvE8eDdgC1DI/vBjyCCmWSR4fMiY2mQkiYsw0r04Oyt1qGqDUaNG1dlkEVPkzNZEXYElh2a/CN3yDF0kEDBltCUC6PPasvi2L1uQKNWVwpLyOF3atqYrLK04hth6CqNbW25pKNWP4qx9EV30ZxerkUemlWNUPJlYHMtkvWs3f5TSf6zefsjJGJKbm5n+H4ZmjFI5QybW/ikXHqvL0Fsn3tGlNXQGAYOAfwSMASBpuX+YDlLkHbyK4ov6zW8suYCIO5OtP7nJEccXDB8+PKQudlsi2CDOzUxdnp059CwpeAyyhXKhINiFP8DYgoOG3pLCOi0nM+0k9fYDFP//s3cm8G0U1+N/byQnIQnlLmeAWLvWyklqrWygtEBJC7TlKhQIx48bylFaoBzlKuU+8itXOFpuCoEWwlWONuVq4M/xIxBLDjjWypISzgChQAhJiGNr3/+NE0IIPnZt63767FrS7puZ974j77x5MztL+S+5NEoIt8/7AWviaSluHg5payrDNQ7YPtmEQMkSqHoHYIJVO4cvLou81BACTmhJZuu8yBZL5tV0+judLj7GoWxP66p/pScSLQNU+zcYxoKvjpXLe6wu9OzKiYIHgwvJUtebCDoQYCoEYQI3/L8olbkWheaWo9weXsskwCFZLtpreSInBKqBQNU7AMihVr4Ye362OCH9olR/GHpFtRE5ekSBvxn/3BMlV+FRdjj0eqna1p9eXI96ouD9PHY+nseKD2anrq2/NIU+z7+djwjxAlfltohaxuEx0/y2joVWqojlEYBnBwBJHIAiVpUUXaEEVIXa5cssF/ExHwkO9CFbUNHg6HWvJ1CeH6rylXLsAF0cCxv3f/W9nN+RHTptS9QKTdBj6i5Bouj2IGRA38o3csTYWDh0cVM47OnWU6jgl16YSnl1VIk+r3GXyvr/Ffx7ENOKQ0AVp9hSK7Xzcd0L9qhVY7y93d+DdDxmPBixeCp7NveoTvCfBz7EvdGL/Kcr7RTaEdBj6jEr1KRn1QOQn7keQ2IcQa5ZOyHRulCd7e1WviEptxwyCQRwP896KvxXucxL8WyTCAqBEiAgDgBXQsyy5gOB9/C3GziDk5XMFk9m9wPXvWwACjXnFq91BDeW7DsMIHW5JFFqIQImuY47CqkyQqDRBbwykcpc0ZLK7gDyWkWAKOfZAUAAPxG6VWXIByEgBPomoPo+XT1nlVKPeLaW3D30anGe5fMoOLu9fTsEdyo34j7rkt7p7ArsWakPVtFr/SeczKUJJ/s2uvQMeziHAcKQL9Hbb9Ui1CPgWRxhepEdgXTCyUxubkt/n7+rb6WtkgNvZjJjCLDJi7kEsLwrKOP/XliJjBDwS6BqL0JrgurCrjuA6Ms1j/f0XTe2Qeq6tKdzhTymx1HdnHoCENfyUy5fVBcTBvbWT9/zk67UZV959921Wpz0oXEnM0N1QZr1PQ8RSmf1xhVPFvy9Uvh/LU72o4STnZZIZo6b1fbWpqxr1WxdXbgf8sujwTOaQqHPPcqKmBAQAj4IiAOwElb3xCzE+1Z+7feNAPdrdjJ6GdN+ZfMhEE+nN1JBmA4Ivm73456ny+Ph/xML187Oh17FyDOeTG/f4mT+stbiZR9wvUxFgJ25feE3KN0XwoZcDwdw/d2isPO9eFt6ZiKZvlBHdFYskFO6qg9WMwL6pfc8UML/3mGJpBDwRUAcgNVwKRemcANJqx3q8yPLX6NvvetTKA8nZ82aPxI64Uke0zb8Zq8UnBGzzMf9pis1+dnO3HBLMn1Roi2TQcRXuNJOAMR1Sk1PL/qw/goVbsv6X+C66lUjlV3IkYFnWpzsWc3JTCP/Jivm//S11nmbIJFeAKhfNGw3BQLuE/0KioAQEAIDIlAxF5YBWb9GooZ6o5VQPbPG4d6/Koiotdc7vXeBoT+je4c4eul93Q2G3+wRbo2GzWv9JisV+ZnJ5AbcMB4XT6ZfylEuSYh/BAWhUtFvUHqslphDF6MBYRfuKV+pEGYlUpmPOdr0KA9tnBx3sk0zZszw9PCc1bIsmY81QfdAQAx4UUgpnNlgmu95kRUZISAE/BMQB2ANZkrl9IQtDpOvcaKXr9ybuZgbpO17OT3kh01n7hSutH38Z+z+a+H8d0/yn664KfS4fsJJH5BIpZ8YhjUfAsIt3GP+Ie/cThZIN4S/I6CeI1KUsWgue31d5wgwBYFeX3fTLT5PJLMvcATkitnJ9F56OKhAJAZdDLnuIV4zIcL7vcqKnBAQAv4J8HXFf6JKTmHX1bWQwnt82FiDgPfOymbzHn5OOJnzAGkgjXiz6vhy0sQyeZSqbvRbUpl9407mfh7X/wQApwHhngBQ+J6vC1m1bMmvolbo2IUjgptwA8w9WHqSdRnKp/Rxdn42HMm/g504AnK2i/g45nBBIpnJJpzsNL0eRKJt7q5z5ry7vp8cCyGr78wAhG28lMXhfzat6yEvsiIjBITAwAiogSWr7FQByP2BAJd4thKhNtBBt3qWH4AgjwcfxRfFS/wnpbf17X4NDQ3e7fFfyKBTOI6zdjyVOYgbsQdHLFn+MRE8ggDc2KKvOxwGrchqGTBvl5CO+YrdxLFjl0Utc5odNveiAG3OOp5MLr22WpLifeTfIAAdwBGpK0C5Ty8PdHzCDtQ8PXSQSGUv13dHNCczjd3zR4qkpcrhIV4jNwjqpWg4/D7ISwgIgbwREAegB7QrLjw0uYdTvR9SMCmhe+i9Swz4TNxJ783jwbd6vXiuKohgkQule7vfG2+8vR43+ocnuOe6FGo+QIK/cyO2P/eyR62yoYgfeAz6pljE7HEJ2phpfhyLGDfE6s3tchiIcMN7MSHMGZC6eUrEDtTW/A++DxCdQ4BT9XwCNWrJ4ngyOzfhtP8z4WT+xI7l0frOg0JEsNCFgz2bqtwHPMuKoBAQAgMiwNeHAaWr+ETDupZNJoC4H0O5x3hJPJU+zE+a/mRnO5kfKwJ9MfQV/ubeaQdf8PdttGrf6K+MQp5/rXXeJhyuPq7ZyT6VG9b5ETf6d3Ojf0CpNPqrWHDoH5ctOWfV9z4+NIXHOtGIeUEsbIxXoCxucM9j8WbeS27TTiQijQVQu7NyZ7BjeYe+8yDQSQs5SvBBvC09M8EOGQ/BXMURhJPj7Hwm2tujgx1SaEmnbVAQ4TL734hyweWBh/sXFAkhIAQGQ0AcgF7o6bXHSbmH8sXc0+JAOpvuiyvhHS3J9G76+2B3Dt1u0wXwD0Ic4ScvdkRchXR4g2X8x0+6fMm2zEmP457mWfFk+qVgoOt9Hge+RQFpRjX5KnMw+Wp+q4f+/eTVYNWm7Ih5uW0ZTUCBsdzYns75vcx7bxNL/WSfV1kC3AQVbgs8lMAO5OnYPekQHwNXJfSQQrOTWcTO25yEk3k+wU5CIpm9kX+jFyRS6ZPiTnr/eCr7k2YeZoin0/VvtLfX6gjPV0MOlMMjvCuPMyZMqP3Iu7xICgEhMBAC4gD0Qa2xrk7fanZ2HyI9narhC+mD8WR6UHcGJNqyJoH7BFfQ2j0V0tcxRHValMeq+5LJ57nZs2eP0rPTE6nMLfFk5j0KYCsBXYmIevY+m5TP0lfLu3sIBL5Y7YinjwrxxlgvoX9PGawUsiNj34qGzWs4rx26csHNEfAYAHyQWSyEMnxxxa0NCPWs+o+0kwBIJwHRhUB4I9v2IA+DPKsQZmEO5+RcleUIz6eB0UuXJJxMJ8v9htN52vh3wkNBnkRFSAgIgUEQ4P/pQaSugqR2OHQDATzl4AZz5wAAEABJREFUy1SE73Cv/amBPjVwVmt2S1L0HBJu7KvcFcKX2VZoyoqPhfnLvVvVzD0/vtD/vtnJ/McdPuozF/FxIDgOETYvjBYrSmFdXC73WSI8BMB9jn/ga6844+0v8Tj+0lHD/Tp9/Waul12OWqE7uW4mff7Bexsh4o7cmF5OAHHWmX9i/WZRzgJBQAx4M4CWLgu4D3mTFSkhIAQGQ4Cvj4NJXvlp+UJNweU1B3Ovrd2PtQx2bXRxur4ly086Dp9uhEF6GgHG+EmnZRHwjmg4dL7+nO+9ub09okO/iWT7I9zT/1j3/LjMyWz3RH4vfGif3DfY/rPdnBprR4xdAWhDQLUv6+J5I4IOAPU/PxgzxvOwj+fMVxPUt2NyPb1kh43zYpbRyNGBzdhpORIBprIn8O5qolX3kcdJHv2+aS6qOsPFYCFQBAJ8vS5CqWVW5Pe+t9VnAQjomfg+Q7c4EjD3mA6HezH51XT6O5DDfyuAsBf5NWQe/+yDd05ARG5D1jgzBF9n66V3nexRPDQxlXv685Wr2oBDv8CNLAIW5Z5zNvQtQLhcuTDBjtQ1cA97ctP40DuJVHYbPn6VX7OVonNjhX1GQreKOjrATsvdUcs4nB2CLQPKDTHTY7AKHYIAwdRuKPJHCAiBvBPgtibvZVREAXpylyI4kI3p4t37hriW7tW0pNK/6yuRXvxmeA4f54t+rC+5Hs8RzlQdSw7RPcsez/s8qJ9vsCKknz0l0T3ZK7PABdfhKMidoOhQzq5oT69jHT5lRlNJ4a48PFNrcy+6od5oZZ26Nz3xjEPq01hmWPcBr38Inm2oM67zKp5Pue/V1c1lZ+bONRyCo12C24AjHUCUy2f5Rcx7frtlPFvE8qVoIVBVBMQB8FHd0Yj5NAH+lhsY8pEMADFAhNfEnczNPa3jro+ttaTjfgD4Ee++Nj1mHegM/vyrxWp8JWbhdDo9vLuxT6WP1bO69W1ggdHrLlEIsziMzg0i6SfW+XriIGc7pBs7UF9wgz6Vbd2dx8837m4Y60LP4hrRDq4XzA3r/CvLbu1TgU9Q5Y7k/LgonykHI+4x7UqH4K7GiHGczZGOmlzHumzjj9kROBdceAyBPvSYVamL3TsJMVfqSop+QqBSCIgD4LMmY1boZqXgDJ/JusX5on38upuMmT4zmdyg+wD/0Q/3WXezMXrp4b35q8+N3gko+pkeougvoW4c421zt2pJpnfjXv2piVT7XxPJdMviHH7R3dgT3gZIJ2H3bWBQ019++T5PgEsA8CFEOKhj1PAVjX7YmN5XlCORyv4BAHxxZC5cFBwbLaNV58aPH784ahkz7Ih5hV1v7BO1zE1VgMYg4V78GzsfmBu4kO22DcrnhTnS/wflo7BoKgTKnIA4AAOoQH1rF9HAnABA2KUGalpaUtkd+AKtQu3Z24HA+wppX+v7icuN/+pPS9PDCLNS8yw98bDFyR7Njf1FLcn2v3MPP96SyixG5b5FiE9xz/5aIHUEIDZwdkVv7FmHFRvBf1m3uxTR3stGDdvItkIHRMPGA14m5SXas3twj/jCFRl5/4sIU+yw8Q/vKYZMckgz0r+DaCT0ZNQyLtXc2DEwlgdhXYVqJ/ZwTmQ7b+Df2bP8u31vSAseqsx4GCs6ziyplRSHyjTJRwiUKgFxAAZYM7GIcTUBXDqQ5Hwx3oIb/xncKM9UBEfCQF7kzgVXXZ5oa38x0ZZpSziZ//IwwtIA5ZKg3KcJ6A5u7P9IqA7iHr4NgCOhJF/0Nqs1hRvviWkrtIltmUc3RMwnvDT6nK57a56TMch170VEf79nbnRqujrO6s6kAv/o2fQN4doXYxy1YkfqZDti7Mq/2zEdAVqHUW1HCEcg0cUu0H2I8CoQfFwsDITubcUqW8oVAtVKwN8Fs1op9WJ3zDLOZyfgj9yY81svQr0fDgJgEwz0hWobrrx9QKkdVi6xumpYYaBZFiodNzitDOxS5VKjbZlb25Zxqh0xn5+E6Hv8t7W1dTQE6FEEXNeP/uwgfUqEB3I4fbmfdEMmW8SMtGMQDde+Fgsb90Qj5gWNlnkoOwjbuwFXz0G5nVXzN9GVEwxqI1gU6Fiq58AMKhtJLASEgD8C3Ib4SyDS3yTATsAlCHgUH+3kXbYeCBDweD7Sk4D0m1yADG5wJjC38xvqzXgP4p4PseOlOtWIexXgeM+JWJDTUYAjL7H6Wh194CPVu+lho3gqc7iOJHXf2glwLNNg55T/Fmojum+gk1gLpaKUIwQqkYCqRKMKbZMdMe7mcPweLsAXhS67ZMsjmAsItyoez1874G5gh829eL+pyTSzQ6UzD6FczdGPX/jNDxGv1sMMftMNoXzRs2pJzd1W3/UxYsmy+UhwN+hIUpG04ouQjjoUqXQpVghULwH+36te44fScru+9hlwaTfuXS4YynzLJS8dUgfAB3kc+fhgELZkpyhkh43jdUNrmmYHDPErkUqfBICngs8X189/Fn7w7jk+k1WEuF5iOpFMn9uSTCeJ3JkckTkJfQ6dDD0ImjXYSNDQ6yQ5CoHqICAOwBDWc2O9+WpNDY/rk/v6EGZbklkR0QIEepgATgHl2pmw8V3bCk3ihv/WCYbxbj6VTqSyu4MLA3jeAb3tKvfAvm4lzKfeq/Iu4Ae9MFKLkz1KP6NBBdx5gHgZIVr5UsF1fUbBEG7Jly6SrxAQAn0TEAegbz6+z+rGb3QQd3T1qm2+U5dyAnoHXLwXEI7LYSASi5gbRy1z/5hlXG/X1bUMZALfQKxNtLdHXaL7Ab0+XGZlKURfKhd+2RQO/3flkYp9m5VKbcgRkmNbkpnpuWGdH3F05k7+R5/IQx/8ljezP0GA85Uizw/yYb0+U8uWypP/8lYlkrEQ6JtAPi8IfZdcwWd1yLsxYhzHY6sncA+5/GaZEyxivZ/nKrqKEA4mV21tW+ZWdn3oMA7r39YUHuvwuYJvccfZjHV5nH+0a/stHFGdVCKhZr+qe5KfmUxuENeT+VLpJwIUmA+Et3Hd/YwT53edB4QM8FCM6liyVU1u+J8J8ADw+ELAO2Tyn0dYIiYE8kCAr6V5yFWy7CYQjRi3cK9rB+7p+HqSYHfiQv1Z0di/yA3GtQB4qAJlRa3Qetyzn2hbxpmxsHF/KcyWb21tHU0UfBIBfD8lEQCmsE138XtFbS2p1ObxZOa3iWT2hRoILmCH826uxz3ZyPw2+lwAEDwLiHtE60J1thWaohvyzkDHr7l+RuvT/e5EOQVdf+5XTgSEgBDIGwFxAPKGdkXGdjj0+rJRI6J8Ybyex81pxdHC/+WyF3Dhz7MeNxPByeCq3VSAxvCY/Toxy9jJjoROs63QffqhR+y0uIXXsPcSZ8yYEewIjLhfIdi9S/VyxqXp6XDo9F7OFv7wIEtMtGXNllT6tISTedl11TuIcD0g7YSIef9f5t9Nh16p0QXVwL+bXfm3/S8ul7RJM+bNG8HnTtKfPe2ETzZY1jxPsiIkBIRAXgjk/aKRF63LLFO9ql3UMk4BhH245zTUq63ldOOORA6/v8xl/J0jDpO5UfgNEu7l8sUahgfWi/GYfcwyJrIeJ8Yixg12fe0zDaZZmsvCwtcvtgnX23TLm7nx3+Prox4/EbTBWsFDJiH6XmDIYwl5F+u+T789u0vcSV+ZSGbmgKJ2IryaC/4BN76F+f8l+Fj/ppTKhWzLPLrRqn2Dy//Gtk6HexQBbvKNg318oSDe2MdpOSUEhEABCBTmAlIAQ8qhiJhlPh7sUhO4ez2Ua88HALGNG4OTYhFzBx6jP4TLOdsOmzdFI6En9cXaHjt2YTnw6UnHFmfuDdz4HNPTub6OseOwACCwR4nZ3pfKq87p5zlwL/93zU72qZGLl32KLj2DgGcBQv0qoTx/YH7ERbxACEcsHBHYUv+mor08MEk/0Ip19B5lIWizzdrnOH/ZhIAQKCIBcQAKDH/ChNqPGi1jX0T4JRc9n/dBbwiwMzsVz8WT6ZeanczP+OLNhwadbdEzSKSylwOS97DySo05GrKMP+5jR8a+xe8lv82aNX9kfGUvX9+jH6Bcknv51yig3QiRQ+sFNeEDdrgmk4s8tm/sHAsb90wcO1bz7FWJuvbs/qAg1KvAt0/8CRG1g/HtM3JECAiBghEQB6BgqL9ZUDRsPJqrwXpuqa8HoiEJUfNF9YdcodNbUplUwsmeosPH3yy1fL61ONmzmIvvBXvY+XG5p3wER0P+r+SsXamQHi9nZ+1H7OBcEHcyM9Sopat6+dzgWyvFCvnWSQiPgMI90+HQGN3bbxxnZLwq4BL83qssEbxXk1v2N6/yIicEhED+CHB7kb/MJee+CTSFQp9H9dwAwJ2A3G+Nq/aduq+zaALQdSOWLpsXT2X/GE+nN+pLutTOxZ3sidwLvXIgeiGq06OWOW0gafOVRk9ibE5mGrVTw+P4z6y3rOszdtaeB6IL2QHcGRGG56vsvvLlSImDgGcHO9UY7unvZ9eF/ul3vkSibe6uCBDrq5zVzylF11TjA5hWZyCfhUCpEFClokg162FHjFfSlhnjoOgJ3IPlseuhoYGEG/NF/iLsgrfjTvoO7nFuMzQ55y+XFid9KJB740BK4Ib0atsKXTeQtEOZRvfwE8n0zrxfmHAyz6+3yRZfKIRZ3U4Nwi5U+LD+KvN0DxwIr2VHabtoxIxErdBkPSy1SsDvB3S99/6BPg12dtzmtwiRFwJCID8ExAHID1ffueqeVzRi3OIOU3Wc+CoCGLoFhBDXQsCjgeg1bpBmJVLpY2fPnj2KyympLZHMHkKAdyG3Tn4VQ3Lvb6gLeW6M/Obfl7xeoIiHXfZtdjL/G3cy/0/38AFxBu8XcLofFbPB5/IBgT4khBuZ647sIG1lR0Kn6ccB63OD2XVUgzPfxWseCvAm7v0v9iovckJACOSXgMpv9pK7XwJ6WMC2jDMpB+OA3Ec5IkB+8+hHvpF7gLe5w0a+zw3ujYn29mg/8gU5zeHxowHce7gw34+iRYJ/B3PLj+AGzuX0ed3S6fTweDK9vZ6ln2jLPJBw0m8jBN/nnvUj/M90JgLsSNjDxL28atVD5gT/5R/OLazPj9vDxhYc4v9tNBx6aSgZcTj/wh5K7uUQLXUDdEMvJ+WwEBACRSDA16wilCpF9ktAT8KyI3W/VCrwfUB6st8EfgUQ1+F8TwJXJRLJzBxugM968825G/vNZijk4zzm75J7O6DP9f25cG7knl86evgvuWc5dBETzldv7Hxh85yMEU9mD+bIyXWJZPbVL3K4iBvRV4jwGlAwCQC3hFJ5dTf6dCcS/XThh+9uGrOME6KWMUNHl4ZaRa6zJnJhD6/5MrM7YqY51GtgeC1e5ISAEOiBgDgAPUAppUPRcO1rdtjcixujncF1X8qLbgj1BHRlV437Ljd0j+lwdmtr67C8lLVGpjwc8WuOdNzEDQR3Vtc42d9XwpkjoWtvvdBSf6JezscdZ7PZyfRe3WP3qS3afq4AABAASURBVPQT7BQtUAFII5KetX4KO0zbsZID4eKl+IHJEMxlna4nhbvmlizcLGaZx0Qj5tMTJ07sGliG3lKx43WZjzrrIjdwjbecRUoICIFCERAHoFCkB1lOLGK+YNfXcXgZdieXXhtkdr0l12vI700EjywPDv8w7qTvaEmmd9MLvfSWYDDHuaE9h4cjBtT4uwQJGKF+ZlnWF3510M6NHvrgBv6oeCpzAzs9L3OPdrEO5buIjwPiBUC4JyBsCKX36kRwnwPA3+UCZNgRI8S9/FNidaFnm5qaOqEAr9mpuTsqoN28FuUCPVAuazJ4tUnkhEAlEBAHoMxqkcdyp8fqze2497Uj8NAARwa4Mzb0RiDgerwfzePZTxmpzIIWJ3OP7h3rW9oGWxrrrDicfg0gXj6gvAjaMEg/7W+VPy4H32hvr0046V+ws3Fu3Mnczw1+a2dwxGLgoQ+OenC4HH7DOvwAgUbxe362wef6CTei9yHCQbka3Chq1e1iW6HrmkwzO/is/eeQI/diP6mUoqv8yIusEBAChSEgDkBhOA95KdFw6CU9NACotuXG62Fu7PI2AQ4B12cv4zDdO1530zFvszPwFx0Z0D1pv4bpSXSznfR97Lz8zm/abnmETI6Cu6w+nsy2Y7xt7lZap4STPTXhZG6Lt6VnJlLZRTlXcSOJ/2Bn4zIEOBAJxnE+OtLBb6W5EUEHV+YMIDqP9d42HQ5t3GiZh0bDxgN6kmgxtdYrFjLHnb3qQIBP2HV1LV7lRU4ICIHCERAHoHCs81JSzArNilrm/q4K6obtdm40vsxLQV9nuhkBnKAjA52B4QsSqczfWpz0JMdx1v5apOdPs7LZdRblcDqhOqhnib6PEtJHyqXTgqpzR+7Nn6/Lbk5m4i2pzGJU7ltaJwC6lnM5FhWyYwTeHk3LCfK49Zs1OzDE0Yg3ifAaQtg9sHzJBo2W8WM7Yl5uh0OvT0IckpUi+1XEg4AiusSDWLeItgtV7o/dX+SPEBACJUdAHICSq5KBKdQUHuvYlvGr5dA1BgHP5obwnYHl5COVvpOA4GACfGApBT9udrJPJZzsKS3JbN2aucx2nLGq032Rf3AT1zzn9TsSbuzyGL0uDwEuBi5bIdgAOBLK7kXvALp3I9BhXbmgnrz3vVgkdHosbExvaGhYUormcL3uSQTf96obonpIev9eaYmcECg8Ab4eF75QKTF/BLaLRD6JWqHJHC4ey721vbmRfDZ/pX2dMyIMXzExjK7jnnoqnszO5R76LTz+fgCH5n+ao8CrCDjh6xRV8ukrM1fM1p/K9XE85mi8bZlb2eG6Izl6c++248d++JVYqb5PIwrk0L3Cs35EPPqSu8CzvAgKASFQcAKq4CVKgQUhgIhuQ8R8wo4YuxKqKAD+mYAWQoFeiDSWG7vjAHAaIf6b9fkuVMuLGz+2vQ0QbiWEI4JB2JLrQc/WP5zfb42OM+eUGwrTyR6jAMd71lvRvY11dUnP8iIoBIRAwQmogpcoBRacQCxcO9u2QictGzViM90gEcCLBVeiggtkx+ozJPg3EF3EfHfPDVMbcEM/zg4bx3NI/54JhvFuOZuv53ewQ3eRDxs6Fbl+5H1kLaJCQAgMFQFxAIaKZBnkoxfM0Q1SzDJ2ymEggghXE9JHZaB6KanYxQ5UHHREhXv3CpRlh40NohHj53bEvJD5Ti/2TH0Y4teXEDyLADfxmi0C3NFgWfO8youcEBACxSEgDkBxuBe9VD1pMBo2zvh8/ntb6F6rC3QfAC0tumKlpABRDlxIajbcAz5dodopt3jkOuxANdocUeHG/p4GqzaFfLJHtSvg4JuZzBiObJzm1RQkWgaYu9SrvMgJASFQPALiABSPfUmUrJeM5YZseqNlHvrlqBEbshMwCZD0swe6SkLBwinRpcftufc6FQBP5UZ9R7V86Tp2vVGv2UTD5jUN4doXm5o2qyonqWs5Xg6Ia4HHlwvqz9Fw+H2P4iImBIRAEQmIA1BE+KVWtB4isC3zQTts7pVzg1sSwcms4wvcA8zxe+VsBB9j93K6dB0CHkOA24wO0Gg7YoyLWsbh3LufohdaGuTteGXPK5HKbkPoHuLZEIJFEHSv9CwvgkJACBSVgDgARcVfuoU31W/9QSxi3GBbxs7BrsDm3Ej+moj+U2bOwGIm3Owi/BWRTieFuwY71Sbc0H832r2crvm7qBW6M2aFZpmm2QHyWkWA61qBm7uJIyFq1cH+PiBctvoKjf2Jy3khIASKS8D7P3dx9ZTSi0hgwoTaj7iR/EssYv6EgrApIBznEvyTnYF8rzo4WKtHE8AE1rPJJdxWufT9XJB+2JLM1un72gebeZ/py/zkbCf7K0C1jWczXMhyFGWKZ3kRFAJCoOgExAEoehWUlwK6h2eHjdsaI8aeX44esYHuVSPA9Txc8F4pWsK6DVOA4/n9QHYGLiGkh3lPmansl4lkZk7CyU5LJNMXdi9YNCc9ThwDgJnJ5AbMytdEPgzAmRJFKcX/ANFJCPROQPV+Ss4Igb4J6DkD+jG0PG5+Co+bb0k8lo5EFwO5r3MI2e07ddHP1nAkox6ADgD9+F+9YFEAW81UZlH38wWc9EPNTuZ/4072RL2SYaIta/p4+FHRjRuMAsNx2GRA2NBHHi9Ew8ajPuRFVAgIgRIgoEpAB1GhAgggD7LzMMGsaMS8wI7UbdsJXd9FoAN5f5jN+4L3MtlwpH6+ADsz+/E/x5ms/58J8d+gqH15YPiXHCl4O+5kZvD7nS1O5g+JZPaQeDK9/Ztvzt24TAzsU81EMvMDl9yj+hRa7aR29DBAA3uy42r5yEchIAQKT4CvcYUvVEqsfALbdT+TwJwWtcz9bcv4jqtc7m3jqd23GOrZ4mWIgJ0c/n/BLRFgZwA8igAuYXvu4+OvdNW4H8ad7OJ4KtOaSKWfZufgnoSTmZxwsqfGk9mD4+3tO81KzbP0qnpQoq90Oj2cVbuN7WE7+ZOHTaG6K2qaCQ+iIiIEhECJEfD8j15ieos6ZUZArwvPwwRT7LC5V9oKrU88XAAEZ3ID+iS/Lyozc3pUl6MFo5BgHBDuSgCHsdDveYjhWkT6G7rqhQDlkl9CcBFHD5YkUpl0oq39RXYQHmRnYUoimT6Xe99Hxp303tpZiKfmNiSS87ZOzJu3LudTkG1xF5zDoX921DwWx47c8i71B4/SIiYEhECJERAHoMQqpBrU0c+3j1mhWXbEuGp1h4AIzgAXHuOw8oIy5uBBdRwJBAYotQM7CPuzs3AyIF4GCHch4GPIzgKS2wKYmwcduc8STobYMfgs7mTmsaPQwt+f5/0xdhjubkllrmcH4uJ4MnM6fz+O9yPZwThA7xyN+Hm8PbvLbCfz4+ZkplHv8XS6/o329lq9z5nz7vpvvPH2eq2traNb5qTHEeI5HpRfJUII55fDkwxXKSwfhIAQ+AYBcQC+gUO+FIPAVw5BLGJcbdcb+8Qi5sYEXZtz4zgJu+8woJdZr07eq3ZDwHURYGtAbACAH/G+NyAczk7Tb9mBOB8RruLvt/B+FwBO0zsS/AtdesYFeE4hzNI75nBOzlVZvS8PdHySG9b5aWdwxBcUwFbOfxh4fzVnwqGbvIuLpBAQAqVGQByAUqsR0aebQMyy5tuW+WDUMk5hh2CHtaBrA1K4KxCdyz3PR9g5eKdbsNT+VIM+RDlAPHESYq4azBUbhUClEhAHoFJrtsLssizrC33LoR0xr4iFjf3YOdhKBWFjboj24P1CWPH8gg8qzOwSNUfdbIdDr5eocqKWEBACHgmIA+ARlIiVHoEGw1jADdG/eL9IzyWwLWMz7RSsiBTAmRzSnsoRg9mseaGGD7ioyt4Q6MPcMDivsq0U64RAdRAQB6A66rlqrNROwYpIgXEVDx8czhGDaG7xwlGEKsqN12EcLbiCx8T/wUMIaYZSbU88ZJMHuSH+uikU+nyQuUhyISAESoCAKgEdRAUhkFcCTU1NnbFw7eyoZd7L0YJzGy1jX9sy60YHaLQLqgERDkK9gqEL01yCBDsIA1u4KK9WFD9zF+g+WfGv+PUgGgiBoSIgDsBQkZR8yo6AXru+0ap9gxu1B6J6BcN648DGiBFjB+E7+qmBbNAOQKBXxbuMAB7g7828f8J7NW4fjMiNOLkaDRebhUClEhAHoFJrVuwaFIEJE2o/si3jZTti/JXf/xCzjIP4vYn3DWu6lq2NORqPhHshwW+5oKsA8EEgV0+M+4CIOIjARytoU0THjxs35tMKMklMEQJVT0AcgKr/CQgAvwTGjx+/ODrOnBONhJ6MRowb2Sk407ZCk+xI3bb8ebPPP3xvOGJuC9el7QFhXyI4GRCv4GjCPRxJeAqI9MTE+VxumUxOpLsaIuYTrK9sQkAIVBABcQAqqDLFlCISWK3oiRMndkXD4fcb681X7bDxj1jEuEHPPeBowhExy/iZHTGj7ChszvuwYbnhG+QwEFGodiLC/QnwRHYQzuUQwp84y9sR6GEi+o+em0AAbxHQZ3y8cJsLSdWxVEc5ClemlCQEhEBBCIgDUBDMUogQ6JmADqs3hcc6DeHaF2OR0MMxK3SzHTGvaLSM39uW8auoZe4fi5g/aYwYMXYexsYsc30+jrnFI0dRgL4bUG4IlGtz7juAq3YDoEkAeChHG44ndiYQ8Gy9A8Ll7DxMRoDr+fOt39gBbuc0D/a08wViUkNDwxKQlxAQAhVHgP+/K84mMUgIFJpAwctratpsacw0P/5eXd1cu66uhZ2Cl+362mdsy3zQtkL32RHj1hg7E1ErNFnvHIk4L2aZZ0ct4xT+fPw3dnY0bD2E0cPeUG+0Ftw4KVAICIGCEBAHoCCYpRAhIASEgBAQAqVFQByA0qoP0aYcCYjOQkAICIEyJCAOQBlWmqgsBISAEBACQmCwBMQBGCxBSV/tBMR+ISAEhEBZEhAHoCyrTZQWAkJACAgBITA4AuIADI6fpK52AmK/EBACQqBMCYgDUKYVJ2oLASEgBISAEBgMAXEABkNP0lY7AbFfCAgBIVC2BMQBKNuqE8WFgBAQAkJACAycgDgAA2cnKaudgNgvBISAEChjAuIAlHHliepCQAgIASEgBAZKQByAgZKTdNVOQOwXAkJACJQ1AXEAyrr6RHkhIASEgBAQAgMjIA7AwLhJqmonIPYLASEgBMqcgDgAZV6Bor4QEAJCQAgIgYEQEAdgINQkTbUTEPuFgBAQAmVPQByAsq9CMUAICAEhIASEgH8C4gD4ZyYpqp2A2C8EhIAQqAAC4gBUQCWKCUJACAgBISAE/BIQB8AvMZGvdgJivxAQAkKgIgiIA1AR1ShGCAEhIASEgBDwR0AcAH+8RLraCYj9QkAICIEKISAOQIVUpJghBISAEBACQsAPAXEA/NAS2WonIPYLASEgBCqGgDgAFVOVYogQEAJCQAgIAe8ExAHwzkokq52A2C8EhIAQqCAC4gBUUGWKKUJACAhsea49AAAByklEQVQBISAEvBIQB8ArKZGrdgJivxAQAkKgogiIA1BR1SnGCAEhIASEgBDwRkAcAG+cRKraCYj9QkAICIEKIyAOQIVVqJgjBISAEBACQsALAXEAvFASmWonIPYLASEgBCqOgDgAFVelYpAQEAJCQAgIgf4JiAPQPyORqHYCYr8QEAJCoAIJiANQgZUqJgkBISAEhIAQ6I+AOAD9EZLz1U5A7BcCQkAIVCQBcQAqslrFKCEgBISAEBACfRMQB6BvPnK22gmI/UJACAiBCiUgDkCFVqyYJQSEgBAQAkKgLwLiAPRFR85VOwGxXwgIASFQsQTEAajYqhXDhIAQEAJCQAj0TkAcgN7ZyJlqJyD2CwEhIAQqmIA4ABVcuWKaEBACQkAICIHeCIgD0BsZOV7tBMR+ISAEhEBFExAHoKKrV4wTAkJACAgBIdAzAXEAeuYiR6udgNgvBISAEKhwAuIAVHgFi3lCQAgIASEgBHoiIA5AT1TkWLUTEPuFgBAQAhVPQByAiq9iMVAICAEhIASEwLcJiAPwbSZypNoJiP1CQAgIgSogIA5AFVSymCgEhIAQEAJCYE0C4gCsSUS+VzsBsV8ICAEhUBUE/j8AAAD//41V3nEAAAAGSURBVAMAtYMO3oBVokIAAAAASUVORK5CYII=;" vertex="1" parent="1">
          <mxGeometry x="290" y="110" width="61" height="61" as="geometry" />
        </mxCell>
        <mxCell id="tltbxlsDR6JqNSdJ9Jkg-2" value="&lt;font style=&quot;font-size: 16px;&quot;&gt;SQL Server&lt;/font&gt;" style="text;html=1;align=center;verticalAlign=middle;resizable=0;points=[];autosize=1;strokeColor=none;fillColor=none;" vertex="1" parent="1">
          <mxGeometry x="335" y="125.5" width="110" height="30" as="geometry" />
        </mxCell>
      </root>
    </mxGraphModel>
  </diagram>
</mxfile>
